<svg width="676" height="48" viewBox="0 0 676 48" fill="none" xmlns="http://www.w3.org/2000/svg">
<path d="M20.744 0.791996C24.7973 0.791996 28.3387 1.70933 31.368 3.544C34.44 5.37866 36.808 8.024 38.472 11.48C40.1787 14.8933 41.032 19.0533 41.032 23.96C41.032 28.7387 40.1573 32.92 38.408 36.504C36.7013 40.088 34.312 42.8827 31.24 44.888C28.168 46.8933 24.648 47.896 20.68 47.896C16.6267 47.896 13.064 46.9787 9.992 45.144C6.96267 43.3093 4.59467 40.664 2.888 37.208C1.224 33.752 0.392 29.592 0.392 24.728C0.392 19.9493 1.26667 15.768 3.016 12.184C4.76533 8.6 7.15467 5.80533 10.184 3.8C13.256 1.79466 16.776 0.791996 20.744 0.791996ZM20.488 1.944C17.7147 1.944 15.304 2.904 13.256 4.824C11.208 6.744 9.608 9.38933 8.456 12.76C7.34667 16.1307 6.792 20.0347 6.792 24.472C6.792 28.9947 7.41067 32.9413 8.648 36.312C9.928 39.64 11.6347 42.2213 13.768 44.056C15.944 45.848 18.3333 46.744 20.936 46.744C23.7093 46.744 26.12 45.784 28.168 43.864C30.216 41.944 31.7947 39.2987 32.904 35.928C34.056 32.5147 34.632 28.6107 34.632 24.216C34.632 19.6507 33.992 15.704 32.712 12.376C31.4747 9.048 29.7893 6.488 27.656 4.696C25.5227 2.86133 23.1333 1.944 20.488 1.944ZM82.3255 1.688C82.1548 3.30933 82.0268 4.888 81.9415 6.424C81.8988 7.91733 81.8775 9.06933 81.8775 9.88C81.8775 10.904 81.8988 11.864 81.9415 12.76C81.9842 13.656 82.0268 14.4453 82.0695 15.128H80.5975C80.2988 12.1413 79.8935 9.79467 79.3815 8.088C78.8695 6.33866 77.9735 5.08 76.6935 4.312C75.4135 3.544 73.4295 3.16 70.7415 3.16H67.2855V39.576C67.2855 41.2827 67.4348 42.5627 67.7335 43.416C68.0748 44.2693 68.7148 44.8453 69.6535 45.144C70.5922 45.4427 71.9575 45.6347 73.7495 45.72V47C72.6402 46.9147 71.2322 46.872 69.5255 46.872C67.8188 46.8293 66.0908 46.808 64.3415 46.808C62.4215 46.808 60.6082 46.8293 58.9015 46.872C57.2375 46.872 55.8935 46.9147 54.8695 47V45.72C56.6615 45.6347 58.0268 45.4427 58.9655 45.144C59.9042 44.8453 60.5228 44.2693 60.8215 43.416C61.1628 42.5627 61.3335 41.2827 61.3335 39.576V3.16H57.8775C55.2322 3.16 53.2482 3.544 51.9255 4.312C50.6455 5.08 49.7495 6.33866 49.2375 8.088C48.7255 9.79467 48.3202 12.1413 48.0215 15.128H46.5495C46.6348 14.4453 46.6775 13.656 46.6775 12.76C46.7202 11.864 46.7415 10.904 46.7415 9.88C46.7415 9.06933 46.6988 7.91733 46.6135 6.424C46.5708 4.888 46.4642 3.30933 46.2935 1.688C48.0855 1.73067 50.0268 1.77333 52.1175 1.816C54.2508 1.85866 56.3842 1.88 58.5175 1.88C60.6508 1.88 62.5922 1.88 64.3415 1.88C66.0908 1.88 68.0108 1.88 70.1015 1.88C72.2348 1.88 74.3682 1.85866 76.5015 1.816C78.6348 1.77333 80.5762 1.73067 82.3255 1.688ZM113.628 47V45.72C115.078 45.6347 116.166 45.464 116.892 45.208C117.66 44.952 118.172 44.44 118.428 43.672C118.684 42.904 118.812 41.752 118.812 40.216V8.472C118.812 6.89333 118.684 5.74133 118.428 5.016C118.172 4.248 117.66 3.736 116.892 3.48C116.166 3.18133 115.078 3.01066 113.628 2.968V1.688C114.609 1.73067 115.846 1.77333 117.34 1.816C118.833 1.85866 120.305 1.88 121.756 1.88C123.42 1.88 124.977 1.85866 126.428 1.816C127.878 1.77333 129.052 1.73067 129.948 1.688V2.968C128.497 3.01066 127.388 3.18133 126.62 3.48C125.894 3.736 125.404 4.248 125.148 5.016C124.892 5.74133 124.764 6.89333 124.764 8.472V40.216C124.764 41.752 124.892 42.904 125.148 43.672C125.404 44.44 125.894 44.952 126.62 45.208C127.388 45.464 128.497 45.6347 129.948 45.72V47C129.052 46.9147 127.878 46.872 126.428 46.872C124.977 46.8293 123.42 46.808 121.756 46.808C120.305 46.808 118.833 46.8293 117.34 46.872C115.846 46.872 114.609 46.9147 113.628 47ZM86.8755 47V45.72C88.3262 45.6347 89.4142 45.464 90.1395 45.208C90.9075 44.952 91.4195 44.44 91.6755 43.672C91.9315 42.904 92.0595 41.752 92.0595 40.216V8.472C92.0595 6.89333 91.9315 5.74133 91.6755 5.016C91.4195 4.248 90.9075 3.736 90.1395 3.48C89.4142 3.18133 88.3262 3.01066 86.8755 2.968V1.688C87.7715 1.73067 88.9448 1.77333 90.3955 1.816C91.8462 1.85866 93.4035 1.88 95.0675 1.88C96.5608 1.88 98.0328 1.85866 99.4835 1.816C100.977 1.77333 102.214 1.73067 103.196 1.688V2.968C101.745 3.01066 100.636 3.18133 99.8675 3.48C99.1422 3.736 98.6515 4.248 98.3955 5.016C98.1395 5.74133 98.0115 6.89333 98.0115 8.472V40.216C98.0115 41.752 98.1395 42.904 98.3955 43.672C98.6515 44.44 99.1422 44.952 99.8675 45.208C100.636 45.464 101.745 45.6347 103.196 45.72V47C102.214 46.9147 100.977 46.872 99.4835 46.872C98.0328 46.8293 96.5608 46.808 95.0675 46.808C93.4035 46.808 91.8462 46.8293 90.3955 46.872C88.9448 46.872 87.7715 46.9147 86.8755 47ZM95.7715 24.856V23.576H121.052V24.856H95.7715ZM167.249 1.688C167.078 3.18133 166.95 4.632 166.865 6.04C166.822 7.448 166.801 8.51466 166.801 9.24C166.801 10.008 166.822 10.7547 166.865 11.48C166.908 12.1627 166.95 12.7387 166.993 13.208H165.521C165.265 10.6907 164.902 8.70667 164.433 7.256C163.964 5.76266 163.153 4.71733 162.001 4.12C160.892 3.48 159.206 3.16 156.945 3.16H151.633C150.182 3.16 149.073 3.288 148.305 3.544C147.58 3.75733 147.089 4.248 146.833 5.016C146.577 5.74133 146.449 6.89333 146.449 8.472V40.216C146.449 41.752 146.577 42.904 146.833 43.672C147.089 44.44 147.58 44.952 148.305 45.208C149.073 45.4213 150.182 45.528 151.633 45.528H156.305C158.993 45.528 161.02 45.1653 162.385 44.44C163.793 43.7147 164.796 42.5413 165.393 40.92C166.033 39.256 166.502 37.016 166.801 34.2H168.273C168.145 35.352 168.081 36.888 168.081 38.808C168.081 39.6187 168.102 40.792 168.145 42.328C168.23 43.8213 168.358 45.3787 168.529 47C166.353 46.9147 163.9 46.872 161.169 46.872C158.438 46.8293 156.006 46.808 153.873 46.808C152.934 46.808 151.718 46.808 150.225 46.808C148.774 46.808 147.196 46.8293 145.489 46.872C143.782 46.872 142.054 46.8933 140.305 46.936C138.556 46.936 136.892 46.9573 135.313 47V45.72C136.764 45.6347 137.852 45.464 138.577 45.208C139.345 44.952 139.857 44.44 140.113 43.672C140.369 42.904 140.497 41.752 140.497 40.216V8.472C140.497 6.89333 140.369 5.74133 140.113 5.016C139.857 4.248 139.345 3.736 138.577 3.48C137.852 3.18133 136.764 3.01066 135.313 2.968V1.688C136.892 1.73067 138.556 1.77333 140.305 1.816C142.054 1.816 143.782 1.83733 145.489 1.88C147.196 1.88 148.774 1.88 150.225 1.88C151.718 1.88 152.934 1.88 153.873 1.88C155.836 1.88 158.054 1.88 160.529 1.88C163.046 1.83733 165.286 1.77333 167.249 1.688ZM156.241 23.576C156.241 23.576 156.241 23.7893 156.241 24.216C156.241 24.6427 156.241 24.856 156.241 24.856H144.529C144.529 24.856 144.529 24.6427 144.529 24.216C144.529 23.7893 144.529 23.576 144.529 23.576H156.241ZM158.097 15.128C157.926 17.56 157.841 19.416 157.841 20.696C157.884 21.976 157.905 23.1493 157.905 24.216C157.905 25.2827 157.926 26.456 157.969 27.736C158.012 29.016 158.118 30.872 158.289 33.304H156.817C156.646 31.9387 156.433 30.616 156.177 29.336C155.964 28.0133 155.452 26.9467 154.641 26.136C153.873 25.2827 152.55 24.856 150.673 24.856V23.576C152.081 23.576 153.148 23.2987 153.873 22.744C154.641 22.1467 155.196 21.4 155.537 20.504C155.878 19.608 156.113 18.6907 156.241 17.752C156.369 16.7707 156.497 15.896 156.625 15.128H158.097ZM174.313 1.688C175.209 1.73067 176.382 1.77333 177.833 1.816C179.284 1.85866 180.713 1.88 182.121 1.88C184.126 1.88 186.046 1.85866 187.881 1.816C189.716 1.77333 191.017 1.752 191.785 1.752C195.241 1.752 198.1 2.24267 200.361 3.224C202.665 4.20533 204.372 5.54933 205.481 7.256C206.633 8.92 207.209 10.7973 207.209 12.888C207.209 14.168 206.953 15.5333 206.441 16.984C205.929 18.4347 205.033 19.8 203.753 21.08C202.516 22.36 200.809 23.4267 198.633 24.28C196.457 25.0907 193.705 25.496 190.377 25.496H184.233V24.216H189.737C192.766 24.216 195.07 23.7467 196.649 22.808C198.27 21.8267 199.358 20.5467 199.913 18.968C200.51 17.3467 200.809 15.5547 200.809 13.592C200.809 10.2213 199.998 7.61867 198.377 5.784C196.798 3.90666 194.068 2.968 190.185 2.968C188.222 2.968 186.942 3.33067 186.345 4.056C185.748 4.78133 185.449 6.25333 185.449 8.472V40.216C185.449 41.752 185.577 42.904 185.833 43.672C186.089 44.44 186.58 44.952 187.305 45.208C188.073 45.464 189.182 45.6347 190.633 45.72V47C189.652 46.9147 188.414 46.872 186.921 46.872C185.47 46.8293 183.998 46.808 182.505 46.808C180.841 46.808 179.284 46.8293 177.833 46.872C176.382 46.872 175.209 46.9147 174.313 47V45.72C175.764 45.6347 176.852 45.464 177.577 45.208C178.345 44.952 178.857 44.44 179.113 43.672C179.369 42.904 179.497 41.752 179.497 40.216V8.472C179.497 6.89333 179.369 5.74133 179.113 5.016C178.857 4.248 178.345 3.736 177.577 3.48C176.852 3.18133 175.764 3.01066 174.313 2.968V1.688ZM184.489 24.408C186.793 24.4933 188.606 24.6 189.929 24.728C191.252 24.8133 192.318 24.8987 193.129 24.984C193.982 25.0693 194.793 25.176 195.561 25.304C198.42 25.7733 200.468 26.648 201.705 27.928C202.985 29.1653 203.924 31.1067 204.521 33.752L206.121 40.28C206.548 42.1573 206.974 43.5227 207.401 44.376C207.87 45.1867 208.574 45.5707 209.513 45.528C210.238 45.4853 210.836 45.2507 211.305 44.824C211.817 44.3973 212.35 43.8213 212.905 43.096L213.865 43.8C212.969 45.1227 212.03 46.1467 211.049 46.872C210.11 47.5547 208.766 47.896 207.017 47.896C205.438 47.896 204.052 47.4267 202.857 46.488C201.662 45.5493 200.766 43.7147 200.169 40.984L198.761 34.584C198.377 32.7493 197.929 31.1707 197.417 29.848C196.948 28.4827 196.265 27.416 195.369 26.648C194.516 25.88 193.236 25.496 191.529 25.496H184.617L184.489 24.408ZM248.473 1.688C256.11 1.688 261.785 3.608 265.497 7.448C269.209 11.2453 271.065 16.7067 271.065 23.832C271.065 28.4827 270.147 32.5573 268.312 36.056C266.521 39.512 263.897 42.2 260.441 44.12C256.985 46.04 252.803 47 247.897 47C247.257 47 246.403 46.9787 245.337 46.936C244.27 46.8933 243.161 46.872 242.009 46.872C240.899 46.8293 239.875 46.808 238.937 46.808C237.443 46.808 235.971 46.8293 234.521 46.872C233.07 46.872 231.897 46.9147 231.001 47V45.72C232.451 45.6347 233.539 45.464 234.265 45.208C235.033 44.952 235.545 44.44 235.801 43.672C236.057 42.904 236.185 41.752 236.185 40.216V8.472C236.185 6.89333 236.057 5.74133 235.801 5.016C235.545 4.248 235.033 3.736 234.265 3.48C233.539 3.18133 232.451 3.01066 231.001 2.968V1.688C231.897 1.73067 233.07 1.79467 234.521 1.88C235.971 1.92266 237.401 1.92266 238.809 1.88C240.302 1.83733 241.987 1.79467 243.865 1.752C245.742 1.70933 247.278 1.688 248.473 1.688ZM246.873 2.84C244.91 2.84 243.63 3.20266 243.033 3.928C242.435 4.65333 242.137 6.12533 242.137 8.344V40.344C242.137 42.5627 242.435 44.0347 243.033 44.76C243.673 45.4853 244.974 45.848 246.937 45.848C251.587 45.848 255.193 45.016 257.753 43.352C260.313 41.6453 262.105 39.1707 263.129 35.928C264.153 32.6853 264.665 28.7387 264.665 24.088C264.665 19.3093 264.089 15.3627 262.937 12.248C261.827 9.09066 259.971 6.744 257.369 5.208C254.809 3.62933 251.31 2.84 246.873 2.84ZM308.624 1.688C308.453 3.18133 308.325 4.632 308.24 6.04C308.197 7.448 308.176 8.51466 308.176 9.24C308.176 10.008 308.197 10.7547 308.24 11.48C308.283 12.1627 308.325 12.7387 308.368 13.208H306.896C306.64 10.6907 306.277 8.70667 305.808 7.256C305.339 5.76266 304.528 4.71733 303.376 4.12C302.267 3.48 300.581 3.16 298.32 3.16H293.008C291.557 3.16 290.448 3.288 289.68 3.544C288.955 3.75733 288.464 4.248 288.208 5.016C287.952 5.74133 287.824 6.89333 287.824 8.472V40.216C287.824 41.752 287.952 42.904 288.208 43.672C288.464 44.44 288.955 44.952 289.68 45.208C290.448 45.4213 291.557 45.528 293.008 45.528H297.68C300.368 45.528 302.395 45.1653 303.76 44.44C305.168 43.7147 306.171 42.5413 306.768 40.92C307.408 39.256 307.877 37.016 308.176 34.2H309.648C309.52 35.352 309.456 36.888 309.456 38.808C309.456 39.6187 309.477 40.792 309.52 42.328C309.605 43.8213 309.733 45.3787 309.904 47C307.728 46.9147 305.275 46.872 302.544 46.872C299.813 46.8293 297.381 46.808 295.248 46.808C294.309 46.808 293.093 46.808 291.6 46.808C290.149 46.808 288.571 46.8293 286.864 46.872C285.157 46.872 283.429 46.8933 281.68 46.936C279.931 46.936 278.267 46.9573 276.688 47V45.72C278.139 45.6347 279.227 45.464 279.952 45.208C280.72 44.952 281.232 44.44 281.488 43.672C281.744 42.904 281.872 41.752 281.872 40.216V8.472C281.872 6.89333 281.744 5.74133 281.488 5.016C281.232 4.248 280.72 3.736 279.952 3.48C279.227 3.18133 278.139 3.01066 276.688 2.968V1.688C278.267 1.73067 279.931 1.77333 281.68 1.816C283.429 1.816 285.157 1.83733 286.864 1.88C288.571 1.88 290.149 1.88 291.6 1.88C293.093 1.88 294.309 1.88 295.248 1.88C297.211 1.88 299.429 1.88 301.904 1.88C304.421 1.83733 306.661 1.77333 308.624 1.688ZM297.616 23.576C297.616 23.576 297.616 23.7893 297.616 24.216C297.616 24.6427 297.616 24.856 297.616 24.856H285.904C285.904 24.856 285.904 24.6427 285.904 24.216C285.904 23.7893 285.904 23.576 285.904 23.576H297.616ZM299.472 15.128C299.301 17.56 299.216 19.416 299.216 20.696C299.259 21.976 299.28 23.1493 299.28 24.216C299.28 25.2827 299.301 26.456 299.344 27.736C299.387 29.016 299.493 30.872 299.664 33.304H298.192C298.021 31.9387 297.808 30.616 297.552 29.336C297.339 28.0133 296.827 26.9467 296.016 26.136C295.248 25.2827 293.925 24.856 292.048 24.856V23.576C293.456 23.576 294.523 23.2987 295.248 22.744C296.016 22.1467 296.571 21.4 296.912 20.504C297.253 19.608 297.488 18.6907 297.616 17.752C297.744 16.7707 297.872 15.896 298 15.128H299.472ZM329.384 0.983997C331.517 0.983997 333.139 1.24 334.248 1.752C335.357 2.22133 336.339 2.75466 337.192 3.352C337.704 3.65067 338.109 3.88533 338.408 4.056C338.749 4.184 339.069 4.248 339.368 4.248C339.795 4.248 340.093 4.01333 340.264 3.544C340.477 3.07466 340.648 2.37066 340.776 1.432H342.248C342.205 2.15733 342.141 3.032 342.056 4.056C342.013 5.03733 341.971 6.36 341.928 8.024C341.928 9.64533 341.928 11.8 341.928 14.488H340.456C340.328 12.44 339.88 10.4773 339.112 8.6C338.344 6.72266 337.213 5.18666 335.72 3.992C334.269 2.79733 332.349 2.2 329.96 2.2C327.699 2.2 325.821 2.88266 324.328 4.248C322.877 5.61333 322.152 7.40533 322.152 9.624C322.152 11.544 322.643 13.1653 323.624 14.488C324.605 15.768 325.907 16.9413 327.528 18.008C329.192 19.032 330.984 20.1413 332.904 21.336C335.123 22.7013 337.085 24.0667 338.792 25.432C340.541 26.7547 341.907 28.2267 342.888 29.848C343.912 31.4693 344.424 33.432 344.424 35.736C344.424 38.4667 343.805 40.728 342.568 42.52C341.331 44.312 339.688 45.656 337.64 46.552C335.592 47.448 333.331 47.896 330.856 47.896C328.595 47.896 326.803 47.64 325.48 47.128C324.157 46.616 323.027 46.0827 322.088 45.528C321.149 44.9307 320.424 44.632 319.912 44.632C319.485 44.632 319.165 44.8667 318.952 45.336C318.781 45.8053 318.632 46.5093 318.504 47.448H317.032C317.117 46.552 317.16 45.5067 317.16 44.312C317.203 43.0747 317.224 41.4747 317.224 39.512C317.267 37.5493 317.288 35.0747 317.288 32.088H318.76C318.931 34.648 319.4 37.0373 320.168 39.256C320.979 41.4747 322.195 43.2667 323.816 44.632C325.48 45.9547 327.677 46.616 330.408 46.616C331.816 46.616 333.139 46.3387 334.376 45.784C335.656 45.1867 336.701 44.2693 337.512 43.032C338.323 41.752 338.728 40.1093 338.728 38.104C338.728 36.3547 338.301 34.84 337.448 33.56C336.637 32.2373 335.485 31.0213 333.992 29.912C332.499 28.76 330.749 27.5867 328.744 26.392C326.739 25.1547 324.861 23.896 323.112 22.616C321.363 21.336 319.955 19.864 318.888 18.2C317.864 16.4933 317.352 14.4453 317.352 12.056C317.352 9.53867 317.907 7.46933 319.016 5.848C320.168 4.184 321.661 2.968 323.496 2.2C325.331 1.38933 327.293 0.983997 329.384 0.983997ZM385.451 1.688C385.28 3.30933 385.152 4.888 385.067 6.424C385.024 7.91733 385.003 9.06933 385.003 9.88C385.003 10.904 385.024 11.864 385.067 12.76C385.109 13.656 385.152 14.4453 385.194 15.128H383.722C383.424 12.1413 383.019 9.79467 382.507 8.088C381.995 6.33866 381.099 5.08 379.819 4.312C378.539 3.544 376.555 3.16 373.867 3.16H370.411V39.576C370.411 41.2827 370.56 42.5627 370.859 43.416C371.2 44.2693 371.84 44.8453 372.779 45.144C373.717 45.4427 375.083 45.6347 376.875 45.72V47C375.765 46.9147 374.357 46.872 372.651 46.872C370.944 46.8293 369.216 46.808 367.467 46.808C365.547 46.808 363.733 46.8293 362.027 46.872C360.363 46.872 359.019 46.9147 357.995 47V45.72C359.787 45.6347 361.152 45.4427 362.091 45.144C363.029 44.8453 363.648 44.2693 363.947 43.416C364.288 42.5627 364.458 41.2827 364.458 39.576V3.16H361.003C358.357 3.16 356.373 3.544 355.051 4.312C353.771 5.08 352.875 6.33866 352.363 8.088C351.851 9.79467 351.445 12.1413 351.147 15.128H349.674C349.76 14.4453 349.803 13.656 349.803 12.76C349.845 11.864 349.867 10.904 349.867 9.88C349.867 9.06933 349.824 7.91733 349.739 6.424C349.696 4.888 349.589 3.30933 349.419 1.688C351.211 1.73067 353.152 1.77333 355.243 1.816C357.376 1.85866 359.509 1.88 361.643 1.88C363.776 1.88 365.717 1.88 367.467 1.88C369.216 1.88 371.136 1.88 373.227 1.88C375.36 1.88 377.493 1.85866 379.627 1.816C381.76 1.77333 383.701 1.73067 385.451 1.688ZM406.321 1.688V2.968C404.87 3.01066 403.761 3.18133 402.993 3.48C402.267 3.736 401.777 4.248 401.521 5.016C401.265 5.74133 401.137 6.89333 401.137 8.472V40.216C401.137 41.752 401.265 42.904 401.521 43.672C401.777 44.44 402.267 44.952 402.993 45.208C403.761 45.464 404.87 45.6347 406.321 45.72V47C405.339 46.9147 404.102 46.872 402.609 46.872C401.158 46.8293 399.686 46.808 398.193 46.808C396.529 46.808 394.971 46.8293 393.521 46.872C392.07 46.872 390.897 46.9147 390.001 47V45.72C391.451 45.6347 392.539 45.464 393.265 45.208C394.033 44.952 394.545 44.44 394.801 43.672C395.057 42.904 395.185 41.752 395.185 40.216V8.472C395.185 6.89333 395.057 5.74133 394.801 5.016C394.545 4.248 394.033 3.736 393.265 3.48C392.539 3.18133 391.451 3.01066 390.001 2.968V1.688C390.897 1.73067 392.07 1.77333 393.521 1.816C394.971 1.85866 396.529 1.88 398.193 1.88C399.686 1.88 401.158 1.85866 402.609 1.816C404.102 1.77333 405.339 1.73067 406.321 1.688ZM451.88 1.688V2.968C450.429 3.01066 449.32 3.224 448.552 3.608C447.827 3.992 447.336 4.61066 447.08 5.464C446.824 6.31733 446.696 7.53333 446.696 9.112V47.32C446.44 47.32 446.184 47.32 445.928 47.32C445.715 47.32 445.48 47.32 445.224 47.32L418.344 5.784V39.576C418.344 41.112 418.472 42.328 418.728 43.224C419.027 44.0773 419.581 44.696 420.392 45.08C421.245 45.4213 422.504 45.6347 424.168 45.72V47C423.4 46.9147 422.397 46.872 421.16 46.872C419.923 46.8293 418.749 46.808 417.64 46.808C416.573 46.808 415.485 46.8293 414.376 46.872C413.309 46.872 412.413 46.9147 411.688 47V45.72C413.139 45.6347 414.227 45.4213 414.952 45.08C415.72 44.696 416.232 44.0773 416.488 43.224C416.744 42.328 416.872 41.112 416.872 39.576V8.472C416.872 6.89333 416.744 5.74133 416.488 5.016C416.232 4.248 415.72 3.736 414.952 3.48C414.227 3.18133 413.139 3.01066 411.688 2.968V1.688C412.413 1.73067 413.309 1.77333 414.376 1.816C415.485 1.85866 416.573 1.88 417.64 1.88C418.579 1.88 419.475 1.85866 420.328 1.816C421.181 1.77333 421.949 1.73067 422.632 1.688L445.224 36.504V9.112C445.224 7.53333 445.075 6.31733 444.776 5.464C444.52 4.61066 443.965 3.992 443.112 3.608C442.301 3.224 441.064 3.01066 439.4 2.968V1.688C440.168 1.73067 441.171 1.77333 442.408 1.816C443.688 1.85866 444.861 1.88 445.928 1.88C447.037 1.88 448.125 1.85866 449.192 1.816C450.301 1.77333 451.197 1.73067 451.88 1.688ZM474.485 1.368L490.101 41.624C490.741 43.2453 491.466 44.3333 492.277 44.888C493.087 45.4 493.834 45.6773 494.517 45.72V47C493.663 46.9147 492.618 46.872 491.381 46.872C490.143 46.8293 488.906 46.808 487.669 46.808C486.005 46.808 484.447 46.8293 482.997 46.872C481.546 46.872 480.373 46.9147 479.477 47V45.72C481.653 45.6347 483.039 45.272 483.637 44.632C484.234 43.9493 484.106 42.52 483.253 40.344L471.349 8.536L472.373 7.704L461.237 36.632C460.554 38.3387 460.149 39.7893 460.021 40.984C459.893 42.136 459.999 43.0533 460.341 43.736C460.725 44.4187 461.343 44.9093 462.197 45.208C463.093 45.5067 464.202 45.6773 465.525 45.72V47C464.33 46.9147 463.071 46.872 461.749 46.872C460.469 46.8293 459.274 46.808 458.165 46.808C457.098 46.808 456.181 46.8293 455.413 46.872C454.687 46.872 454.005 46.9147 453.364 47V45.72C454.218 45.5067 455.093 45.016 455.989 44.248C456.885 43.4373 457.695 42.072 458.421 40.152L473.461 1.368C473.631 1.368 473.802 1.368 473.973 1.368C474.143 1.368 474.314 1.368 474.485 1.368ZM482.293 28.568V29.848H463.22L463.861 28.568H482.293ZM528.826 1.688C528.655 3.30933 528.527 4.888 528.442 6.424C528.399 7.91733 528.378 9.06933 528.378 9.88C528.378 10.904 528.399 11.864 528.442 12.76C528.484 13.656 528.527 14.4453 528.569 15.128H527.097C526.799 12.1413 526.394 9.79467 525.882 8.088C525.37 6.33866 524.474 5.08 523.194 4.312C521.914 3.544 519.93 3.16 517.242 3.16H513.786V39.576C513.786 41.2827 513.935 42.5627 514.234 43.416C514.575 44.2693 515.215 44.8453 516.154 45.144C517.092 45.4427 518.458 45.6347 520.25 45.72V47C519.14 46.9147 517.732 46.872 516.026 46.872C514.319 46.8293 512.591 46.808 510.842 46.808C508.922 46.808 507.108 46.8293 505.402 46.872C503.738 46.872 502.394 46.9147 501.37 47V45.72C503.162 45.6347 504.527 45.4427 505.466 45.144C506.404 44.8453 507.023 44.2693 507.322 43.416C507.663 42.5627 507.833 41.2827 507.833 39.576V3.16H504.378C501.732 3.16 499.748 3.544 498.426 4.312C497.146 5.08 496.25 6.33866 495.738 8.088C495.226 9.79467 494.82 12.1413 494.522 15.128H493.049C493.135 14.4453 493.178 13.656 493.178 12.76C493.22 11.864 493.242 10.904 493.242 9.88C493.242 9.06933 493.199 7.91733 493.114 6.424C493.071 4.888 492.964 3.30933 492.794 1.688C494.586 1.73067 496.527 1.77333 498.618 1.816C500.751 1.85866 502.884 1.88 505.018 1.88C507.151 1.88 509.092 1.88 510.842 1.88C512.591 1.88 514.511 1.88 516.602 1.88C518.735 1.88 520.868 1.85866 523.002 1.816C525.135 1.77333 527.076 1.73067 528.826 1.688ZM549.696 1.688V2.968C548.245 3.01066 547.136 3.18133 546.368 3.48C545.642 3.736 545.152 4.248 544.896 5.016C544.64 5.74133 544.512 6.89333 544.512 8.472V40.216C544.512 41.752 544.64 42.904 544.896 43.672C545.152 44.44 545.642 44.952 546.368 45.208C547.136 45.464 548.245 45.6347 549.696 45.72V47C548.714 46.9147 547.477 46.872 545.984 46.872C544.533 46.8293 543.061 46.808 541.568 46.808C539.904 46.808 538.346 46.8293 536.896 46.872C535.445 46.872 534.272 46.9147 533.376 47V45.72C534.826 45.6347 535.914 45.464 536.64 45.208C537.408 44.952 537.92 44.44 538.176 43.672C538.432 42.904 538.56 41.752 538.56 40.216V8.472C538.56 6.89333 538.432 5.74133 538.176 5.016C537.92 4.248 537.408 3.736 536.64 3.48C535.914 3.18133 534.826 3.01066 533.376 2.968V1.688C534.272 1.73067 535.445 1.77333 536.896 1.816C538.346 1.85866 539.904 1.88 541.568 1.88C543.061 1.88 544.533 1.85866 545.984 1.816C547.477 1.77333 548.714 1.73067 549.696 1.688ZM575.619 0.791996C579.672 0.791996 583.214 1.70933 586.243 3.544C589.315 5.37866 591.683 8.024 593.347 11.48C595.054 14.8933 595.907 19.0533 595.907 23.96C595.907 28.7387 595.032 32.92 593.283 36.504C591.576 40.088 589.187 42.8827 586.115 44.888C583.043 46.8933 579.523 47.896 575.555 47.896C571.502 47.896 567.939 46.9787 564.867 45.144C561.838 43.3093 559.47 40.664 557.763 37.208C556.099 33.752 555.267 29.592 555.267 24.728C555.267 19.9493 556.142 15.768 557.891 12.184C559.64 8.6 562.03 5.80533 565.059 3.8C568.131 1.79466 571.651 0.791996 575.619 0.791996ZM575.363 1.944C572.59 1.944 570.179 2.904 568.131 4.824C566.083 6.744 564.483 9.38933 563.331 12.76C562.222 16.1307 561.667 20.0347 561.667 24.472C561.667 28.9947 562.286 32.9413 563.523 36.312C564.803 39.64 566.51 42.2213 568.643 44.056C570.819 45.848 573.208 46.744 575.811 46.744C578.584 46.744 580.995 45.784 583.043 43.864C585.091 41.944 586.67 39.2987 587.779 35.928C588.931 32.5147 589.507 28.6107 589.507 24.216C589.507 19.6507 588.867 15.704 587.587 12.376C586.35 9.048 584.664 6.488 582.531 4.696C580.398 2.86133 578.008 1.944 575.363 1.944ZM641.693 1.688V2.968C640.242 3.01066 639.133 3.224 638.365 3.608C637.639 3.992 637.149 4.61066 636.893 5.464C636.637 6.31733 636.509 7.53333 636.509 9.112V47.32C636.253 47.32 635.997 47.32 635.741 47.32C635.527 47.32 635.293 47.32 635.037 47.32L608.157 5.784V39.576C608.157 41.112 608.285 42.328 608.541 43.224C608.839 44.0773 609.394 44.696 610.205 45.08C611.058 45.4213 612.317 45.6347 613.981 45.72V47C613.213 46.9147 612.21 46.872 610.973 46.872C609.735 46.8293 608.562 46.808 607.453 46.808C606.386 46.808 605.298 46.8293 604.189 46.872C603.122 46.872 602.226 46.9147 601.501 47V45.72C602.951 45.6347 604.039 45.4213 604.765 45.08C605.533 44.696 606.045 44.0773 606.301 43.224C606.557 42.328 606.685 41.112 606.685 39.576V8.472C606.685 6.89333 606.557 5.74133 606.301 5.016C606.045 4.248 605.533 3.736 604.765 3.48C604.039 3.18133 602.951 3.01066 601.501 2.968V1.688C602.226 1.73067 603.122 1.77333 604.189 1.816C605.298 1.85866 606.386 1.88 607.453 1.88C608.391 1.88 609.287 1.85866 610.141 1.816C610.994 1.77333 611.762 1.73067 612.445 1.688L635.037 36.504V9.112C635.037 7.53333 634.887 6.31733 634.589 5.464C634.333 4.61066 633.778 3.992 632.925 3.608C632.114 3.224 630.877 3.01066 629.213 2.968V1.688C629.981 1.73067 630.983 1.77333 632.221 1.816C633.501 1.85866 634.674 1.88 635.741 1.88C636.85 1.88 637.938 1.85866 639.005 1.816C640.114 1.77333 641.01 1.73067 641.693 1.688ZM660.384 0.983997C662.517 0.983997 664.139 1.24 665.248 1.752C666.357 2.22133 667.339 2.75466 668.192 3.352C668.704 3.65067 669.109 3.88533 669.408 4.056C669.749 4.184 670.069 4.248 670.368 4.248C670.795 4.248 671.093 4.01333 671.264 3.544C671.477 3.07466 671.648 2.37066 671.776 1.432H673.248C673.205 2.15733 673.141 3.032 673.056 4.056C673.013 5.03733 672.971 6.36 672.928 8.024C672.928 9.64533 672.928 11.8 672.928 14.488H671.456C671.328 12.44 670.88 10.4773 670.112 8.6C669.344 6.72266 668.213 5.18666 666.72 3.992C665.269 2.79733 663.349 2.2 660.96 2.2C658.699 2.2 656.821 2.88266 655.328 4.248C653.877 5.61333 653.152 7.40533 653.152 9.624C653.152 11.544 653.643 13.1653 654.624 14.488C655.605 15.768 656.907 16.9413 658.528 18.008C660.192 19.032 661.984 20.1413 663.904 21.336C666.123 22.7013 668.085 24.0667 669.792 25.432C671.541 26.7547 672.907 28.2267 673.888 29.848C674.912 31.4693 675.424 33.432 675.424 35.736C675.424 38.4667 674.805 40.728 673.568 42.52C672.331 44.312 670.688 45.656 668.64 46.552C666.592 47.448 664.331 47.896 661.856 47.896C659.595 47.896 657.803 47.64 656.48 47.128C655.157 46.616 654.027 46.0827 653.088 45.528C652.149 44.9307 651.424 44.632 650.912 44.632C650.485 44.632 650.165 44.8667 649.952 45.336C649.781 45.8053 649.632 46.5093 649.504 47.448H648.032C648.117 46.552 648.16 45.5067 648.16 44.312C648.203 43.0747 648.224 41.4747 648.224 39.512C648.267 37.5493 648.288 35.0747 648.288 32.088H649.76C649.931 34.648 650.4 37.0373 651.168 39.256C651.979 41.4747 653.195 43.2667 654.816 44.632C656.48 45.9547 658.677 46.616 661.408 46.616C662.816 46.616 664.139 46.3387 665.376 45.784C666.656 45.1867 667.701 44.2693 668.512 43.032C669.323 41.752 669.728 40.1093 669.728 38.104C669.728 36.3547 669.301 34.84 668.448 33.56C667.637 32.2373 666.485 31.0213 664.992 29.912C663.499 28.76 661.749 27.5867 659.744 26.392C657.739 25.1547 655.861 23.896 654.112 22.616C652.363 21.336 650.955 19.864 649.888 18.2C648.864 16.4933 648.352 14.4453 648.352 12.056C648.352 9.53867 648.907 7.46933 650.016 5.848C651.168 4.184 652.661 2.968 654.496 2.2C656.331 1.38933 658.293 0.983997 660.384 0.983997Z" fill="#FFFCFC"/>
</svg>
