<svg width="323" height="56" viewBox="0 0 323 56" fill="none" xmlns="http://www.w3.org/2000/svg">
<g filter="url(#filter0_d_316_195)">
<path d="M16.384 0.983997C18.5173 0.983997 20.1387 1.24 21.248 1.752C22.3573 2.22133 23.3387 2.75466 24.192 3.352C24.704 3.65067 25.1093 3.88533 25.408 4.056C25.7493 4.184 26.0693 4.248 26.368 4.248C26.7947 4.248 27.0933 4.01333 27.264 3.544C27.4773 3.07466 27.648 2.37066 27.776 1.432H29.248C29.2053 2.15733 29.1413 3.032 29.056 4.056C29.0133 5.03733 28.9707 6.36 28.928 8.024C28.928 9.64533 28.928 11.8 28.928 14.488H27.456C27.328 12.44 26.88 10.4773 26.112 8.6C25.344 6.72266 24.2133 5.18666 22.72 3.992C21.2693 2.79733 19.3493 2.2 16.96 2.2C14.6987 2.2 12.8213 2.88266 11.328 4.248C9.87733 5.61333 9.152 7.40533 9.152 9.624C9.152 11.544 9.64267 13.1653 10.624 14.488C11.6053 15.768 12.9067 16.9413 14.528 18.008C16.192 19.032 17.984 20.1413 19.904 21.336C22.1227 22.7013 24.0853 24.0667 25.792 25.432C27.5413 26.7547 28.9067 28.2267 29.888 29.848C30.912 31.4693 31.424 33.432 31.424 35.736C31.424 38.4667 30.8053 40.728 29.568 42.52C28.3307 44.312 26.688 45.656 24.64 46.552C22.592 47.448 20.3307 47.896 17.856 47.896C15.5947 47.896 13.8027 47.64 12.48 47.128C11.1573 46.616 10.0267 46.0827 9.088 45.528C8.14933 44.9307 7.424 44.632 6.912 44.632C6.48533 44.632 6.16533 44.8667 5.952 45.336C5.78133 45.8053 5.632 46.5093 5.504 47.448H4.032C4.11733 46.552 4.16 45.5067 4.16 44.312C4.20267 43.0747 4.224 41.4747 4.224 39.512C4.26667 37.5493 4.288 35.0747 4.288 32.088H5.76C5.93067 34.648 6.4 37.0373 7.168 39.256C7.97867 41.4747 9.19467 43.2667 10.816 44.632C12.48 45.9547 14.6773 46.616 17.408 46.616C18.816 46.616 20.1387 46.3387 21.376 45.784C22.656 45.1867 23.7013 44.2693 24.512 43.032C25.3227 41.752 25.728 40.1093 25.728 38.104C25.728 36.3547 25.3013 34.84 24.448 33.56C23.6373 32.2373 22.4853 31.0213 20.992 29.912C19.4987 28.76 17.7493 27.5867 15.744 26.392C13.7387 25.1547 11.8613 23.896 10.112 22.616C8.36267 21.336 6.95467 19.864 5.888 18.2C4.864 16.4933 4.352 14.4453 4.352 12.056C4.352 9.53867 4.90667 7.46933 6.016 5.848C7.168 4.184 8.66133 2.968 10.496 2.2C12.3307 1.38933 14.2933 0.983997 16.384 0.983997ZM37.2505 1.688C38.1465 1.73067 39.3198 1.77333 40.7705 1.816C42.2212 1.85866 43.6505 1.88 45.0585 1.88C47.0638 1.88 48.9838 1.85866 50.8185 1.816C52.6532 1.77333 53.9545 1.752 54.7225 1.752C58.1785 1.752 61.0372 2.24267 63.2985 3.224C65.6025 4.20533 67.3092 5.54933 68.4185 7.256C69.5705 8.92 70.1465 10.7973 70.1465 12.888C70.1465 14.168 69.8905 15.5333 69.3785 16.984C68.8665 18.4347 67.9705 19.8 66.6905 21.08C65.4532 22.36 63.7465 23.4267 61.5705 24.28C59.3945 25.0907 56.6425 25.496 53.3145 25.496H47.1705V24.216H52.6745C55.7038 24.216 58.0078 23.7467 59.5865 22.808C61.2078 21.8267 62.2958 20.5467 62.8505 18.968C63.4478 17.3467 63.7465 15.5547 63.7465 13.592C63.7465 10.2213 62.9358 7.61867 61.3145 5.784C59.7358 3.90666 57.0052 2.968 53.1225 2.968C51.1598 2.968 49.8798 3.33067 49.2825 4.056C48.6852 4.78133 48.3865 6.25333 48.3865 8.472V40.216C48.3865 41.752 48.5145 42.904 48.7705 43.672C49.0265 44.44 49.5172 44.952 50.2425 45.208C51.0105 45.464 52.1198 45.6347 53.5705 45.72V47C52.5892 46.9147 51.3518 46.872 49.8585 46.872C48.4078 46.8293 46.9358 46.808 45.4425 46.808C43.7785 46.808 42.2212 46.8293 40.7705 46.872C39.3198 46.872 38.1465 46.9147 37.2505 47V45.72C38.7012 45.6347 39.7892 45.464 40.5145 45.208C41.2825 44.952 41.7945 44.44 42.0505 43.672C42.3065 42.904 42.4345 41.752 42.4345 40.216V8.472C42.4345 6.89333 42.3065 5.74133 42.0505 5.016C41.7945 4.248 41.2825 3.736 40.5145 3.48C39.7892 3.18133 38.7012 3.01066 37.2505 2.968V1.688ZM47.4265 24.408C49.7305 24.4933 51.5438 24.6 52.8665 24.728C54.1892 24.8133 55.2558 24.8987 56.0665 24.984C56.9198 25.0693 57.7305 25.176 58.4985 25.304C61.3572 25.7733 63.4052 26.648 64.6425 27.928C65.9225 29.1653 66.8612 31.1067 67.4585 33.752L69.0585 40.28C69.4852 42.1573 69.9118 43.5227 70.3385 44.376C70.8078 45.1867 71.5118 45.5707 72.4505 45.528C73.1758 45.4853 73.7732 45.2507 74.2425 44.824C74.7545 44.3973 75.2878 43.8213 75.8425 43.096L76.8025 43.8C75.9065 45.1227 74.9678 46.1467 73.9865 46.872C73.0478 47.5547 71.7038 47.896 69.9545 47.896C68.3758 47.896 66.9892 47.4267 65.7945 46.488C64.5998 45.5493 63.7038 43.7147 63.1065 40.984L61.6985 34.584C61.3145 32.7493 60.8665 31.1707 60.3545 29.848C59.8852 28.4827 59.2025 27.416 58.3065 26.648C57.4532 25.88 56.1732 25.496 54.4665 25.496H47.5545L47.4265 24.408ZM95.0705 1.688V2.968C93.6198 3.01066 92.5105 3.18133 91.7425 3.48C91.0172 3.736 90.5265 4.248 90.2705 5.016C90.0145 5.74133 89.8865 6.89333 89.8865 8.472V40.216C89.8865 41.752 90.0145 42.904 90.2705 43.672C90.5265 44.44 91.0172 44.952 91.7425 45.208C92.5105 45.464 93.6198 45.6347 95.0705 45.72V47C94.0892 46.9147 92.8518 46.872 91.3585 46.872C89.9078 46.8293 88.4358 46.808 86.9425 46.808C85.2785 46.808 83.7212 46.8293 82.2705 46.872C80.8198 46.872 79.6465 46.9147 78.7505 47V45.72C80.2012 45.6347 81.2892 45.464 82.0145 45.208C82.7825 44.952 83.2945 44.44 83.5505 43.672C83.8065 42.904 83.9345 41.752 83.9345 40.216V8.472C83.9345 6.89333 83.8065 5.74133 83.5505 5.016C83.2945 4.248 82.7825 3.736 82.0145 3.48C81.2892 3.18133 80.2012 3.01066 78.7505 2.968V1.688C79.6465 1.73067 80.8198 1.77333 82.2705 1.816C83.7212 1.85866 85.2785 1.88 86.9425 1.88C88.4358 1.88 89.9078 1.85866 91.3585 1.816C92.8518 1.77333 94.0892 1.73067 95.0705 1.688ZM132.696 1.688V2.968C131.245 3.01066 130.136 3.18133 129.368 3.48C128.642 3.736 128.152 4.248 127.896 5.016C127.64 5.74133 127.512 6.89333 127.512 8.472V40.216C127.512 41.752 127.64 42.904 127.896 43.672C128.152 44.44 128.642 44.952 129.368 45.208C130.136 45.4213 131.245 45.528 132.696 45.528H137.368C139.373 45.528 140.994 45.3147 142.232 44.888C143.512 44.4613 144.514 43.8 145.24 42.904C146.008 41.9653 146.584 40.728 146.968 39.192C147.352 37.656 147.65 35.7787 147.864 33.56H149.336C149.208 34.8827 149.144 36.632 149.144 38.808C149.144 39.6187 149.165 40.792 149.208 42.328C149.293 43.8213 149.421 45.3787 149.592 47C147.416 46.9147 144.962 46.872 142.232 46.872C139.501 46.8293 137.069 46.808 134.936 46.808C133.997 46.808 132.781 46.808 131.288 46.808C129.837 46.808 128.258 46.8293 126.552 46.872C124.845 46.872 123.117 46.8933 121.368 46.936C119.618 46.936 117.954 46.9573 116.376 47V45.72C117.826 45.6347 118.914 45.464 119.64 45.208C120.408 44.952 120.92 44.44 121.176 43.672C121.432 42.904 121.56 41.752 121.56 40.216V8.472C121.56 6.89333 121.432 5.74133 121.176 5.016C120.92 4.248 120.408 3.736 119.64 3.48C118.914 3.18133 117.826 3.01066 116.376 2.968V1.688C117.272 1.73067 118.445 1.77333 119.896 1.816C121.346 1.85866 122.904 1.88 124.568 1.88C126.061 1.88 127.533 1.85866 128.984 1.816C130.477 1.77333 131.714 1.73067 132.696 1.688ZM171.985 1.368L187.601 41.624C188.241 43.2453 188.966 44.3333 189.777 44.888C190.587 45.4 191.334 45.6773 192.017 45.72V47C191.163 46.9147 190.118 46.872 188.881 46.872C187.643 46.8293 186.406 46.808 185.169 46.808C183.505 46.808 181.947 46.8293 180.497 46.872C179.046 46.872 177.873 46.9147 176.977 47V45.72C179.153 45.6347 180.539 45.272 181.137 44.632C181.734 43.9493 181.606 42.52 180.753 40.344L168.849 8.536L169.873 7.704L158.737 36.632C158.054 38.3387 157.649 39.7893 157.521 40.984C157.393 42.136 157.499 43.0533 157.841 43.736C158.225 44.4187 158.843 44.9093 159.697 45.208C160.593 45.5067 161.702 45.6773 163.025 45.72V47C161.83 46.9147 160.571 46.872 159.249 46.872C157.969 46.8293 156.774 46.808 155.665 46.808C154.598 46.808 153.681 46.8293 152.913 46.872C152.187 46.872 151.505 46.9147 150.864 47V45.72C151.718 45.5067 152.593 45.016 153.489 44.248C154.385 43.4373 155.195 42.072 155.921 40.152L170.961 1.368C171.131 1.368 171.302 1.368 171.473 1.368C171.643 1.368 171.814 1.368 171.985 1.368ZM179.793 28.568V29.848H160.72L161.361 28.568H179.793ZM233.255 1.688V2.968C231.804 3.01066 230.695 3.224 229.927 3.608C229.202 3.992 228.711 4.61066 228.455 5.464C228.199 6.31733 228.071 7.53333 228.071 9.112V47.32C227.815 47.32 227.559 47.32 227.303 47.32C227.09 47.32 226.855 47.32 226.599 47.32L199.719 5.784V39.576C199.719 41.112 199.847 42.328 200.103 43.224C200.402 44.0773 200.956 44.696 201.767 45.08C202.62 45.4213 203.879 45.6347 205.543 45.72V47C204.775 46.9147 203.772 46.872 202.535 46.872C201.298 46.8293 200.124 46.808 199.015 46.808C197.948 46.808 196.86 46.8293 195.751 46.872C194.684 46.872 193.788 46.9147 193.063 47V45.72C194.514 45.6347 195.602 45.4213 196.327 45.08C197.095 44.696 197.607 44.0773 197.863 43.224C198.119 42.328 198.247 41.112 198.247 39.576V8.472C198.247 6.89333 198.119 5.74133 197.863 5.016C197.607 4.248 197.095 3.736 196.327 3.48C195.602 3.18133 194.514 3.01066 193.063 2.968V1.688C193.788 1.73067 194.684 1.77333 195.751 1.816C196.86 1.85866 197.948 1.88 199.015 1.88C199.954 1.88 200.85 1.85866 201.703 1.816C202.556 1.77333 203.324 1.73067 204.007 1.688L226.599 36.504V9.112C226.599 7.53333 226.45 6.31733 226.151 5.464C225.895 4.61066 225.34 3.992 224.487 3.608C223.676 3.224 222.439 3.01066 220.775 2.968V1.688C221.543 1.73067 222.546 1.77333 223.783 1.816C225.063 1.85866 226.236 1.88 227.303 1.88C228.412 1.88 229.5 1.85866 230.567 1.816C231.676 1.77333 232.572 1.73067 233.255 1.688ZM274.923 1.688V2.968C273.6 3.13867 272.32 3.56533 271.083 4.248C269.845 4.93067 268.608 6.06133 267.371 7.64L255.019 23.448L256.427 20.312L271.787 41.816C272.512 42.8827 273.301 43.7147 274.155 44.312C275.008 44.9093 276.096 45.3787 277.419 45.72V47C276.395 46.9147 275.115 46.872 273.579 46.872C272.085 46.8293 270.805 46.808 269.739 46.808C269.013 46.808 268.117 46.8293 267.051 46.872C266.027 46.872 264.725 46.9147 263.147 47V45.72C264.597 45.6347 265.515 45.3787 265.899 44.952C266.283 44.5253 266.133 43.8213 265.451 42.84L256.107 28.76C255.253 27.4373 254.485 26.456 253.803 25.816C253.163 25.1333 252.48 24.6853 251.755 24.472C251.072 24.2587 250.197 24.1307 249.131 24.088V22.808C250.923 22.7653 252.416 22.424 253.611 21.784C254.848 21.1013 255.872 20.248 256.683 19.224L262.827 11.416C264.235 9.624 265.195 8.10933 265.707 6.872C266.219 5.63467 266.197 4.696 265.643 4.056C265.088 3.37333 263.915 3.01066 262.123 2.968V1.688C262.933 1.73067 263.765 1.77333 264.619 1.816C265.472 1.816 266.304 1.83733 267.115 1.88C267.968 1.88 268.757 1.88 269.483 1.88C270.592 1.88 271.616 1.85866 272.555 1.816C273.493 1.77333 274.283 1.73067 274.923 1.688ZM254.571 1.688V2.968C253.12 3.01066 252.011 3.18133 251.243 3.48C250.517 3.736 250.027 4.248 249.771 5.016C249.515 5.74133 249.387 6.89333 249.387 8.472V40.216C249.387 41.752 249.515 42.904 249.771 43.672C250.027 44.44 250.517 44.952 251.243 45.208C252.011 45.464 253.12 45.6347 254.571 45.72V47C253.589 46.9147 252.352 46.872 250.859 46.872C249.408 46.8293 247.936 46.808 246.443 46.808C244.779 46.808 243.221 46.8293 241.771 46.872C240.32 46.872 239.147 46.9147 238.251 47V45.72C239.701 45.6347 240.789 45.464 241.515 45.208C242.283 44.952 242.795 44.44 243.051 43.672C243.307 42.904 243.435 41.752 243.435 40.216V8.472C243.435 6.89333 243.307 5.74133 243.051 5.016C242.795 4.248 242.283 3.736 241.515 3.48C240.789 3.18133 239.701 3.01066 238.251 2.968V1.688C239.147 1.73067 240.32 1.77333 241.771 1.816C243.221 1.85866 244.779 1.88 246.443 1.88C247.936 1.88 249.408 1.85866 250.859 1.816C252.352 1.77333 253.589 1.73067 254.571 1.688ZM298.172 1.368L313.788 41.624C314.428 43.2453 315.153 44.3333 315.964 44.888C316.775 45.4 317.521 45.6773 318.204 45.72V47C317.351 46.9147 316.305 46.872 315.068 46.872C313.831 46.8293 312.593 46.808 311.356 46.808C309.692 46.808 308.135 46.8293 306.684 46.872C305.233 46.872 304.06 46.9147 303.164 47V45.72C305.34 45.6347 306.727 45.272 307.324 44.632C307.921 43.9493 307.793 42.52 306.94 40.344L295.036 8.536L296.06 7.704L284.924 36.632C284.241 38.3387 283.836 39.7893 283.708 40.984C283.58 42.136 283.687 43.0533 284.028 43.736C284.412 44.4187 285.031 44.9093 285.884 45.208C286.78 45.5067 287.889 45.6773 289.212 45.72V47C288.017 46.9147 286.759 46.872 285.436 46.872C284.156 46.8293 282.961 46.808 281.852 46.808C280.785 46.808 279.868 46.8293 279.1 46.872C278.375 46.872 277.692 46.9147 277.052 47V45.72C277.905 45.5067 278.78 45.016 279.676 44.248C280.572 43.4373 281.383 42.072 282.108 40.152L297.148 1.368C297.319 1.368 297.489 1.368 297.66 1.368C297.831 1.368 298.001 1.368 298.172 1.368ZM305.98 28.568V29.848H286.908L287.548 28.568H305.98Z" fill="#FFFCFC"/>
</g>
<defs>
<filter id="filter0_d_316_195" x="0.0319824" y="0.984009" width="322.172" height="54.912" filterUnits="userSpaceOnUse" color-interpolation-filters="sRGB">
<feFlood flood-opacity="0" result="BackgroundImageFix"/>
<feColorMatrix in="SourceAlpha" type="matrix" values="0 0 0 0 0 0 0 0 0 0 0 0 0 0 0 0 0 0 127 0" result="hardAlpha"/>
<feOffset dy="4"/>
<feGaussianBlur stdDeviation="2"/>
<feComposite in2="hardAlpha" operator="out"/>
<feColorMatrix type="matrix" values="0 0 0 0 0 0 0 0 0 0 0 0 0 0 0 0 0 0 0.25 0"/>
<feBlend mode="normal" in2="BackgroundImageFix" result="effect1_dropShadow_316_195"/>
<feBlend mode="normal" in="SourceGraphic" in2="effect1_dropShadow_316_195" result="shape"/>
</filter>
</defs>
</svg>
