<svg width="815" height="103" viewBox="0 0 815 103" fill="none" xmlns="http://www.w3.org/2000/svg">
<g filter="url(#filter0_d_211_162)">
<path d="M45.488 0.583992C53.5947 0.583992 60.6773 2.41866 66.736 6.088C72.88 9.75733 77.616 15.048 80.944 21.96C84.3573 28.7867 86.064 37.1067 86.064 46.92C86.064 56.4773 84.3147 64.84 80.816 72.008C77.4027 79.176 72.624 84.7653 66.48 88.776C60.336 92.7867 53.296 94.792 45.36 94.792C37.2533 94.792 30.128 92.9573 23.984 89.288C17.9253 85.6187 13.1893 80.328 9.776 73.416C6.448 66.504 4.784 58.184 4.784 48.456C4.784 38.8987 6.53333 30.536 10.032 23.368C13.5307 16.2 18.3093 10.6107 24.368 6.6C30.512 2.58933 37.552 0.583992 45.488 0.583992ZM44.976 2.88799C39.4293 2.88799 34.608 4.80799 30.512 8.64799C26.416 12.488 23.216 17.7787 20.912 24.52C18.6933 31.2613 17.584 39.0693 17.584 47.944C17.584 56.9893 18.8213 64.8827 21.296 71.624C23.856 78.28 27.2693 83.4427 31.536 87.112C35.888 90.696 40.6667 92.488 45.872 92.488C51.4187 92.488 56.24 90.568 60.336 86.728C64.432 82.888 67.5893 77.5973 69.808 70.856C72.112 64.0293 73.264 56.2213 73.264 47.432C73.264 38.3013 71.984 30.408 69.424 23.752C66.9493 17.096 63.5787 11.976 59.312 8.392C55.0453 4.72266 50.2667 2.88799 44.976 2.88799ZM175.965 2.376V4.936C173.064 5.02133 170.845 5.448 169.309 6.216C167.858 6.984 166.877 8.22133 166.365 9.92799C165.853 11.6347 165.597 14.0667 165.597 17.224V55.752C165.597 61.7253 165.213 66.9307 164.445 71.368C163.677 75.8053 162.312 79.6453 160.349 82.888C158.216 86.472 155.101 89.3733 151.005 91.592C146.909 93.7253 142.216 94.792 136.925 94.792C132.829 94.792 128.904 94.28 125.149 93.256C121.48 92.3173 118.237 90.5253 115.421 87.88C112.946 85.4907 110.984 82.9733 109.533 80.328C108.168 77.6827 107.229 74.44 106.717 70.6C106.205 66.76 105.949 61.9387 105.949 56.136V15.944C105.949 12.7867 105.693 10.4827 105.181 9.032C104.669 7.496 103.645 6.472 102.109 5.96C100.658 5.36266 98.4823 5.02133 95.581 4.936V2.376C97.373 2.46133 99.7197 2.54666 102.621 2.632C105.522 2.71733 108.637 2.75999 111.965 2.75999C114.952 2.75999 117.896 2.71733 120.797 2.632C123.784 2.54666 126.258 2.46133 128.221 2.376V4.936C125.32 5.02133 123.101 5.36266 121.565 5.96C120.114 6.472 119.133 7.496 118.621 9.032C118.109 10.4827 117.853 12.7867 117.853 15.944V58.312C117.853 62.664 118.066 66.8027 118.493 70.728C118.92 74.568 119.773 77.9813 121.053 80.968C122.418 83.8693 124.466 86.1733 127.197 87.88C129.928 89.5013 133.554 90.312 138.077 90.312C144.562 90.312 149.554 88.904 153.053 86.088C156.637 83.1867 159.112 79.2187 160.477 74.184C161.928 69.1493 162.653 63.4747 162.653 57.16V17.224C162.653 14.0667 162.269 11.6347 161.501 9.92799C160.818 8.22133 159.624 6.984 157.917 6.216C156.21 5.448 153.906 5.02133 151.005 4.936V2.376C152.541 2.46133 154.546 2.54666 157.021 2.632C159.581 2.71733 161.928 2.75999 164.061 2.75999C166.28 2.75999 168.456 2.71733 170.589 2.632C172.808 2.54666 174.6 2.46133 175.965 2.376ZM184.751 2.376C186.543 2.46133 188.89 2.54666 191.791 2.632C194.692 2.71733 197.551 2.75999 200.367 2.75999C204.378 2.75999 208.218 2.71733 211.887 2.632C215.556 2.54666 218.159 2.504 219.695 2.504C226.607 2.504 232.324 3.48533 236.847 5.448C241.455 7.41066 244.868 10.0987 247.087 13.512C249.391 16.84 250.543 20.5947 250.543 24.776C250.543 27.336 250.031 30.0667 249.007 32.968C247.983 35.8693 246.191 38.6 243.631 41.16C241.156 43.72 237.743 45.8533 233.391 47.56C229.039 49.1813 223.535 49.992 216.879 49.992H204.591V47.432H215.599C221.658 47.432 226.266 46.4933 229.423 44.616C232.666 42.6533 234.842 40.0933 235.951 36.936C237.146 33.6933 237.743 30.1093 237.743 26.184C237.743 19.4427 236.122 14.2373 232.879 10.568C229.722 6.81333 224.26 4.936 216.495 4.936C212.57 4.936 210.01 5.66133 208.815 7.112C207.62 8.56266 207.023 11.5067 207.023 15.944V79.432C207.023 82.504 207.279 84.808 207.791 86.344C208.303 87.88 209.284 88.904 210.735 89.416C212.271 89.928 214.49 90.2693 217.391 90.44V93C215.428 92.8293 212.954 92.744 209.967 92.744C207.066 92.6587 204.122 92.616 201.135 92.616C197.807 92.616 194.692 92.6587 191.791 92.744C188.89 92.744 186.543 92.8293 184.751 93V90.44C187.652 90.2693 189.828 89.928 191.279 89.416C192.815 88.904 193.839 87.88 194.351 86.344C194.863 84.808 195.119 82.504 195.119 79.432V15.944C195.119 12.7867 194.863 10.4827 194.351 9.032C193.839 7.496 192.815 6.472 191.279 5.96C189.828 5.36266 187.652 5.02133 184.751 4.936V2.376ZM205.103 47.816C209.711 47.9867 213.338 48.2 215.983 48.456C218.628 48.6267 220.762 48.7973 222.383 48.968C224.09 49.1387 225.711 49.352 227.247 49.608C232.964 50.5467 237.06 52.296 239.535 54.856C242.095 57.3307 243.972 61.2133 245.167 66.504L248.367 79.56C249.22 83.3147 250.074 86.0453 250.927 87.752C251.866 89.3733 253.274 90.1413 255.151 90.056C256.602 89.9707 257.796 89.5013 258.735 88.648C259.759 87.7947 260.826 86.6427 261.935 85.192L263.855 86.6C262.063 89.2453 260.186 91.2933 258.223 92.744C256.346 94.1093 253.658 94.792 250.159 94.792C247.002 94.792 244.228 93.8533 241.839 91.976C239.45 90.0987 237.658 86.4293 236.463 80.968L233.647 68.168C232.879 64.4987 231.983 61.3413 230.959 58.696C230.02 55.9653 228.655 53.832 226.863 52.296C225.156 50.76 222.596 49.992 219.183 49.992H205.359L205.103 47.816ZM362.641 2.376V4.936C359.74 5.02133 357.521 5.36266 355.985 5.96C354.534 6.472 353.553 7.496 353.041 9.032C352.529 10.4827 352.273 12.7867 352.273 15.944V79.432C352.273 82.504 352.529 84.808 353.041 86.344C353.553 87.88 354.534 88.904 355.985 89.416C357.521 89.8427 359.74 90.056 362.641 90.056H371.985C375.996 90.056 379.238 89.6293 381.713 88.776C384.273 87.9227 386.278 86.6 387.729 84.808C389.265 82.9307 390.417 80.456 391.185 77.384C391.953 74.312 392.55 70.5573 392.977 66.12H395.921C395.665 68.7653 395.537 72.264 395.537 76.616C395.537 78.2373 395.58 80.584 395.665 83.656C395.836 86.6427 396.092 89.7573 396.433 93C392.081 92.8293 387.174 92.744 381.713 92.744C376.252 92.6587 371.388 92.616 367.121 92.616C365.244 92.616 362.812 92.616 359.825 92.616C356.924 92.616 353.766 92.6587 350.353 92.744C346.94 92.744 343.484 92.7867 339.985 92.872C336.486 92.872 333.158 92.9147 330.001 93V90.44C332.902 90.2693 335.078 89.928 336.529 89.416C338.065 88.904 339.089 87.88 339.601 86.344C340.113 84.808 340.369 82.504 340.369 79.432V15.944C340.369 12.7867 340.113 10.4827 339.601 9.032C339.089 7.496 338.065 6.472 336.529 5.96C335.078 5.36266 332.902 5.02133 330.001 4.936V2.376C331.793 2.46133 334.14 2.54666 337.041 2.632C339.942 2.71733 343.057 2.75999 346.385 2.75999C349.372 2.75999 352.316 2.71733 355.217 2.632C358.204 2.54666 360.678 2.46133 362.641 2.376ZM469.123 2.376C468.782 5.36266 468.526 8.26399 468.355 11.08C468.27 13.896 468.227 16.0293 468.227 17.48C468.227 19.016 468.27 20.5093 468.355 21.96C468.44 23.3253 468.526 24.4773 468.611 25.416H465.667C465.155 20.3813 464.43 16.4133 463.491 13.512C462.552 10.5253 460.931 8.43466 458.627 7.24C456.408 5.95999 453.038 5.31999 448.515 5.31999H437.891C434.99 5.31999 432.771 5.57599 431.235 6.088C429.784 6.51466 428.803 7.496 428.291 9.032C427.779 10.4827 427.523 12.7867 427.523 15.944V79.432C427.523 82.504 427.779 84.808 428.291 86.344C428.803 87.88 429.784 88.904 431.235 89.416C432.771 89.8427 434.99 90.056 437.891 90.056H447.235C452.611 90.056 456.664 89.3307 459.395 87.88C462.211 86.4293 464.216 84.0827 465.411 80.84C466.691 77.512 467.63 73.032 468.227 67.4H471.171C470.915 69.704 470.787 72.776 470.787 76.616C470.787 78.2373 470.83 80.584 470.915 83.656C471.086 86.6427 471.342 89.7573 471.683 93C467.331 92.8293 462.424 92.744 456.963 92.744C451.502 92.6587 446.638 92.616 442.371 92.616C440.494 92.616 438.062 92.616 435.075 92.616C432.174 92.616 429.016 92.6587 425.603 92.744C422.19 92.744 418.734 92.7867 415.235 92.872C411.736 92.872 408.408 92.9147 405.251 93V90.44C408.152 90.2693 410.328 89.928 411.779 89.416C413.315 88.904 414.339 87.88 414.851 86.344C415.363 84.808 415.619 82.504 415.619 79.432V15.944C415.619 12.7867 415.363 10.4827 414.851 9.032C414.339 7.496 413.315 6.472 411.779 5.96C410.328 5.36266 408.152 5.02133 405.251 4.936V2.376C408.408 2.46133 411.736 2.54666 415.235 2.632C418.734 2.632 422.19 2.67466 425.603 2.75999C429.016 2.75999 432.174 2.75999 435.075 2.75999C438.062 2.75999 440.494 2.75999 442.371 2.75999C446.296 2.75999 450.734 2.75999 455.683 2.75999C460.718 2.67466 465.198 2.54666 469.123 2.376ZM447.107 46.152C447.107 46.152 447.107 46.5787 447.107 47.432C447.107 48.2853 447.107 48.712 447.107 48.712H423.683C423.683 48.712 423.683 48.2853 423.683 47.432C423.683 46.5787 423.683 46.152 423.683 46.152H447.107ZM450.819 29.256C450.478 34.12 450.307 37.832 450.307 40.392C450.392 42.952 450.435 45.2987 450.435 47.432C450.435 49.5653 450.478 51.912 450.563 54.472C450.648 57.032 450.862 60.744 451.203 65.608H448.259C447.918 62.8773 447.491 60.232 446.979 57.672C446.552 55.0267 445.528 52.8933 443.907 51.272C442.371 49.5653 439.726 48.712 435.971 48.712V46.152C438.787 46.152 440.92 45.5973 442.371 44.488C443.907 43.2933 445.016 41.8 445.699 40.008C446.382 38.216 446.851 36.3813 447.107 34.504C447.363 32.5413 447.619 30.792 447.875 29.256H450.819ZM526.003 0.583992C531.55 0.583992 536.03 1.43733 539.443 3.144C542.856 4.76533 546.056 6.68533 549.043 8.904C550.152 9.75733 551.006 10.184 551.603 10.184C553.224 10.184 554.291 7.58133 554.803 2.376H557.747C557.576 5.53333 557.448 9.37333 557.363 13.896C557.278 18.4187 557.235 24.392 557.235 31.816H554.291C553.694 28.232 552.968 24.776 552.115 21.448C551.262 18.12 549.854 15.2613 547.891 12.872C545.416 9.71466 542.174 7.28266 538.163 5.576C534.152 3.78399 530.014 2.88799 525.747 2.88799C521.48 2.88799 517.598 3.95466 514.099 6.088C510.686 8.136 507.742 11.1227 505.267 15.048C502.792 18.9733 500.872 23.7093 499.507 29.256C498.227 34.7173 497.587 40.904 497.587 47.816C497.587 63.176 500.062 74.44 505.011 81.608C509.96 88.6907 517.64 92.232 528.051 92.232C531.123 92.232 533.768 91.8053 535.987 90.952C538.291 90.0133 540.083 89.1173 541.363 88.264C542.984 87.1547 544.008 86.1307 544.435 85.192C544.862 84.168 545.075 82.8453 545.075 81.224V68.936C545.075 65.4373 544.734 62.8347 544.051 61.128C543.368 59.4213 542.088 58.2693 540.211 57.672C538.419 57.0747 535.731 56.7333 532.147 56.648V54.088C533.683 54.1733 535.475 54.2587 537.523 54.344C539.571 54.344 541.704 54.3867 543.923 54.472C546.227 54.472 548.318 54.472 550.195 54.472C553.011 54.472 555.528 54.4293 557.747 54.344C560.051 54.2587 561.971 54.1733 563.507 54.088V56.648C561.63 56.7333 560.222 57.032 559.283 57.544C558.344 58.056 557.704 59.08 557.363 60.616C557.107 62.152 556.979 64.4987 556.979 67.656V93H554.419C554.334 91.5493 553.992 89.9707 553.395 88.264C552.883 86.5573 552.072 85.704 550.963 85.704C550.451 85.704 549.939 85.832 549.427 86.088C548.915 86.344 548.019 86.9413 546.739 87.88C543.923 90.0133 540.936 91.72 537.779 93C534.622 94.1947 530.952 94.792 526.771 94.792C517.982 94.792 510.43 93 504.115 89.416C497.886 85.7467 493.107 80.4987 489.779 73.672C486.451 66.8453 484.787 58.696 484.787 49.224C484.787 39.24 486.579 30.6213 490.163 23.368C493.747 16.1147 498.611 10.5253 504.755 6.6C510.984 2.58933 518.067 0.583992 526.003 0.583992ZM609.219 1.73599L640.451 82.248C641.731 85.4907 643.182 87.6667 644.803 88.776C646.424 89.8 647.918 90.3547 649.283 90.44V93C647.576 92.8293 645.486 92.744 643.011 92.744C640.536 92.6587 638.062 92.616 635.587 92.616C632.259 92.616 629.144 92.6587 626.243 92.744C623.342 92.744 620.995 92.8293 619.203 93V90.44C623.555 90.2693 626.328 89.544 627.523 88.264C628.718 86.8987 628.462 84.04 626.755 79.688L602.947 16.072L604.995 14.408L582.723 72.264C581.358 75.6773 580.547 78.5787 580.291 80.968C580.035 83.272 580.248 85.1067 580.931 86.472C581.699 87.8373 582.936 88.8187 584.643 89.416C586.435 90.0133 588.654 90.3547 591.299 90.44V93C588.91 92.8293 586.392 92.744 583.747 92.744C581.187 92.6587 578.798 92.616 576.579 92.616C574.446 92.616 572.611 92.6587 571.075 92.744C569.624 92.744 568.259 92.8293 566.979 93V90.44C568.686 90.0133 570.435 89.032 572.227 87.496C574.019 85.8747 575.64 83.144 577.091 79.304L607.171 1.73599C607.512 1.73599 607.854 1.73599 608.195 1.73599C608.536 1.73599 608.878 1.73599 609.219 1.73599ZM624.835 56.136V58.696H586.691L587.971 56.136H624.835ZM694.738 0.583992C700.37 0.583992 704.978 1.43733 708.562 3.144C712.231 4.76533 715.474 6.68533 718.29 8.904C719.997 10.184 721.277 10.3547 722.13 9.41599C723.069 8.392 723.709 6.04533 724.05 2.376H726.994C726.823 5.53333 726.695 9.37333 726.61 13.896C726.525 18.4187 726.482 24.392 726.482 31.816H723.538C722.941 28.1467 722.386 25.2453 721.874 23.112C721.362 20.8933 720.722 19.016 719.954 17.48C719.271 15.944 718.333 14.408 717.138 12.872C714.493 9.37333 711.165 6.85599 707.154 5.31999C703.143 3.69866 698.919 2.88799 694.482 2.88799C690.301 2.88799 686.503 3.95466 683.09 6.088C679.762 8.136 676.861 11.1227 674.386 15.048C671.997 18.9733 670.119 23.7093 668.754 29.256C667.474 34.8027 666.834 41.032 666.834 47.944C666.834 55.112 667.559 61.4693 669.01 67.016C670.461 72.4773 672.466 77.0853 675.026 80.84C677.671 84.5947 680.743 87.4533 684.242 89.416C687.826 91.2933 691.666 92.232 695.762 92.232C699.602 92.232 703.613 91.464 707.794 89.928C711.975 88.392 715.261 85.9173 717.65 82.504C719.527 80.0293 720.807 77.3413 721.49 74.44C722.258 71.5387 722.941 67.4853 723.538 62.28H726.482C726.482 70.0453 726.525 76.3173 726.61 81.096C726.695 85.7893 726.823 89.7573 726.994 93H724.05C723.709 89.3307 723.111 87.0267 722.258 86.088C721.49 85.1493 720.167 85.2773 718.29 86.472C715.133 88.6907 711.762 90.6533 708.178 92.36C704.679 93.9813 700.157 94.792 694.61 94.792C686.503 94.792 679.378 92.9573 673.234 89.288C667.175 85.6187 662.439 80.328 659.026 73.416C655.698 66.504 654.034 58.184 654.034 48.456C654.034 38.8987 655.783 30.536 659.282 23.368C662.781 16.2 667.559 10.6107 673.618 6.6C679.762 2.58933 686.802 0.583992 694.738 0.583992ZM810.639 2.376V4.936C809.018 5.27733 807.396 6.344 805.775 8.13599C804.154 9.84266 802.362 12.5733 800.399 16.328L774.543 67.528H772.367L742.415 12.232C740.708 9.07466 739.258 7.11199 738.063 6.34399C736.954 5.49066 735.93 5.064 734.991 5.064V2.376C736.698 2.46133 738.447 2.54666 740.239 2.632C742.116 2.71733 744.122 2.75999 746.255 2.75999C749.071 2.75999 752.058 2.75999 755.215 2.75999C758.458 2.67466 761.444 2.54666 764.175 2.376V5.064C762.042 5.064 760.164 5.31999 758.543 5.83199C756.922 6.344 755.855 7.28266 755.343 8.64799C754.831 10.0133 755.215 11.9333 756.495 14.408L778.127 55.88L777.103 56.648L794.127 22.728C796.516 18.0347 797.668 14.408 797.583 11.848C797.583 9.288 796.602 7.53866 794.639 6.6C792.676 5.576 789.903 5.02133 786.319 4.936V2.376C788.794 2.46133 791.311 2.54666 793.871 2.632C796.431 2.71733 798.82 2.75999 801.039 2.75999C803.258 2.75999 805.092 2.71733 806.543 2.632C807.994 2.54666 809.359 2.46133 810.639 2.376ZM780.303 54.088V79.432C780.303 82.504 780.559 84.808 781.071 86.344C781.583 87.88 782.564 88.904 784.015 89.416C785.551 89.928 787.77 90.2693 790.671 90.44V93C788.708 92.8293 786.234 92.744 783.247 92.744C780.346 92.6587 777.402 92.616 774.415 92.616C771.087 92.616 767.972 92.6587 765.071 92.744C762.17 92.744 759.823 92.8293 758.031 93V90.44C760.932 90.2693 763.108 89.928 764.559 89.416C766.095 88.904 767.119 87.88 767.631 86.344C768.143 84.808 768.399 82.504 768.399 79.432V53.192L775.311 61.128L780.303 54.088Z" fill="white"/>
</g>
<defs>
<filter id="filter0_d_211_162" x="0.784058" y="0.583984" width="813.855" height="102.208" filterUnits="userSpaceOnUse" color-interpolation-filters="sRGB">
<feFlood flood-opacity="0" result="BackgroundImageFix"/>
<feColorMatrix in="SourceAlpha" type="matrix" values="0 0 0 0 0 0 0 0 0 0 0 0 0 0 0 0 0 0 127 0" result="hardAlpha"/>
<feOffset dy="4"/>
<feGaussianBlur stdDeviation="2"/>
<feComposite in2="hardAlpha" operator="out"/>
<feColorMatrix type="matrix" values="0 0 0 0 0 0 0 0 0 0 0 0 0 0 0 0 0 0 0.6 0"/>
<feBlend mode="normal" in2="BackgroundImageFix" result="effect1_dropShadow_211_162"/>
<feBlend mode="normal" in="SourceGraphic" in2="effect1_dropShadow_211_162" result="shape"/>
</filter>
</defs>
</svg>
