<svg width="338" height="134" viewBox="0 0 338 134" fill="none" xmlns="http://www.w3.org/2000/svg">
<g filter="url(#filter0_d_221_136)">
<path d="M4.7525 125.064V122.632C8.5925 122.547 11.7925 121.608 14.3525 119.816C16.9978 118.024 18.9605 115.037 20.2405 110.856C21.6058 106.76 22.2885 101.256 22.2885 94.344V23.944C22.2885 20.7867 22.0325 18.4827 21.5205 17.032C21.0085 15.496 19.9845 14.472 18.4485 13.96C16.9978 13.3627 14.8218 13.0213 11.9205 12.936V10.376C13.7125 10.4613 16.0592 10.5467 18.9605 10.632C21.8618 10.7173 24.8912 10.76 28.0485 10.76C31.2058 10.76 34.2352 10.7173 37.1365 10.632C40.1232 10.5467 42.5978 10.4613 44.5605 10.376V12.936C41.6592 13.0213 39.4405 13.3627 37.9045 13.96C36.4538 14.472 35.4725 15.496 34.9605 17.032C34.4485 18.4827 34.1925 20.7867 34.1925 23.944V70.792C34.1925 74.2907 34.1498 78.088 34.0645 82.184C33.9792 86.28 33.7658 90.248 33.4245 94.088C33.1685 97.928 32.6992 101.299 32.0165 104.2C30.5658 110.173 27.4938 115.123 22.8005 119.048C18.1925 123.059 12.1765 125.064 4.7525 125.064ZM68.0755 101.896C64.5768 101.896 61.5475 101.256 58.9875 99.976C56.4275 98.6107 54.4648 96.7333 53.0995 94.344C51.8195 91.9547 51.1795 89.1813 51.1795 86.024C51.1795 82.2693 52.0328 79.1973 53.7395 76.808C55.5315 74.4187 57.7928 72.4987 60.5235 71.048C63.2542 69.5973 66.1128 68.4027 69.0995 67.464C72.1715 66.44 75.0728 65.5013 77.8035 64.648C80.5342 63.7093 82.7528 62.6427 84.4595 61.448C86.2515 60.2533 87.1475 58.6747 87.1475 56.712V48.776C87.1475 45.192 86.5928 42.4613 85.4835 40.584C84.4595 38.7067 83.0515 37.4693 81.2595 36.872C79.4675 36.1893 77.4622 35.848 75.2435 35.848C73.1102 35.848 70.8062 36.1467 68.3315 36.744C65.9422 37.3413 64.0222 38.5787 62.5715 40.456C64.1928 40.7973 65.6008 41.6507 66.7955 43.016C67.9902 44.3813 68.5875 46.1307 68.5875 48.264C68.5875 50.3973 67.9048 52.104 66.5395 53.384C65.1742 54.5787 63.4248 55.176 61.2915 55.176C58.8168 55.176 56.9822 54.408 55.7875 52.872C54.6782 51.2507 54.1235 49.4587 54.1235 47.496C54.1235 45.2773 54.6782 43.4853 55.7875 42.12C56.8968 40.7547 58.3048 39.4747 60.0115 38.28C61.9742 36.9147 64.4915 35.7627 67.5635 34.824C70.7208 33.8 74.2622 33.288 78.1875 33.288C81.6862 33.288 84.6728 33.7147 87.1475 34.568C89.6222 35.336 91.6702 36.488 93.2915 38.024C95.5102 40.072 96.9608 42.5893 97.6435 45.576C98.3262 48.4773 98.6675 51.976 98.6675 56.072V91.656C98.6675 93.7893 98.9662 95.3253 99.5635 96.264C100.246 97.2027 101.27 97.672 102.636 97.672C103.574 97.672 104.47 97.4587 105.324 97.032C106.177 96.6053 107.201 95.9227 108.396 94.984L109.804 97.16C108.012 98.5253 106.305 99.6773 104.684 100.616C103.062 101.469 100.886 101.896 98.1555 101.896C95.6808 101.896 93.6328 101.469 92.0115 100.616C90.3902 99.7627 89.1528 98.5253 88.2995 96.904C87.5315 95.1973 87.1475 93.064 87.1475 90.504C84.8435 94.344 82.0702 97.2027 78.8275 99.08C75.6702 100.957 72.0862 101.896 68.0755 101.896ZM72.6835 96.776C75.4995 96.776 78.1022 95.9653 80.4915 94.344C82.9662 92.7227 85.1848 90.2907 87.1475 87.048V61.96C86.1235 63.4107 84.6302 64.648 82.6675 65.672C80.7048 66.6107 78.5715 67.592 76.2675 68.616C73.9635 69.5547 71.7448 70.7067 69.6115 72.072C67.5635 73.352 65.8568 75.0587 64.4915 77.192C63.1262 79.3253 62.4435 82.0987 62.4435 85.512C62.4435 88.9253 63.3395 91.656 65.1315 93.704C67.0088 95.752 69.5262 96.776 72.6835 96.776ZM148.722 6.02399C153.244 6.02399 157.255 7.09066 160.754 9.224C164.338 11.3573 166.727 14.472 167.922 18.568L166.13 19.592C165.191 16.4347 163.271 13.7893 160.37 11.656C157.554 9.43733 153.842 8.328 149.234 8.328C144.37 8.328 140.786 9.94933 138.482 13.192C136.178 16.3493 135.026 21.512 135.026 28.68V35.208H154.354V37.768H135.026V89.096C135.026 92.68 135.751 95.112 137.202 96.392C138.738 97.672 141.255 98.312 144.754 98.312V101C143.303 100.915 141.127 100.829 138.226 100.744C135.324 100.573 132.38 100.488 129.394 100.488C126.492 100.488 123.506 100.573 120.434 100.744C117.447 100.829 115.228 100.915 113.778 101V98.312C117.276 98.312 119.751 97.672 121.202 96.392C122.738 95.112 123.506 92.68 123.506 89.096V37.768H113.266V35.208H123.506C123.506 30.4293 123.975 26.3333 124.914 22.92C125.852 19.5067 127.303 16.648 129.266 14.344C131.399 11.8693 134.13 9.864 137.458 8.328C140.871 6.79199 144.626 6.02399 148.722 6.02399ZM186.354 0.903992C188.743 0.903992 190.834 1.24533 192.626 1.92799C194.503 2.52533 196.124 3.336 197.49 4.35999C198.77 5.384 199.751 6.57866 200.434 7.94399C201.116 9.30933 201.458 10.76 201.458 12.296C201.458 14.2587 200.818 15.88 199.538 17.16C198.258 18.44 196.636 19.08 194.674 19.08C192.796 19.08 191.132 18.4827 189.682 17.288C188.316 16.008 187.634 14.3013 187.634 12.168C187.634 10.376 188.103 8.92533 189.042 7.81599C190.066 6.70666 191.388 5.98133 193.01 5.63999C192.754 4.872 192.071 4.232 190.962 3.71999C189.938 3.12266 188.53 2.824 186.738 2.824C184.775 2.824 183.068 3.25066 181.618 4.104C180.252 4.95733 179.186 6.10933 178.418 7.56C177.394 9.35199 176.754 12.04 176.498 15.624C176.242 19.1227 176.114 24.5413 176.114 31.88V35.208H189.81V37.768H176.114V87.816C176.114 91.9973 177.308 94.8133 179.698 96.264C182.172 97.6293 185.5 98.312 189.682 98.312V101C187.719 100.915 184.946 100.829 181.362 100.744C177.778 100.573 173.98 100.488 169.97 100.488C167.068 100.488 164.167 100.573 161.266 100.744C158.45 100.829 156.316 100.915 154.866 101V98.312C158.364 98.312 160.839 97.672 162.29 96.392C163.826 95.112 164.594 92.68 164.594 89.096V37.768H154.354V35.208H164.594C164.594 30.1733 164.807 25.9493 165.234 22.536C165.66 19.1227 166.343 16.2213 167.282 13.832C168.22 11.3573 169.5 9.18133 171.122 7.30399C172.828 5.34133 175.004 3.80533 177.65 2.696C180.295 1.50133 183.196 0.903992 186.354 0.903992ZM240.283 33.288C243.525 33.288 246.213 33.7147 248.347 34.568C250.565 35.4213 252.4 36.616 253.851 38.152C255.472 39.8587 256.624 41.992 257.307 44.552C257.989 47.112 258.331 50.568 258.331 54.92V89.096C258.331 92.68 259.056 95.112 260.507 96.392C262.043 97.672 264.56 98.312 268.059 98.312V101C266.608 100.915 264.389 100.829 261.403 100.744C258.416 100.573 255.515 100.488 252.699 100.488C249.883 100.488 247.109 100.573 244.379 100.744C241.733 100.829 239.728 100.915 238.363 101V98.312C241.435 98.312 243.611 97.672 244.891 96.392C246.171 95.112 246.811 92.68 246.811 89.096V52.104C246.811 49.4587 246.597 47.0267 246.171 44.808C245.744 42.5893 244.763 40.7973 243.227 39.432C241.776 38.0667 239.515 37.384 236.443 37.384C232.859 37.384 229.701 38.408 226.971 40.456C224.325 42.504 222.235 45.32 220.699 48.904C219.248 52.4027 218.523 56.328 218.523 60.68V89.096C218.523 92.68 219.163 95.112 220.443 96.392C221.723 97.672 223.899 98.312 226.971 98.312V101C225.605 100.915 223.557 100.829 220.827 100.744C218.181 100.573 215.451 100.488 212.635 100.488C209.819 100.488 206.917 100.573 203.931 100.744C200.944 100.829 198.725 100.915 197.275 101V98.312C200.773 98.312 203.248 97.672 204.699 96.392C206.235 95.112 207.003 92.68 207.003 89.096V49.032C207.003 45.192 206.32 42.376 204.955 40.584C203.589 38.7067 201.029 37.768 197.275 37.768V35.08C200.005 35.336 202.651 35.464 205.211 35.464C207.685 35.464 210.032 35.336 212.251 35.08C214.555 34.7387 216.645 34.2693 218.523 33.672V48.776C220.741 42.9733 223.813 38.9627 227.739 36.744C231.749 34.44 235.931 33.288 240.283 33.288ZM291.826 101.896C288.327 101.896 285.298 101.256 282.738 99.976C280.178 98.6107 278.215 96.7333 276.85 94.344C275.57 91.9547 274.93 89.1813 274.93 86.024C274.93 82.2693 275.783 79.1973 277.49 76.808C279.282 74.4187 281.543 72.4987 284.274 71.048C287.004 69.5973 289.863 68.4027 292.85 67.464C295.922 66.44 298.823 65.5013 301.554 64.648C304.284 63.7093 306.503 62.6427 308.21 61.448C310.002 60.2533 310.898 58.6747 310.898 56.712V48.776C310.898 45.192 310.343 42.4613 309.234 40.584C308.21 38.7067 306.802 37.4693 305.01 36.872C303.218 36.1893 301.212 35.848 298.994 35.848C296.86 35.848 294.556 36.1467 292.082 36.744C289.692 37.3413 287.772 38.5787 286.322 40.456C287.943 40.7973 289.351 41.6507 290.546 43.016C291.74 44.3813 292.338 46.1307 292.338 48.264C292.338 50.3973 291.655 52.104 290.29 53.384C288.924 54.5787 287.175 55.176 285.042 55.176C282.567 55.176 280.732 54.408 279.538 52.872C278.428 51.2507 277.874 49.4587 277.874 47.496C277.874 45.2773 278.428 43.4853 279.538 42.12C280.647 40.7547 282.055 39.4747 283.762 38.28C285.724 36.9147 288.242 35.7627 291.314 34.824C294.471 33.8 298.012 33.288 301.938 33.288C305.436 33.288 308.423 33.7147 310.898 34.568C313.372 35.336 315.42 36.488 317.042 38.024C319.26 40.072 320.711 42.5893 321.394 45.576C322.076 48.4773 322.418 51.976 322.418 56.072V91.656C322.418 93.7893 322.716 95.3253 323.314 96.264C323.996 97.2027 325.02 97.672 326.386 97.672C327.324 97.672 328.22 97.4587 329.074 97.032C329.927 96.6053 330.951 95.9227 332.146 94.984L333.554 97.16C331.762 98.5253 330.055 99.6773 328.434 100.616C326.812 101.469 324.636 101.896 321.906 101.896C319.431 101.896 317.383 101.469 315.762 100.616C314.14 99.7627 312.903 98.5253 312.05 96.904C311.282 95.1973 310.898 93.064 310.898 90.504C308.594 94.344 305.82 97.2027 302.578 99.08C299.42 100.957 295.836 101.896 291.826 101.896ZM296.434 96.776C299.25 96.776 301.852 95.9653 304.242 94.344C306.716 92.7227 308.935 90.2907 310.898 87.048V61.96C309.874 63.4107 308.38 64.648 306.418 65.672C304.455 66.6107 302.322 67.592 300.018 68.616C297.714 69.5547 295.495 70.7067 293.362 72.072C291.314 73.352 289.607 75.0587 288.242 77.192C286.876 79.3253 286.194 82.0987 286.194 85.512C286.194 88.9253 287.09 91.656 288.882 93.704C290.759 95.752 293.276 96.776 296.434 96.776Z" fill="white"/>
</g>
<defs>
<filter id="filter0_d_221_136" x="0.752441" y="0.904297" width="336.801" height="132.16" filterUnits="userSpaceOnUse" color-interpolation-filters="sRGB">
<feFlood flood-opacity="0" result="BackgroundImageFix"/>
<feColorMatrix in="SourceAlpha" type="matrix" values="0 0 0 0 0 0 0 0 0 0 0 0 0 0 0 0 0 0 127 0" result="hardAlpha"/>
<feOffset dy="4"/>
<feGaussianBlur stdDeviation="2"/>
<feComposite in2="hardAlpha" operator="out"/>
<feColorMatrix type="matrix" values="0 0 0 0 0 0 0 0 0 0 0 0 0 0 0 0 0 0 0.6 0"/>
<feBlend mode="normal" in2="BackgroundImageFix" result="effect1_dropShadow_221_136"/>
<feBlend mode="normal" in="SourceGraphic" in2="effect1_dropShadow_221_136" result="shape"/>
</filter>
</defs>
</svg>
