<svg width="632" height="103" viewBox="0 0 632 103" fill="none" xmlns="http://www.w3.org/2000/svg">
<g filter="url(#filter0_d_156_402)">
<path d="M44.863 0.583992C50.495 0.583992 55.103 1.43733 58.687 3.144C62.3563 4.76533 65.599 6.68533 68.415 8.904C70.1217 10.184 71.4017 10.3547 72.255 9.41599C73.1937 8.392 73.8337 6.04533 74.175 2.376H77.119C76.9483 5.53333 76.8203 9.37333 76.735 13.896C76.6497 18.4187 76.607 24.392 76.607 31.816H73.663C73.0657 28.1467 72.511 25.2453 71.999 23.112C71.487 20.8933 70.847 19.016 70.079 17.48C69.3963 15.944 68.4577 14.408 67.263 12.872C64.6177 9.37333 61.2897 6.85599 57.279 5.31999C53.2683 3.69866 49.0443 2.88799 44.607 2.88799C40.4257 2.88799 36.6283 3.95466 33.215 6.088C29.887 8.136 26.9857 11.1227 24.511 15.048C22.1217 18.9733 20.2443 23.7093 18.879 29.256C17.599 34.8027 16.959 41.032 16.959 47.944C16.959 55.112 17.6843 61.4693 19.135 67.016C20.5857 72.4773 22.591 77.0853 25.151 80.84C27.7963 84.5947 30.8683 87.4533 34.367 89.416C37.951 91.2933 41.791 92.232 45.887 92.232C49.727 92.232 53.7377 91.464 57.919 89.928C62.1003 88.392 65.3857 85.9173 67.775 82.504C69.6523 80.0293 70.9323 77.3413 71.615 74.44C72.383 71.5387 73.0657 67.4853 73.663 62.28H76.607C76.607 70.0453 76.6497 76.3173 76.735 81.096C76.8203 85.7893 76.9483 89.7573 77.119 93H74.175C73.8337 89.3307 73.2363 87.0267 72.383 86.088C71.615 85.1493 70.2923 85.2773 68.415 86.472C65.2577 88.6907 61.887 90.6533 58.303 92.36C54.8043 93.9813 50.2817 94.792 44.735 94.792C36.6283 94.792 29.503 92.9573 23.359 89.288C17.3003 85.6187 12.5643 80.328 9.151 73.416C5.823 66.504 4.159 58.184 4.159 48.456C4.159 38.8987 5.90833 30.536 9.407 23.368C12.9057 16.2 17.6843 10.6107 23.743 6.6C29.887 2.58933 36.927 0.583992 44.863 0.583992ZM132.988 0.583992C141.095 0.583992 148.177 2.41866 154.236 6.088C160.38 9.75733 165.116 15.048 168.444 21.96C171.857 28.7867 173.564 37.1067 173.564 46.92C173.564 56.4773 171.815 64.84 168.316 72.008C164.903 79.176 160.124 84.7653 153.98 88.776C147.836 92.7867 140.796 94.792 132.86 94.792C124.753 94.792 117.628 92.9573 111.484 89.288C105.425 85.6187 100.689 80.328 97.276 73.416C93.948 66.504 92.284 58.184 92.284 48.456C92.284 38.8987 94.0333 30.536 97.532 23.368C101.031 16.2 105.809 10.6107 111.868 6.6C118.012 2.58933 125.052 0.583992 132.988 0.583992ZM132.476 2.88799C126.929 2.88799 122.108 4.80799 118.012 8.64799C113.916 12.488 110.716 17.7787 108.412 24.52C106.193 31.2613 105.084 39.0693 105.084 47.944C105.084 56.9893 106.321 64.8827 108.796 71.624C111.356 78.28 114.769 83.4427 119.036 87.112C123.388 90.696 128.167 92.488 133.372 92.488C138.919 92.488 143.74 90.568 147.836 86.728C151.932 82.888 155.089 77.5973 157.308 70.856C159.612 64.0293 160.764 56.2213 160.764 47.432C160.764 38.3013 159.484 30.408 156.924 23.752C154.449 17.096 151.079 11.976 146.812 8.392C142.545 4.72266 137.767 2.88799 132.476 2.88799ZM217.391 2.376V4.936C214.49 5.02133 212.271 5.36266 210.735 5.96C209.284 6.472 208.303 7.496 207.791 9.032C207.279 10.4827 207.023 12.7867 207.023 15.944V79.432C207.023 82.504 207.279 84.808 207.791 86.344C208.303 87.88 209.284 88.904 210.735 89.416C212.271 89.8427 214.49 90.056 217.391 90.056H226.735C230.746 90.056 233.988 89.6293 236.463 88.776C239.023 87.9227 241.028 86.6 242.479 84.808C244.015 82.9307 245.167 80.456 245.935 77.384C246.703 74.312 247.3 70.5573 247.727 66.12H250.671C250.415 68.7653 250.287 72.264 250.287 76.616C250.287 78.2373 250.33 80.584 250.415 83.656C250.586 86.6427 250.842 89.7573 251.183 93C246.831 92.8293 241.924 92.744 236.463 92.744C231.002 92.6587 226.138 92.616 221.871 92.616C219.994 92.616 217.562 92.616 214.575 92.616C211.674 92.616 208.516 92.6587 205.103 92.744C201.69 92.744 198.234 92.7867 194.735 92.872C191.236 92.872 187.908 92.9147 184.751 93V90.44C187.652 90.2693 189.828 89.928 191.279 89.416C192.815 88.904 193.839 87.88 194.351 86.344C194.863 84.808 195.119 82.504 195.119 79.432V15.944C195.119 12.7867 194.863 10.4827 194.351 9.032C193.839 7.496 192.815 6.472 191.279 5.96C189.828 5.36266 187.652 5.02133 184.751 4.936V2.376C186.543 2.46133 188.89 2.54666 191.791 2.632C194.692 2.71733 197.807 2.75999 201.135 2.75999C204.122 2.75999 207.066 2.71733 209.967 2.632C212.954 2.54666 215.428 2.46133 217.391 2.376ZM302.113 0.583992C310.22 0.583992 317.302 2.41866 323.361 6.088C329.505 9.75733 334.241 15.048 337.569 21.96C340.982 28.7867 342.689 37.1067 342.689 46.92C342.689 56.4773 340.94 64.84 337.441 72.008C334.028 79.176 329.249 84.7653 323.105 88.776C316.961 92.7867 309.921 94.792 301.985 94.792C293.878 94.792 286.753 92.9573 280.609 89.288C274.55 85.6187 269.814 80.328 266.401 73.416C263.073 66.504 261.409 58.184 261.409 48.456C261.409 38.8987 263.158 30.536 266.657 23.368C270.156 16.2 274.934 10.6107 280.993 6.6C287.137 2.58933 294.177 0.583992 302.113 0.583992ZM301.601 2.88799C296.054 2.88799 291.233 4.80799 287.137 8.64799C283.041 12.488 279.841 17.7787 277.537 24.52C275.318 31.2613 274.209 39.0693 274.209 47.944C274.209 56.9893 275.446 64.8827 277.921 71.624C280.481 78.28 283.894 83.4427 288.161 87.112C292.513 90.696 297.292 92.488 302.497 92.488C308.044 92.488 312.865 90.568 316.961 86.728C321.057 82.888 324.214 77.5973 326.433 70.856C328.737 64.0293 329.889 56.2213 329.889 47.432C329.889 38.3013 328.609 30.408 326.049 23.752C323.574 17.096 320.204 11.976 315.937 8.392C311.67 4.72266 306.892 2.88799 301.601 2.88799ZM454.612 2.376V4.936C451.711 5.02133 449.492 5.36266 447.956 5.96C446.505 6.472 445.524 7.496 445.012 9.032C444.5 10.4827 444.244 12.7867 444.244 15.944V79.432C444.244 82.504 444.5 84.808 445.012 86.344C445.524 87.88 446.505 88.904 447.956 89.416C449.492 89.928 451.711 90.2693 454.612 90.44V93C452.649 92.8293 450.175 92.744 447.188 92.744C444.287 92.6587 441.343 92.616 438.356 92.616C435.028 92.616 431.913 92.6587 429.012 92.744C426.111 92.744 423.764 92.8293 421.972 93V90.44C424.873 90.2693 427.049 89.928 428.5 89.416C430.036 88.904 431.06 87.88 431.572 86.344C432.084 84.808 432.34 82.504 432.34 79.432V9.032L432.852 9.41599L401.492 93.64H399.444L367.188 10.568V78.152C367.188 81.224 367.444 83.656 367.956 85.448C368.553 87.1547 369.663 88.392 371.284 89.16C372.991 89.8427 375.508 90.2693 378.836 90.44V93C377.3 92.8293 375.295 92.744 372.82 92.744C370.345 92.6587 367.999 92.616 365.78 92.616C363.647 92.616 361.471 92.6587 359.252 92.744C357.119 92.744 355.327 92.8293 353.876 93V90.44C356.777 90.2693 358.953 89.8427 360.404 89.16C361.94 88.392 362.964 87.1547 363.476 85.448C363.988 83.656 364.244 81.224 364.244 78.152V15.944C364.244 12.7867 363.988 10.4827 363.476 9.032C362.964 7.496 361.94 6.472 360.404 5.96C358.953 5.36266 356.777 5.02133 353.876 4.936V2.376C355.327 2.46133 357.119 2.54666 359.252 2.632C361.471 2.71733 363.647 2.75999 365.78 2.75999C367.657 2.75999 369.577 2.71733 371.54 2.632C373.588 2.54666 375.295 2.46133 376.66 2.376L405.716 78.92L403.54 79.944L432.34 2.75999C433.364 2.75999 434.345 2.75999 435.284 2.75999C436.308 2.75999 437.332 2.75999 438.356 2.75999C441.343 2.75999 444.287 2.71733 447.188 2.632C450.175 2.54666 452.649 2.46133 454.612 2.376ZM465.376 2.376C467.168 2.46133 469.515 2.54666 472.416 2.632C475.317 2.71733 478.176 2.75999 480.992 2.75999C485.003 2.75999 488.843 2.71733 492.512 2.632C496.181 2.54666 498.784 2.504 500.32 2.504C509.28 2.504 516.021 4.38133 520.544 8.13599C525.067 11.8907 527.328 16.712 527.328 22.6C527.328 25.5867 526.688 28.5307 525.408 31.432C524.213 34.248 522.165 36.8507 519.264 39.24C516.448 41.544 512.651 43.4213 507.872 44.872V45.128C514.613 45.9813 519.861 47.6027 523.616 49.992C527.456 52.296 530.144 55.0267 531.68 58.184C533.216 61.3413 533.984 64.6693 533.984 68.168C533.984 73.032 532.747 77.3413 530.272 81.096C527.883 84.7653 524.384 87.6667 519.776 89.8C515.168 91.9333 509.664 93 503.264 93C501.387 93 498.571 92.9573 494.816 92.872C491.061 92.7013 486.539 92.616 481.248 92.616C478.261 92.616 475.317 92.6587 472.416 92.744C469.515 92.744 467.168 92.8293 465.376 93V90.44C468.277 90.2693 470.453 89.928 471.904 89.416C473.44 88.904 474.464 87.88 474.976 86.344C475.488 84.808 475.744 82.504 475.744 79.432V15.944C475.744 12.7867 475.488 10.4827 474.976 9.032C474.464 7.496 473.44 6.472 471.904 5.96C470.453 5.36266 468.277 5.02133 465.376 4.936V2.376ZM497.12 4.936C493.195 4.936 490.635 5.66133 489.44 7.112C488.245 8.56266 487.648 11.5067 487.648 15.944V79.432C487.648 82.4187 487.904 84.68 488.416 86.216C488.928 87.752 489.867 88.776 491.232 89.288C492.597 89.8 494.603 90.056 497.248 90.056C505.611 90.056 511.669 88.136 515.424 84.296C519.264 80.3707 521.184 74.824 521.184 67.656C521.184 61.0853 519.392 56.008 515.808 52.424C512.309 48.84 506.507 47.048 498.4 47.048H485.216C485.216 47.048 485.216 46.7067 485.216 46.024C485.216 45.256 485.216 44.872 485.216 44.872H496.224C501.259 44.872 505.141 43.9333 507.872 42.056C510.603 40.0933 512.48 37.5333 513.504 34.376C514.528 31.1333 515.04 27.6773 515.04 24.008C515.04 17.6933 513.632 12.9573 510.816 9.8C508.085 6.55733 503.52 4.936 497.12 4.936ZM587.238 0.583992C595.345 0.583992 602.427 2.41866 608.486 6.088C614.63 9.75733 619.366 15.048 622.694 21.96C626.107 28.7867 627.814 37.1067 627.814 46.92C627.814 56.4773 626.065 64.84 622.566 72.008C619.153 79.176 614.374 84.7653 608.23 88.776C602.086 92.7867 595.046 94.792 587.11 94.792C579.003 94.792 571.878 92.9573 565.734 89.288C559.675 85.6187 554.939 80.328 551.526 73.416C548.198 66.504 546.534 58.184 546.534 48.456C546.534 38.8987 548.283 30.536 551.782 23.368C555.281 16.2 560.059 10.6107 566.118 6.6C572.262 2.58933 579.302 0.583992 587.238 0.583992ZM586.726 2.88799C581.179 2.88799 576.358 4.80799 572.262 8.64799C568.166 12.488 564.966 17.7787 562.662 24.52C560.443 31.2613 559.334 39.0693 559.334 47.944C559.334 56.9893 560.571 64.8827 563.046 71.624C565.606 78.28 569.019 83.4427 573.286 87.112C577.638 90.696 582.417 92.488 587.622 92.488C593.169 92.488 597.99 90.568 602.086 86.728C606.182 82.888 609.339 77.5973 611.558 70.856C613.862 64.0293 615.014 56.2213 615.014 47.432C615.014 38.3013 613.734 30.408 611.174 23.752C608.699 17.096 605.329 11.976 601.062 8.392C596.795 4.72266 592.017 2.88799 586.726 2.88799Z" fill="white"/>
</g>
<defs>
<filter id="filter0_d_156_402" x="0.159058" y="0.583984" width="631.655" height="102.208" filterUnits="userSpaceOnUse" color-interpolation-filters="sRGB">
<feFlood flood-opacity="0" result="BackgroundImageFix"/>
<feColorMatrix in="SourceAlpha" type="matrix" values="0 0 0 0 0 0 0 0 0 0 0 0 0 0 0 0 0 0 127 0" result="hardAlpha"/>
<feOffset dy="4"/>
<feGaussianBlur stdDeviation="2"/>
<feComposite in2="hardAlpha" operator="out"/>
<feColorMatrix type="matrix" values="0 0 0 0 0 0 0 0 0 0 0 0 0 0 0 0 0 0 0.6 0"/>
<feBlend mode="normal" in2="BackgroundImageFix" result="effect1_dropShadow_156_402"/>
<feBlend mode="normal" in="SourceGraphic" in2="effect1_dropShadow_156_402" result="shape"/>
</filter>
</defs>
</svg>
