<svg width="314" height="27" viewBox="0 0 314 27" fill="none" xmlns="http://www.w3.org/2000/svg">
<path d="M21.14 0.512V1.232C20.396 1.328 19.676 1.568 18.98 1.952C18.284 2.336 17.588 2.972 16.892 3.86L9.944 12.752L10.736 10.988L19.376 23.084C19.784 23.684 20.228 24.152 20.708 24.488C21.188 24.824 21.8 25.088 22.544 25.28V26C21.968 25.952 21.248 25.928 20.384 25.928C19.544 25.904 18.824 25.892 18.224 25.892C17.816 25.892 17.312 25.904 16.712 25.928C16.136 25.928 15.404 25.952 14.516 26V25.28C15.332 25.232 15.848 25.088 16.064 24.848C16.28 24.608 16.196 24.212 15.812 23.66L10.556 15.74C10.076 14.996 9.644 14.444 9.26 14.084C8.9 13.7 8.516 13.448 8.108 13.328C7.724 13.208 7.232 13.136 6.632 13.112V12.392C7.64 12.368 8.48 12.176 9.152 11.816C9.848 11.432 10.424 10.952 10.88 10.376L14.336 5.984C15.128 4.976 15.668 4.124 15.956 3.428C16.244 2.732 16.232 2.204 15.92 1.844C15.608 1.46 14.948 1.256 13.94 1.232V0.512C14.396 0.536 14.864 0.559999 15.344 0.583999C15.824 0.583999 16.292 0.595999 16.748 0.619998C17.228 0.619998 17.672 0.619998 18.08 0.619998C18.704 0.619998 19.28 0.607999 19.808 0.583999C20.336 0.559999 20.78 0.536 21.14 0.512ZM9.692 0.512V1.232C8.876 1.256 8.252 1.352 7.82 1.52C7.412 1.664 7.136 1.952 6.992 2.384C6.848 2.792 6.776 3.44 6.776 4.328V22.184C6.776 23.048 6.848 23.696 6.992 24.128C7.136 24.56 7.412 24.848 7.82 24.992C8.252 25.136 8.876 25.232 9.692 25.28V26C9.14 25.952 8.444 25.928 7.604 25.928C6.788 25.904 5.96 25.892 5.12 25.892C4.184 25.892 3.308 25.904 2.492 25.928C1.676 25.928 1.016 25.952 0.512 26V25.28C1.328 25.232 1.94 25.136 2.348 24.992C2.78 24.848 3.068 24.56 3.212 24.128C3.356 23.696 3.428 23.048 3.428 22.184V4.328C3.428 3.44 3.356 2.792 3.212 2.384C3.068 1.952 2.78 1.664 2.348 1.52C1.94 1.352 1.328 1.256 0.512 1.232V0.512C1.016 0.536 1.676 0.559999 2.492 0.583999C3.308 0.607999 4.184 0.619998 5.12 0.619998C5.96 0.619998 6.788 0.607999 7.604 0.583999C8.444 0.559999 9.14 0.536 9.692 0.512ZM42.0658 0.512C41.9698 1.352 41.8978 2.168 41.8498 2.96C41.8258 3.752 41.8138 4.352 41.8138 4.76C41.8138 5.192 41.8258 5.612 41.8498 6.02C41.8738 6.404 41.8978 6.728 41.9218 6.992H41.0938C40.9498 5.576 40.7458 4.46 40.4818 3.644C40.2178 2.804 39.7618 2.216 39.1138 1.88C38.4898 1.52 37.5418 1.34 36.2698 1.34H33.2818C32.4658 1.34 31.8418 1.412 31.4098 1.556C31.0018 1.676 30.7258 1.952 30.5818 2.384C30.4378 2.792 30.3658 3.44 30.3658 4.328V22.184C30.3658 23.048 30.4378 23.696 30.5818 24.128C30.7258 24.56 31.0018 24.848 31.4098 24.992C31.8418 25.112 32.4658 25.172 33.2818 25.172H35.9098C37.4218 25.172 38.5618 24.968 39.3298 24.56C40.1218 24.152 40.6858 23.492 41.0218 22.58C41.3818 21.644 41.6458 20.384 41.8138 18.8H42.6418C42.5698 19.448 42.5338 20.312 42.5338 21.392C42.5338 21.848 42.5458 22.508 42.5698 23.372C42.6178 24.212 42.6898 25.088 42.7858 26C41.5618 25.952 40.1818 25.928 38.6458 25.928C37.1098 25.904 35.7418 25.892 34.5418 25.892C34.0138 25.892 33.3298 25.892 32.4898 25.892C31.6738 25.892 30.7858 25.904 29.8258 25.928C28.8658 25.928 27.8938 25.94 26.9098 25.964C25.9258 25.964 24.9898 25.976 24.1018 26V25.28C24.9178 25.232 25.5298 25.136 25.9378 24.992C26.3698 24.848 26.6578 24.56 26.8018 24.128C26.9458 23.696 27.0178 23.048 27.0178 22.184V4.328C27.0178 3.44 26.9458 2.792 26.8018 2.384C26.6578 1.952 26.3698 1.664 25.9378 1.52C25.5298 1.352 24.9178 1.256 24.1018 1.232V0.512C24.9898 0.536 25.9258 0.559999 26.9098 0.583999C27.8938 0.583999 28.8658 0.595999 29.8258 0.619998C30.7858 0.619998 31.6738 0.619998 32.4898 0.619998C33.3298 0.619998 34.0138 0.619998 34.5418 0.619998C35.6458 0.619998 36.8938 0.619998 38.2858 0.619998C39.7018 0.595999 40.9618 0.559999 42.0658 0.512ZM35.8738 12.824C35.8738 12.824 35.8738 12.944 35.8738 13.184C35.8738 13.424 35.8738 13.544 35.8738 13.544H29.2858C29.2858 13.544 29.2858 13.424 29.2858 13.184C29.2858 12.944 29.2858 12.824 29.2858 12.824H35.8738ZM36.9178 8.072C36.8218 9.44 36.7738 10.484 36.7738 11.204C36.7978 11.924 36.8098 12.584 36.8098 13.184C36.8098 13.784 36.8218 14.444 36.8458 15.164C36.8698 15.884 36.9298 16.928 37.0258 18.296H36.1978C36.1018 17.528 35.9818 16.784 35.8378 16.064C35.7178 15.32 35.4298 14.72 34.9738 14.264C34.5418 13.784 33.7978 13.544 32.7418 13.544V12.824C33.5338 12.824 34.1338 12.668 34.5418 12.356C34.9738 12.02 35.2858 11.6 35.4778 11.096C35.6698 10.592 35.8018 10.076 35.8738 9.548C35.9458 8.996 36.0178 8.504 36.0898 8.072H36.9178ZM55.2193 0.512V1.232C54.4033 1.256 53.7793 1.352 53.3473 1.52C52.9393 1.664 52.6633 1.952 52.5193 2.384C52.3753 2.792 52.3033 3.44 52.3033 4.328V22.184C52.3033 23.048 52.3753 23.696 52.5193 24.128C52.6633 24.56 52.9393 24.848 53.3473 24.992C53.7793 25.112 54.4033 25.172 55.2193 25.172H57.8473C58.9753 25.172 59.8873 25.052 60.5833 24.812C61.3033 24.572 61.8673 24.2 62.2753 23.696C62.7073 23.168 63.0313 22.472 63.2473 21.608C63.4633 20.744 63.6313 19.688 63.7513 18.44H64.5793C64.5073 19.184 64.4713 20.168 64.4713 21.392C64.4713 21.848 64.4833 22.508 64.5073 23.372C64.5553 24.212 64.6273 25.088 64.7233 26C63.4993 25.952 62.1193 25.928 60.5833 25.928C59.0473 25.904 57.6793 25.892 56.4793 25.892C55.9513 25.892 55.2673 25.892 54.4273 25.892C53.6113 25.892 52.7233 25.904 51.7633 25.928C50.8033 25.928 49.8313 25.94 48.8473 25.964C47.8633 25.964 46.9273 25.976 46.0393 26V25.28C46.8553 25.232 47.4673 25.136 47.8753 24.992C48.3073 24.848 48.5953 24.56 48.7393 24.128C48.8833 23.696 48.9553 23.048 48.9553 22.184V4.328C48.9553 3.44 48.8833 2.792 48.7393 2.384C48.5953 1.952 48.3073 1.664 47.8753 1.52C47.4673 1.352 46.8553 1.256 46.0393 1.232V0.512C46.5433 0.536 47.2033 0.559999 48.0193 0.583999C48.8353 0.607999 49.7113 0.619998 50.6473 0.619998C51.4873 0.619998 52.3153 0.607999 53.1313 0.583999C53.9713 0.559999 54.6673 0.536 55.2193 0.512ZM77.3194 0.331998L86.1034 22.976C86.4634 23.888 86.8714 24.5 87.3274 24.812C87.7834 25.1 88.2034 25.256 88.5874 25.28V26C88.1074 25.952 87.5194 25.928 86.8234 25.928C86.1274 25.904 85.4314 25.892 84.7354 25.892C83.7994 25.892 82.9234 25.904 82.1074 25.928C81.2914 25.928 80.6314 25.952 80.1274 26V25.28C81.3514 25.232 82.1314 25.028 82.4674 24.668C82.8034 24.284 82.7314 23.48 82.2514 22.256L75.5554 4.364L76.1314 3.896L69.8674 20.168C69.4834 21.128 69.2554 21.944 69.1834 22.616C69.1114 23.264 69.1714 23.78 69.3634 24.164C69.5794 24.548 69.9274 24.824 70.4074 24.992C70.9114 25.16 71.5354 25.256 72.2794 25.28V26C71.6074 25.952 70.8994 25.928 70.1554 25.928C69.4354 25.904 68.7634 25.892 68.1394 25.892C67.5394 25.892 67.0234 25.904 66.5914 25.928C66.1834 25.928 65.7994 25.952 65.4394 26V25.28C65.9194 25.16 66.4114 24.884 66.9154 24.452C67.4194 23.996 67.8754 23.228 68.2834 22.148L76.7434 0.331998C76.8394 0.331998 76.9354 0.331998 77.0314 0.331998C77.1274 0.331998 77.2234 0.331998 77.3194 0.331998ZM81.7114 15.632V16.352H70.9834L71.3434 15.632H81.7114ZM111.784 0.512V1.232C110.968 1.256 110.344 1.376 109.912 1.592C109.504 1.808 109.228 2.156 109.084 2.636C108.94 3.116 108.868 3.8 108.868 4.688V26.18C108.724 26.18 108.58 26.18 108.436 26.18C108.316 26.18 108.184 26.18 108.04 26.18L92.9201 2.816V21.824C92.9201 22.688 92.9921 23.372 93.1361 23.876C93.3041 24.356 93.6161 24.704 94.0721 24.92C94.5521 25.112 95.2601 25.232 96.1961 25.28V26C95.7641 25.952 95.2001 25.928 94.5041 25.928C93.8081 25.904 93.1481 25.892 92.5241 25.892C91.9241 25.892 91.3121 25.904 90.6881 25.928C90.0881 25.928 89.5841 25.952 89.1761 26V25.28C89.9921 25.232 90.6041 25.112 91.0121 24.92C91.4441 24.704 91.7321 24.356 91.8761 23.876C92.0201 23.372 92.0921 22.688 92.0921 21.824V4.328C92.0921 3.44 92.0201 2.792 91.8761 2.384C91.7321 1.952 91.4441 1.664 91.0121 1.52C90.6041 1.352 89.9921 1.256 89.1761 1.232V0.512C89.5841 0.536 90.0881 0.559999 90.6881 0.583999C91.3121 0.607999 91.9241 0.619998 92.5241 0.619998C93.0521 0.619998 93.5561 0.607999 94.0361 0.583999C94.5161 0.559999 94.9481 0.536 95.3321 0.512L108.04 20.096V4.688C108.04 3.8 107.956 3.116 107.788 2.636C107.644 2.156 107.332 1.808 106.852 1.592C106.396 1.376 105.7 1.256 104.764 1.232V0.512C105.196 0.536 105.76 0.559999 106.456 0.583999C107.176 0.607999 107.836 0.619998 108.436 0.619998C109.06 0.619998 109.672 0.607999 110.272 0.583999C110.896 0.559999 111.4 0.536 111.784 0.512ZM123.774 0.512V1.232C122.958 1.256 122.334 1.352 121.902 1.52C121.494 1.664 121.218 1.952 121.074 2.384C120.93 2.792 120.858 3.44 120.858 4.328V22.184C120.858 23.048 120.93 23.696 121.074 24.128C121.218 24.56 121.494 24.848 121.902 24.992C122.334 25.136 122.958 25.232 123.774 25.28V26C123.222 25.952 122.526 25.928 121.686 25.928C120.87 25.904 120.042 25.892 119.202 25.892C118.266 25.892 117.39 25.904 116.574 25.928C115.758 25.928 115.098 25.952 114.594 26V25.28C115.41 25.232 116.022 25.136 116.43 24.992C116.862 24.848 117.15 24.56 117.294 24.128C117.438 23.696 117.51 23.048 117.51 22.184V4.328C117.51 3.44 117.438 2.792 117.294 2.384C117.15 1.952 116.862 1.664 116.43 1.52C116.022 1.352 115.41 1.256 114.594 1.232V0.512C115.098 0.536 115.758 0.559999 116.574 0.583999C117.39 0.607999 118.266 0.619998 119.202 0.619998C120.042 0.619998 120.87 0.607999 121.686 0.583999C122.526 0.559999 123.222 0.536 123.774 0.512ZM146.449 0.512V1.232C145.993 1.328 145.537 1.628 145.081 2.132C144.625 2.612 144.121 3.38 143.569 4.436L136.297 18.836H135.685L127.261 3.284C126.781 2.396 126.373 1.844 126.037 1.628C125.725 1.388 125.437 1.268 125.173 1.268V0.512C125.653 0.536 126.145 0.559999 126.649 0.583999C127.177 0.607999 127.741 0.619998 128.341 0.619998C129.133 0.619998 129.973 0.619998 130.861 0.619998C131.773 0.595999 132.613 0.559999 133.381 0.512V1.268C132.781 1.268 132.253 1.34 131.797 1.484C131.341 1.628 131.041 1.892 130.897 2.276C130.753 2.66 130.861 3.2 131.221 3.896L137.305 15.56L137.017 15.776L141.805 6.236C142.477 4.916 142.801 3.896 142.777 3.176C142.777 2.456 142.501 1.964 141.949 1.7C141.397 1.412 140.617 1.256 139.609 1.232V0.512C140.305 0.536 141.013 0.559999 141.733 0.583999C142.453 0.607999 143.125 0.619998 143.749 0.619998C144.373 0.619998 144.889 0.607999 145.297 0.583999C145.705 0.559999 146.089 0.536 146.449 0.512ZM137.917 15.056V22.184C137.917 23.048 137.989 23.696 138.133 24.128C138.277 24.56 138.553 24.848 138.961 24.992C139.393 25.136 140.017 25.232 140.833 25.28V26C140.281 25.952 139.585 25.928 138.745 25.928C137.929 25.904 137.101 25.892 136.261 25.892C135.325 25.892 134.449 25.904 133.633 25.928C132.817 25.928 132.157 25.952 131.653 26V25.28C132.469 25.232 133.081 25.136 133.489 24.992C133.921 24.848 134.209 24.56 134.353 24.128C134.497 23.696 134.569 23.048 134.569 22.184V14.804L136.513 17.036L137.917 15.056ZM156.421 0.331998L165.205 22.976C165.565 23.888 165.973 24.5 166.429 24.812C166.885 25.1 167.305 25.256 167.689 25.28V26C167.209 25.952 166.621 25.928 165.925 25.928C165.229 25.904 164.533 25.892 163.837 25.892C162.901 25.892 162.025 25.904 161.209 25.928C160.393 25.928 159.733 25.952 159.229 26V25.28C160.453 25.232 161.233 25.028 161.569 24.668C161.905 24.284 161.833 23.48 161.353 22.256L154.657 4.364L155.233 3.896L148.969 20.168C148.585 21.128 148.357 21.944 148.285 22.616C148.213 23.264 148.273 23.78 148.465 24.164C148.681 24.548 149.029 24.824 149.509 24.992C150.013 25.16 150.637 25.256 151.381 25.28V26C150.709 25.952 150.001 25.928 149.257 25.928C148.537 25.904 147.865 25.892 147.241 25.892C146.641 25.892 146.125 25.904 145.693 25.928C145.285 25.928 144.901 25.952 144.541 26V25.28C145.021 25.16 145.513 24.884 146.017 24.452C146.521 23.996 146.977 23.228 147.385 22.148L155.845 0.331998C155.941 0.331998 156.037 0.331998 156.133 0.331998C156.229 0.331998 156.325 0.331998 156.421 0.331998ZM160.813 15.632V16.352H150.085L150.445 15.632H160.813ZM196.867 0.512C196.771 1.424 196.699 2.312 196.651 3.176C196.627 4.016 196.615 4.664 196.615 5.12C196.615 5.696 196.627 6.236 196.651 6.74C196.675 7.244 196.699 7.688 196.723 8.072H195.895C195.727 6.392 195.499 5.072 195.211 4.112C194.923 3.128 194.419 2.42 193.699 1.988C192.979 1.556 191.863 1.34 190.351 1.34H188.407V21.824C188.407 22.784 188.491 23.504 188.659 23.984C188.851 24.464 189.211 24.788 189.739 24.956C190.267 25.124 191.035 25.232 192.043 25.28V26C191.419 25.952 190.627 25.928 189.667 25.928C188.707 25.904 187.735 25.892 186.751 25.892C185.671 25.892 184.651 25.904 183.691 25.928C182.755 25.928 181.999 25.952 181.423 26V25.28C182.431 25.232 183.199 25.124 183.727 24.956C184.255 24.788 184.603 24.464 184.771 23.984C184.963 23.504 185.059 22.784 185.059 21.824V1.34H183.115C181.627 1.34 180.511 1.556 179.767 1.988C179.047 2.42 178.543 3.128 178.255 4.112C177.967 5.072 177.739 6.392 177.571 8.072H176.743C176.791 7.688 176.815 7.244 176.815 6.74C176.839 6.236 176.851 5.696 176.851 5.12C176.851 4.664 176.827 4.016 176.779 3.176C176.755 2.312 176.695 1.424 176.599 0.512C177.607 0.536 178.699 0.559999 179.875 0.583999C181.075 0.607999 182.275 0.619998 183.475 0.619998C184.675 0.619998 185.767 0.619998 186.751 0.619998C187.735 0.619998 188.815 0.619998 189.991 0.619998C191.191 0.619998 192.391 0.607999 193.591 0.583999C194.791 0.559999 195.883 0.536 196.867 0.512ZM217.39 0.512C217.294 1.352 217.222 2.168 217.174 2.96C217.15 3.752 217.138 4.352 217.138 4.76C217.138 5.192 217.15 5.612 217.174 6.02C217.198 6.404 217.222 6.728 217.246 6.992H216.418C216.274 5.576 216.07 4.46 215.806 3.644C215.542 2.804 215.086 2.216 214.438 1.88C213.814 1.52 212.866 1.34 211.594 1.34H208.606C207.79 1.34 207.166 1.412 206.734 1.556C206.326 1.676 206.05 1.952 205.906 2.384C205.762 2.792 205.69 3.44 205.69 4.328V22.184C205.69 23.048 205.762 23.696 205.906 24.128C206.05 24.56 206.326 24.848 206.734 24.992C207.166 25.112 207.79 25.172 208.606 25.172H211.234C212.746 25.172 213.886 24.968 214.654 24.56C215.446 24.152 216.01 23.492 216.346 22.58C216.706 21.644 216.97 20.384 217.138 18.8H217.966C217.894 19.448 217.858 20.312 217.858 21.392C217.858 21.848 217.87 22.508 217.894 23.372C217.942 24.212 218.014 25.088 218.11 26C216.886 25.952 215.506 25.928 213.97 25.928C212.434 25.904 211.066 25.892 209.866 25.892C209.338 25.892 208.654 25.892 207.814 25.892C206.998 25.892 206.11 25.904 205.15 25.928C204.19 25.928 203.218 25.94 202.234 25.964C201.25 25.964 200.314 25.976 199.426 26V25.28C200.242 25.232 200.854 25.136 201.262 24.992C201.694 24.848 201.982 24.56 202.126 24.128C202.27 23.696 202.342 23.048 202.342 22.184V4.328C202.342 3.44 202.27 2.792 202.126 2.384C201.982 1.952 201.694 1.664 201.262 1.52C200.854 1.352 200.242 1.256 199.426 1.232V0.512C200.314 0.536 201.25 0.559999 202.234 0.583999C203.218 0.583999 204.19 0.595999 205.15 0.619998C206.11 0.619998 206.998 0.619998 207.814 0.619998C208.654 0.619998 209.338 0.619998 209.866 0.619998C210.97 0.619998 212.218 0.619998 213.61 0.619998C215.026 0.595999 216.286 0.559999 217.39 0.512ZM211.198 12.824C211.198 12.824 211.198 12.944 211.198 13.184C211.198 13.424 211.198 13.544 211.198 13.544H204.61C204.61 13.544 204.61 13.424 204.61 13.184C204.61 12.944 204.61 12.824 204.61 12.824H211.198ZM212.242 8.072C212.146 9.44 212.098 10.484 212.098 11.204C212.122 11.924 212.134 12.584 212.134 13.184C212.134 13.784 212.146 14.444 212.17 15.164C212.194 15.884 212.254 16.928 212.35 18.296H211.522C211.426 17.528 211.306 16.784 211.162 16.064C211.042 15.32 210.754 14.72 210.298 14.264C209.866 13.784 209.122 13.544 208.066 13.544V12.824C208.858 12.824 209.458 12.668 209.866 12.356C210.298 12.02 210.61 11.6 210.802 11.096C210.994 10.592 211.126 10.076 211.198 9.548C211.27 8.996 211.342 8.504 211.414 8.072H212.242ZM249.696 0.512V1.232C248.88 1.256 248.256 1.352 247.824 1.52C247.416 1.664 247.14 1.952 246.996 2.384C246.852 2.792 246.78 3.44 246.78 4.328V22.184C246.78 23.048 246.852 23.696 246.996 24.128C247.14 24.56 247.416 24.848 247.824 24.992C248.256 25.136 248.88 25.232 249.696 25.28V26C249.144 25.952 248.448 25.928 247.608 25.928C246.792 25.904 245.964 25.892 245.124 25.892C244.188 25.892 243.312 25.904 242.496 25.928C241.68 25.928 241.02 25.952 240.516 26V25.28C241.332 25.232 241.944 25.136 242.352 24.992C242.784 24.848 243.072 24.56 243.216 24.128C243.36 23.696 243.432 23.048 243.432 22.184V2.384L243.576 2.492L234.756 26.18H234.18L225.108 2.816V21.824C225.108 22.688 225.18 23.372 225.324 23.876C225.492 24.356 225.804 24.704 226.26 24.92C226.74 25.112 227.448 25.232 228.384 25.28V26C227.952 25.952 227.388 25.928 226.692 25.928C225.996 25.904 225.336 25.892 224.712 25.892C224.112 25.892 223.5 25.904 222.876 25.928C222.276 25.928 221.772 25.952 221.364 26V25.28C222.18 25.232 222.792 25.112 223.2 24.92C223.632 24.704 223.92 24.356 224.064 23.876C224.208 23.372 224.28 22.688 224.28 21.824V4.328C224.28 3.44 224.208 2.792 224.064 2.384C223.92 1.952 223.632 1.664 223.2 1.52C222.792 1.352 222.18 1.256 221.364 1.232V0.512C221.772 0.536 222.276 0.559999 222.876 0.583999C223.5 0.607999 224.112 0.619998 224.712 0.619998C225.24 0.619998 225.78 0.607999 226.332 0.583999C226.908 0.559999 227.388 0.536 227.772 0.512L235.944 22.04L235.332 22.328L243.432 0.619998C243.72 0.619998 243.996 0.619998 244.26 0.619998C244.548 0.619998 244.836 0.619998 245.124 0.619998C245.964 0.619998 246.792 0.607999 247.608 0.583999C248.448 0.559999 249.144 0.536 249.696 0.512ZM252.723 0.512C253.227 0.536 253.887 0.559999 254.703 0.583999C255.519 0.607999 256.323 0.619998 257.115 0.619998C258.243 0.619998 259.323 0.607999 260.355 0.583999C261.387 0.559999 262.119 0.547999 262.551 0.547999C265.455 0.547999 267.627 1.208 269.067 2.528C270.507 3.848 271.227 5.552 271.227 7.64C271.227 8.504 271.083 9.416 270.795 10.376C270.507 11.312 270.003 12.188 269.283 13.004C268.587 13.796 267.627 14.444 266.403 14.948C265.179 15.452 263.631 15.704 261.759 15.704H258.303V14.984H261.399C263.103 14.984 264.399 14.66 265.287 14.012C266.199 13.364 266.811 12.512 267.123 11.456C267.459 10.4 267.627 9.26 267.627 8.036C267.627 5.756 267.171 4.052 266.259 2.924C265.371 1.796 263.835 1.232 261.651 1.232C260.547 1.232 259.827 1.436 259.491 1.844C259.155 2.252 258.987 3.08 258.987 4.328V22.184C258.987 23.048 259.071 23.696 259.239 24.128C259.431 24.56 259.791 24.848 260.319 24.992C260.847 25.136 261.615 25.232 262.623 25.28V26C261.999 25.952 261.207 25.928 260.247 25.928C259.287 25.904 258.315 25.892 257.331 25.892C256.395 25.892 255.519 25.904 254.703 25.928C253.887 25.928 253.227 25.952 252.723 26V25.28C253.539 25.232 254.151 25.136 254.559 24.992C254.991 24.848 255.279 24.56 255.423 24.128C255.567 23.696 255.639 23.048 255.639 22.184V4.328C255.639 3.44 255.567 2.792 255.423 2.384C255.279 1.952 254.991 1.664 254.559 1.52C254.151 1.352 253.539 1.256 252.723 1.232V0.512ZM282.962 0.512V1.232C282.146 1.256 281.522 1.352 281.09 1.52C280.682 1.664 280.406 1.952 280.262 2.384C280.118 2.792 280.046 3.44 280.046 4.328V22.184C280.046 23.048 280.118 23.696 280.262 24.128C280.406 24.56 280.682 24.848 281.09 24.992C281.522 25.112 282.146 25.172 282.962 25.172H285.59C286.718 25.172 287.63 25.052 288.326 24.812C289.046 24.572 289.61 24.2 290.018 23.696C290.45 23.168 290.774 22.472 290.99 21.608C291.206 20.744 291.374 19.688 291.494 18.44H292.322C292.25 19.184 292.214 20.168 292.214 21.392C292.214 21.848 292.226 22.508 292.25 23.372C292.298 24.212 292.37 25.088 292.466 26C291.242 25.952 289.862 25.928 288.326 25.928C286.79 25.904 285.422 25.892 284.222 25.892C283.694 25.892 283.01 25.892 282.17 25.892C281.354 25.892 280.466 25.904 279.506 25.928C278.546 25.928 277.574 25.94 276.59 25.964C275.606 25.964 274.67 25.976 273.782 26V25.28C274.598 25.232 275.21 25.136 275.618 24.992C276.05 24.848 276.338 24.56 276.482 24.128C276.626 23.696 276.698 23.048 276.698 22.184V4.328C276.698 3.44 276.626 2.792 276.482 2.384C276.338 1.952 276.05 1.664 275.618 1.52C275.21 1.352 274.598 1.256 273.782 1.232V0.512C274.286 0.536 274.946 0.559999 275.762 0.583999C276.578 0.607999 277.454 0.619998 278.39 0.619998C279.23 0.619998 280.058 0.607999 280.874 0.583999C281.714 0.559999 282.41 0.536 282.962 0.512ZM312.91 0.512C312.814 1.352 312.742 2.168 312.694 2.96C312.67 3.752 312.658 4.352 312.658 4.76C312.658 5.192 312.67 5.612 312.694 6.02C312.718 6.404 312.742 6.728 312.766 6.992H311.938C311.794 5.576 311.59 4.46 311.326 3.644C311.062 2.804 310.606 2.216 309.958 1.88C309.334 1.52 308.386 1.34 307.114 1.34H304.126C303.31 1.34 302.686 1.412 302.254 1.556C301.846 1.676 301.57 1.952 301.426 2.384C301.282 2.792 301.21 3.44 301.21 4.328V22.184C301.21 23.048 301.282 23.696 301.426 24.128C301.57 24.56 301.846 24.848 302.254 24.992C302.686 25.112 303.31 25.172 304.126 25.172H306.754C308.266 25.172 309.406 24.968 310.174 24.56C310.966 24.152 311.53 23.492 311.866 22.58C312.226 21.644 312.49 20.384 312.658 18.8H313.486C313.414 19.448 313.378 20.312 313.378 21.392C313.378 21.848 313.39 22.508 313.414 23.372C313.462 24.212 313.534 25.088 313.63 26C312.406 25.952 311.026 25.928 309.49 25.928C307.954 25.904 306.586 25.892 305.386 25.892C304.858 25.892 304.174 25.892 303.334 25.892C302.518 25.892 301.63 25.904 300.67 25.928C299.71 25.928 298.738 25.94 297.754 25.964C296.77 25.964 295.834 25.976 294.946 26V25.28C295.762 25.232 296.374 25.136 296.782 24.992C297.214 24.848 297.502 24.56 297.646 24.128C297.79 23.696 297.862 23.048 297.862 22.184V4.328C297.862 3.44 297.79 2.792 297.646 2.384C297.502 1.952 297.214 1.664 296.782 1.52C296.374 1.352 295.762 1.256 294.946 1.232V0.512C295.834 0.536 296.77 0.559999 297.754 0.583999C298.738 0.583999 299.71 0.595999 300.67 0.619998C301.63 0.619998 302.518 0.619998 303.334 0.619998C304.174 0.619998 304.858 0.619998 305.386 0.619998C306.49 0.619998 307.738 0.619998 309.13 0.619998C310.546 0.595999 311.806 0.559999 312.91 0.512ZM306.718 12.824C306.718 12.824 306.718 12.944 306.718 13.184C306.718 13.424 306.718 13.544 306.718 13.544H300.13C300.13 13.544 300.13 13.424 300.13 13.184C300.13 12.944 300.13 12.824 300.13 12.824H306.718ZM307.762 8.072C307.666 9.44 307.618 10.484 307.618 11.204C307.642 11.924 307.654 12.584 307.654 13.184C307.654 13.784 307.666 14.444 307.69 15.164C307.714 15.884 307.774 16.928 307.87 18.296H307.042C306.946 17.528 306.826 16.784 306.682 16.064C306.562 15.32 306.274 14.72 305.818 14.264C305.386 13.784 304.642 13.544 303.586 13.544V12.824C304.378 12.824 304.978 12.668 305.386 12.356C305.818 12.02 306.13 11.6 306.322 11.096C306.514 10.592 306.646 10.076 306.718 9.548C306.79 8.996 306.862 8.504 306.934 8.072H307.762Z" fill="black"/>
</svg>
