<svg width="617" height="670" viewBox="0 0 617 670" fill="none" xmlns="http://www.w3.org/2000/svg">
<g filter="url(#filter0_d_139_176)">
<g filter="url(#filter1_d_139_176)">
<rect x="39" y="45.4277" width="574" height="616.573" rx="40" fill="white"/>
</g>
<path d="M39 83C39 60.9086 56.9086 43 79 43H573C595.091 43 613 60.9086 613 83V553H39V83Z"/>
<path d="M205.692 592.512V593.232C204.876 593.256 204.252 593.352 203.82 593.52C203.412 593.664 203.136 593.952 202.992 594.384C202.848 594.792 202.776 595.44 202.776 596.328V614.184C202.776 615.048 202.848 615.696 202.992 616.128C203.136 616.56 203.412 616.848 203.82 616.992C204.252 617.112 204.876 617.172 205.692 617.172H208.32C209.448 617.172 210.36 617.052 211.056 616.812C211.776 616.572 212.34 616.2 212.748 615.696C213.18 615.168 213.504 614.472 213.72 613.608C213.936 612.744 214.104 611.688 214.224 610.44H215.052C214.98 611.184 214.944 612.168 214.944 613.392C214.944 613.848 214.956 614.508 214.98 615.372C215.028 616.212 215.1 617.088 215.196 618C213.972 617.952 212.592 617.928 211.056 617.928C209.52 617.904 208.152 617.892 206.952 617.892C206.424 617.892 205.74 617.892 204.9 617.892C204.084 617.892 203.196 617.904 202.236 617.928C201.276 617.928 200.304 617.94 199.32 617.964C198.336 617.964 197.4 617.976 196.512 618V617.28C197.328 617.232 197.94 617.136 198.348 616.992C198.78 616.848 199.068 616.56 199.212 616.128C199.356 615.696 199.428 615.048 199.428 614.184V596.328C199.428 595.44 199.356 594.792 199.212 594.384C199.068 593.952 198.78 593.664 198.348 593.52C197.94 593.352 197.328 593.256 196.512 593.232V592.512C197.016 592.536 197.676 592.56 198.492 592.584C199.308 592.608 200.184 592.62 201.12 592.62C201.96 592.62 202.788 592.608 203.604 592.584C204.444 592.56 205.14 592.536 205.692 592.512ZM229.52 592.008C231.8 592.008 233.792 592.524 235.496 593.556C237.224 594.588 238.556 596.076 239.492 598.02C240.452 599.94 240.932 602.28 240.932 605.04C240.932 607.728 240.44 610.08 239.456 612.096C238.496 614.112 237.152 615.684 235.424 616.812C233.696 617.94 231.716 618.504 229.484 618.504C227.204 618.504 225.2 617.988 223.472 616.956C221.768 615.924 220.436 614.436 219.476 612.492C218.54 610.548 218.072 608.208 218.072 605.472C218.072 602.784 218.564 600.432 219.548 598.416C220.532 596.4 221.876 594.828 223.58 593.7C225.308 592.572 227.288 592.008 229.52 592.008ZM229.376 592.656C227.816 592.656 226.46 593.196 225.308 594.276C224.156 595.356 223.256 596.844 222.608 598.74C221.984 600.636 221.672 602.832 221.672 605.328C221.672 607.872 222.02 610.092 222.716 611.988C223.436 613.86 224.396 615.312 225.596 616.344C226.82 617.352 228.164 617.856 229.628 617.856C231.188 617.856 232.544 617.316 233.696 616.236C234.848 615.156 235.736 613.668 236.36 611.772C237.008 609.852 237.332 607.656 237.332 605.184C237.332 602.616 236.972 600.396 236.252 598.524C235.556 596.652 234.608 595.212 233.408 594.204C232.208 593.172 230.864 592.656 229.376 592.656ZM264.16 592.512C264.064 593.424 263.992 594.312 263.944 595.176C263.92 596.016 263.908 596.664 263.908 597.12C263.908 597.696 263.92 598.236 263.944 598.74C263.968 599.244 263.992 599.688 264.016 600.072H263.188C263.02 598.392 262.792 597.072 262.504 596.112C262.216 595.128 261.712 594.42 260.992 593.988C260.272 593.556 259.156 593.34 257.644 593.34H255.7V613.824C255.7 614.784 255.784 615.504 255.952 615.984C256.144 616.464 256.504 616.788 257.032 616.956C257.56 617.124 258.328 617.232 259.336 617.28V618C258.712 617.952 257.92 617.928 256.96 617.928C256 617.904 255.028 617.892 254.044 617.892C252.964 617.892 251.944 617.904 250.984 617.928C250.048 617.928 249.292 617.952 248.716 618V617.28C249.724 617.232 250.492 617.124 251.02 616.956C251.548 616.788 251.896 616.464 252.064 615.984C252.256 615.504 252.352 614.784 252.352 613.824V593.34H250.408C248.92 593.34 247.804 593.556 247.06 593.988C246.34 594.42 245.836 595.128 245.548 596.112C245.26 597.072 245.032 598.392 244.864 600.072H244.036C244.084 599.688 244.108 599.244 244.108 598.74C244.132 598.236 244.144 597.696 244.144 597.12C244.144 596.664 244.12 596.016 244.072 595.176C244.048 594.312 243.988 593.424 243.892 592.512C244.9 592.536 245.992 592.56 247.168 592.584C248.368 592.608 249.568 592.62 250.768 592.62C251.968 592.62 253.06 592.62 254.044 592.62C255.028 592.62 256.108 592.62 257.284 592.62C258.484 592.62 259.684 592.608 260.884 592.584C262.084 592.56 263.176 592.536 264.16 592.512ZM288.787 592.512V593.232C287.971 593.256 287.347 593.376 286.915 593.592C286.507 593.808 286.231 594.156 286.087 594.636C285.943 595.116 285.871 595.8 285.871 596.688V607.524C285.871 609.204 285.763 610.668 285.547 611.916C285.331 613.164 284.947 614.244 284.395 615.156C283.795 616.164 282.919 616.98 281.767 617.604C280.615 618.204 279.295 618.504 277.807 618.504C276.655 618.504 275.551 618.36 274.495 618.072C273.463 617.808 272.551 617.304 271.759 616.56C271.063 615.888 270.511 615.18 270.103 614.436C269.719 613.692 269.455 612.78 269.311 611.7C269.167 610.62 269.095 609.264 269.095 607.632V596.328C269.095 595.44 269.023 594.792 268.879 594.384C268.735 593.952 268.447 593.664 268.015 593.52C267.607 593.352 266.995 593.256 266.179 593.232V592.512C266.683 592.536 267.343 592.56 268.159 592.584C268.975 592.608 269.851 592.62 270.787 592.62C271.627 592.62 272.455 592.608 273.271 592.584C274.111 592.56 274.807 592.536 275.359 592.512V593.232C274.543 593.256 273.919 593.352 273.487 593.52C273.079 593.664 272.803 593.952 272.659 594.384C272.515 594.792 272.443 595.44 272.443 596.328V608.244C272.443 609.468 272.503 610.632 272.623 611.736C272.743 612.816 272.983 613.776 273.343 614.616C273.727 615.432 274.303 616.08 275.071 616.56C275.839 617.016 276.859 617.244 278.131 617.244C279.955 617.244 281.359 616.848 282.343 616.056C283.351 615.24 284.047 614.124 284.431 612.708C284.839 611.292 285.043 609.696 285.043 607.92V596.688C285.043 595.8 284.935 595.116 284.719 594.636C284.527 594.156 284.191 593.808 283.711 593.592C283.231 593.376 282.583 593.256 281.767 593.232V592.512C282.199 592.536 282.763 592.56 283.459 592.584C284.179 592.608 284.839 592.62 285.439 592.62C286.063 592.62 286.675 592.608 287.275 592.584C287.899 592.56 288.403 592.536 288.787 592.512ZM298.962 592.116C300.162 592.116 301.074 592.26 301.698 592.548C302.322 592.812 302.874 593.112 303.354 593.448C303.642 593.616 303.87 593.748 304.038 593.844C304.23 593.916 304.41 593.952 304.578 593.952C304.818 593.952 304.986 593.82 305.082 593.556C305.202 593.292 305.298 592.896 305.37 592.368H306.198C306.174 592.776 306.138 593.268 306.09 593.844C306.066 594.396 306.042 595.14 306.018 596.076C306.018 596.988 306.018 598.2 306.018 599.712H305.19C305.118 598.56 304.866 597.456 304.434 596.4C304.002 595.344 303.366 594.48 302.526 593.808C301.71 593.136 300.63 592.8 299.286 592.8C298.014 592.8 296.958 593.184 296.118 593.952C295.302 594.72 294.894 595.728 294.894 596.976C294.894 598.056 295.17 598.968 295.722 599.712C296.274 600.432 297.006 601.092 297.918 601.692C298.854 602.268 299.862 602.892 300.942 603.564C302.19 604.332 303.294 605.1 304.254 605.868C305.238 606.612 306.006 607.44 306.558 608.352C307.134 609.264 307.422 610.368 307.422 611.664C307.422 613.2 307.074 614.472 306.378 615.48C305.682 616.488 304.758 617.244 303.606 617.748C302.454 618.252 301.182 618.504 299.79 618.504C298.518 618.504 297.51 618.36 296.766 618.072C296.022 617.784 295.386 617.484 294.858 617.172C294.33 616.836 293.922 616.668 293.634 616.668C293.394 616.668 293.214 616.8 293.094 617.064C292.998 617.328 292.914 617.724 292.842 618.252H292.014C292.062 617.748 292.086 617.16 292.086 616.488C292.11 615.792 292.122 614.892 292.122 613.788C292.146 612.684 292.158 611.292 292.158 609.612H292.986C293.082 611.052 293.346 612.396 293.778 613.644C294.234 614.892 294.918 615.9 295.83 616.668C296.766 617.412 298.002 617.784 299.538 617.784C300.33 617.784 301.074 617.628 301.77 617.316C302.49 616.98 303.078 616.464 303.534 615.768C303.99 615.048 304.218 614.124 304.218 612.996C304.218 612.012 303.978 611.16 303.498 610.44C303.042 609.696 302.394 609.012 301.554 608.388C300.714 607.74 299.73 607.08 298.602 606.408C297.474 605.712 296.418 605.004 295.434 604.284C294.45 603.564 293.658 602.736 293.058 601.8C292.482 600.84 292.194 599.688 292.194 598.344C292.194 596.928 292.506 595.764 293.13 594.852C293.778 593.916 294.618 593.232 295.65 592.8C296.682 592.344 297.786 592.116 298.962 592.116ZM338.585 592.512C338.489 593.424 338.417 594.312 338.369 595.176C338.345 596.016 338.333 596.664 338.333 597.12C338.333 597.696 338.345 598.236 338.369 598.74C338.393 599.244 338.417 599.688 338.441 600.072H337.613C337.445 598.392 337.217 597.072 336.929 596.112C336.641 595.128 336.137 594.42 335.417 593.988C334.697 593.556 333.581 593.34 332.069 593.34H330.125V613.824C330.125 614.784 330.209 615.504 330.377 615.984C330.569 616.464 330.929 616.788 331.457 616.956C331.985 617.124 332.753 617.232 333.761 617.28V618C333.137 617.952 332.345 617.928 331.385 617.928C330.425 617.904 329.453 617.892 328.469 617.892C327.389 617.892 326.369 617.904 325.409 617.928C324.473 617.928 323.717 617.952 323.141 618V617.28C324.149 617.232 324.917 617.124 325.445 616.956C325.973 616.788 326.321 616.464 326.489 615.984C326.681 615.504 326.777 614.784 326.777 613.824V593.34H324.833C323.345 593.34 322.229 593.556 321.485 593.988C320.765 594.42 320.261 595.128 319.973 596.112C319.685 597.072 319.457 598.392 319.289 600.072H318.461C318.509 599.688 318.533 599.244 318.533 598.74C318.557 598.236 318.569 597.696 318.569 597.12C318.569 596.664 318.545 596.016 318.497 595.176C318.473 594.312 318.413 593.424 318.317 592.512C319.325 592.536 320.417 592.56 321.593 592.584C322.793 592.608 323.993 592.62 325.193 592.62C326.393 592.62 327.485 592.62 328.469 592.62C329.453 592.62 330.533 592.62 331.709 592.62C332.909 592.62 334.109 592.608 335.309 592.584C336.509 592.56 337.601 592.536 338.585 592.512ZM352.989 592.008C355.269 592.008 357.261 592.524 358.965 593.556C360.693 594.588 362.025 596.076 362.961 598.02C363.921 599.94 364.401 602.28 364.401 605.04C364.401 607.728 363.909 610.08 362.925 612.096C361.965 614.112 360.621 615.684 358.893 616.812C357.165 617.94 355.185 618.504 352.953 618.504C350.673 618.504 348.669 617.988 346.941 616.956C345.237 615.924 343.905 614.436 342.945 612.492C342.009 610.548 341.541 608.208 341.541 605.472C341.541 602.784 342.033 600.432 343.017 598.416C344.001 596.4 345.345 594.828 347.049 593.7C348.777 592.572 350.757 592.008 352.989 592.008ZM352.845 592.656C351.285 592.656 349.929 593.196 348.777 594.276C347.625 595.356 346.725 596.844 346.077 598.74C345.453 600.636 345.141 602.832 345.141 605.328C345.141 607.872 345.489 610.092 346.185 611.988C346.905 613.86 347.865 615.312 349.065 616.344C350.289 617.352 351.633 617.856 353.097 617.856C354.657 617.856 356.013 617.316 357.165 616.236C358.317 615.156 359.205 613.668 359.829 611.772C360.477 609.852 360.801 607.656 360.801 605.184C360.801 602.616 360.441 600.396 359.721 598.524C359.025 596.652 358.077 595.212 356.877 594.204C355.677 593.172 354.333 592.656 352.845 592.656ZM398.582 592.512V593.232C398.126 593.328 397.622 593.604 397.07 594.06C396.518 594.492 396.074 595.26 395.738 596.364L388.934 618.18C388.886 618.18 388.838 618.18 388.79 618.18C388.742 618.18 388.694 618.18 388.646 618.18C388.598 618.18 388.55 618.18 388.502 618.18C388.454 618.18 388.406 618.18 388.358 618.18L380.726 595.536C380.414 594.6 380.066 593.988 379.682 593.7C379.298 593.412 378.938 593.256 378.602 593.232V592.512C379.034 592.536 379.574 592.56 380.222 592.584C380.87 592.608 381.494 592.62 382.094 592.62C383.03 592.62 383.906 592.608 384.722 592.584C385.538 592.56 386.198 592.536 386.702 592.512V593.232C385.982 593.256 385.406 593.328 384.974 593.448C384.566 593.568 384.326 593.832 384.254 594.24C384.206 594.648 384.326 595.32 384.614 596.256L389.978 612.852L389.474 613.284L394.226 598.344C394.658 597.024 394.85 596.004 394.802 595.284C394.778 594.54 394.514 594.024 394.01 593.736C393.506 593.424 392.75 593.256 391.742 593.232V592.512C392.438 592.536 393.146 592.56 393.866 592.584C394.586 592.608 395.258 592.62 395.882 592.62C396.506 592.62 397.022 592.608 397.43 592.584C397.838 592.56 398.222 592.536 398.582 592.512ZM373.418 592.512V593.232C372.794 593.28 372.338 593.4 372.05 593.592C371.786 593.784 371.654 594.096 371.654 594.528C371.678 594.936 371.81 595.512 372.05 596.256L377.63 613.284L376.73 614.184L381.77 598.092L382.31 598.956L376.37 618.18C376.322 618.18 376.274 618.18 376.226 618.18C376.178 618.18 376.13 618.18 376.082 618.18C376.034 618.18 375.986 618.18 375.938 618.18C375.89 618.18 375.842 618.18 375.794 618.18L368.162 595.536C367.85 594.6 367.454 593.988 366.974 593.7C366.494 593.412 366.062 593.256 365.678 593.232V592.512C366.158 592.536 366.746 592.56 367.442 592.584C368.162 592.608 368.858 592.62 369.53 592.62C370.322 592.62 371.054 592.608 371.726 592.584C372.422 592.56 372.986 592.536 373.418 592.512ZM417.996 592.512C417.9 593.352 417.828 594.168 417.78 594.96C417.756 595.752 417.744 596.352 417.744 596.76C417.744 597.192 417.756 597.612 417.78 598.02C417.804 598.404 417.828 598.728 417.852 598.992H417.024C416.88 597.576 416.676 596.46 416.412 595.644C416.148 594.804 415.692 594.216 415.044 593.88C414.42 593.52 413.472 593.34 412.2 593.34H409.212C408.396 593.34 407.772 593.412 407.34 593.556C406.932 593.676 406.656 593.952 406.512 594.384C406.368 594.792 406.296 595.44 406.296 596.328V614.184C406.296 615.048 406.368 615.696 406.512 616.128C406.656 616.56 406.932 616.848 407.34 616.992C407.772 617.112 408.396 617.172 409.212 617.172H411.84C413.352 617.172 414.492 616.968 415.26 616.56C416.052 616.152 416.616 615.492 416.952 614.58C417.312 613.644 417.576 612.384 417.744 610.8H418.572C418.5 611.448 418.464 612.312 418.464 613.392C418.464 613.848 418.476 614.508 418.5 615.372C418.548 616.212 418.62 617.088 418.716 618C417.492 617.952 416.112 617.928 414.576 617.928C413.04 617.904 411.672 617.892 410.472 617.892C409.944 617.892 409.26 617.892 408.42 617.892C407.604 617.892 406.716 617.904 405.756 617.928C404.796 617.928 403.824 617.94 402.84 617.964C401.856 617.964 400.92 617.976 400.032 618V617.28C400.848 617.232 401.46 617.136 401.868 616.992C402.3 616.848 402.588 616.56 402.732 616.128C402.876 615.696 402.948 615.048 402.948 614.184V596.328C402.948 595.44 402.876 594.792 402.732 594.384C402.588 593.952 402.3 593.664 401.868 593.52C401.46 593.352 400.848 593.256 400.032 593.232V592.512C400.92 592.536 401.856 592.56 402.84 592.584C403.824 592.584 404.796 592.596 405.756 592.62C406.716 592.62 407.604 592.62 408.42 592.62C409.26 592.62 409.944 592.62 410.472 592.62C411.576 592.62 412.824 592.62 414.216 592.62C415.632 592.596 416.892 592.56 417.996 592.512ZM411.804 604.824C411.804 604.824 411.804 604.944 411.804 605.184C411.804 605.424 411.804 605.544 411.804 605.544H405.216C405.216 605.544 405.216 605.424 405.216 605.184C405.216 604.944 405.216 604.824 405.216 604.824H411.804ZM412.848 600.072C412.752 601.44 412.704 602.484 412.704 603.204C412.728 603.924 412.74 604.584 412.74 605.184C412.74 605.784 412.752 606.444 412.776 607.164C412.8 607.884 412.86 608.928 412.956 610.296H412.128C412.032 609.528 411.912 608.784 411.768 608.064C411.648 607.32 411.36 606.72 410.904 606.264C410.472 605.784 409.728 605.544 408.672 605.544V604.824C409.464 604.824 410.064 604.668 410.472 604.356C410.904 604.02 411.216 603.6 411.408 603.096C411.6 602.592 411.732 602.076 411.804 601.548C411.876 600.996 411.948 600.504 412.02 600.072H412.848ZM421.969 592.512C422.473 592.536 423.133 592.56 423.949 592.584C424.765 592.608 425.569 592.62 426.361 592.62C427.489 592.62 428.569 592.608 429.601 592.584C430.633 592.56 431.365 592.548 431.797 592.548C433.741 592.548 435.349 592.824 436.621 593.376C437.917 593.928 438.877 594.684 439.501 595.644C440.149 596.58 440.473 597.636 440.473 598.812C440.473 599.532 440.329 600.3 440.041 601.116C439.753 601.932 439.249 602.7 438.529 603.42C437.833 604.14 436.873 604.74 435.649 605.22C434.425 605.676 432.877 605.904 431.005 605.904H427.549V605.184H430.645C432.349 605.184 433.645 604.92 434.533 604.392C435.445 603.84 436.057 603.12 436.369 602.232C436.705 601.32 436.873 600.312 436.873 599.208C436.873 597.312 436.417 595.848 435.505 594.816C434.617 593.76 433.081 593.232 430.897 593.232C429.793 593.232 429.073 593.436 428.737 593.844C428.401 594.252 428.233 595.08 428.233 596.328V614.184C428.233 615.048 428.305 615.696 428.449 616.128C428.593 616.56 428.869 616.848 429.277 616.992C429.709 617.136 430.333 617.232 431.149 617.28V618C430.597 617.952 429.901 617.928 429.061 617.928C428.245 617.904 427.417 617.892 426.577 617.892C425.641 617.892 424.765 617.904 423.949 617.928C423.133 617.928 422.473 617.952 421.969 618V617.28C422.785 617.232 423.397 617.136 423.805 616.992C424.237 616.848 424.525 616.56 424.669 616.128C424.813 615.696 424.885 615.048 424.885 614.184V596.328C424.885 595.44 424.813 594.792 424.669 594.384C424.525 593.952 424.237 593.664 423.805 593.52C423.397 593.352 422.785 593.256 421.969 593.232V592.512ZM427.693 605.292C428.989 605.34 430.009 605.4 430.753 605.472C431.497 605.52 432.097 605.568 432.553 605.616C433.033 605.664 433.489 605.724 433.921 605.796C435.529 606.06 436.681 606.552 437.377 607.272C438.097 607.968 438.625 609.06 438.961 610.548L439.861 614.22C440.101 615.276 440.341 616.044 440.581 616.524C440.845 616.98 441.241 617.196 441.769 617.172C442.177 617.148 442.513 617.016 442.777 616.776C443.065 616.536 443.365 616.212 443.677 615.804L444.217 616.2C443.713 616.944 443.185 617.52 442.633 617.928C442.105 618.312 441.349 618.504 440.365 618.504C439.477 618.504 438.697 618.24 438.025 617.712C437.353 617.184 436.849 616.152 436.513 614.616L435.721 611.016C435.505 609.984 435.253 609.096 434.965 608.352C434.701 607.584 434.317 606.984 433.813 606.552C433.333 606.12 432.613 605.904 431.653 605.904H427.765L427.693 605.292Z" fill="black"/>
</g>
<defs>
<filter id="filter0_d_139_176" x="0.5" y="0.5" width="612.5" height="661.5" filterUnits="userSpaceOnUse" color-interpolation-filters="sRGB">
<feFlood flood-opacity="0" result="BackgroundImageFix"/>
<feColorMatrix in="SourceAlpha" type="matrix" values="0 0 0 0 0 0 0 0 0 0 0 0 0 0 0 0 0 0 127 0" result="hardAlpha"/>
<feOffset dx="-33" dy="-37"/>
<feGaussianBlur stdDeviation="2.75"/>
<feComposite in2="hardAlpha" operator="out"/>
<feColorMatrix type="matrix" values="0 0 0 0 0 0 0 0 0 0 0 0 0 0 0 0 0 0 0.1 0"/>
<feBlend mode="normal" in2="BackgroundImageFix" result="effect1_dropShadow_139_176"/>
<feBlend mode="normal" in="SourceGraphic" in2="effect1_dropShadow_139_176" result="shape"/>
</filter>
<filter id="filter1_d_139_176" x="35" y="45.4277" width="582" height="624.572" filterUnits="userSpaceOnUse" color-interpolation-filters="sRGB">
<feFlood flood-opacity="0" result="BackgroundImageFix"/>
<feColorMatrix in="SourceAlpha" type="matrix" values="0 0 0 0 0 0 0 0 0 0 0 0 0 0 0 0 0 0 127 0" result="hardAlpha"/>
<feOffset dy="4"/>
<feGaussianBlur stdDeviation="2"/>
<feComposite in2="hardAlpha" operator="out"/>
<feColorMatrix type="matrix" values="0 0 0 0 0 0 0 0 0 0 0 0 0 0 0 0 0 0 0.25 0"/>
<feBlend mode="normal" in2="BackgroundImageFix" result="effect1_dropShadow_139_176"/>
<feBlend mode="normal" in="SourceGraphic" in2="effect1_dropShadow_139_176" result="shape"/>
</filter>
</defs>
</svg>
