<svg width="265" height="156" viewBox="0 0 265 156" fill="none" xmlns="http://www.w3.org/2000/svg">
<g filter="url(#filter0_d_156_400)">
<path d="M116.67 3.4C116.136 8.46666 115.736 13.4 115.47 18.2C115.336 22.8667 115.27 26.4667 115.27 29C115.27 32.2 115.336 35.2 115.47 38C115.603 40.8 115.736 43.2667 115.87 45.4H111.27C110.336 36.0667 109.07 28.7333 107.47 23.4C105.87 17.9333 103.07 14 99.0695 11.6C95.0695 9.19999 88.8695 7.99999 80.4695 7.99999H69.6695V121.8C69.6695 127.133 70.1362 131.133 71.0695 133.8C72.1362 136.467 74.1362 138.267 77.0695 139.2C80.0029 140.133 84.2695 140.733 89.8695 141V145C86.4029 144.733 82.0029 144.6 76.6695 144.6C71.3362 144.467 65.9362 144.4 60.4695 144.4C54.4695 144.4 48.8029 144.467 43.4695 144.6C38.2695 144.6 34.0695 144.733 30.8695 145V141C36.4695 140.733 40.7362 140.133 43.6695 139.2C46.6029 138.267 48.5362 136.467 49.4695 133.8C50.5362 131.133 51.0695 127.133 51.0695 121.8V7.99999H40.2695C32.0029 7.99999 25.8029 9.19999 21.6695 11.6C17.6695 14 14.8695 17.9333 13.2695 23.4C11.6695 28.7333 10.4029 36.0667 9.46953 45.4H4.86953C5.1362 43.2667 5.26953 40.8 5.26953 38C5.40286 35.2 5.46953 32.2 5.46953 29C5.46953 26.4667 5.3362 22.8667 5.06953 18.2C4.9362 13.4 4.60286 8.46666 4.06953 3.4C9.66953 3.53333 15.7362 3.66666 22.2695 3.79999C28.9362 3.93333 35.6029 3.99999 42.2695 3.99999C48.9362 3.99999 55.0029 3.99999 60.4695 3.99999C65.9362 3.99999 71.9362 3.99999 78.4695 3.99999C85.1362 3.99999 91.8029 3.93333 98.4695 3.79999C105.136 3.66666 111.203 3.53333 116.67 3.4ZM196.688 0.599988C209.355 0.599988 220.422 3.46666 229.888 9.2C239.488 14.9333 246.888 23.2 252.088 34C257.422 44.6667 260.088 57.6667 260.088 73C260.088 87.9333 257.355 101 251.888 112.2C246.555 123.4 239.088 132.133 229.488 138.4C219.888 144.667 208.888 147.8 196.488 147.8C183.822 147.8 172.688 144.933 163.088 139.2C153.622 133.467 146.222 125.2 140.888 114.4C135.688 103.6 133.088 90.6 133.088 75.4C133.088 60.4667 135.822 47.4 141.288 36.2C146.755 25 154.222 16.2667 163.688 10C173.288 3.73332 184.288 0.599988 196.688 0.599988ZM195.888 4.19999C187.222 4.19999 179.688 7.19999 173.288 13.2C166.888 19.2 161.888 27.4667 158.288 38C154.822 48.5333 153.088 60.7333 153.088 74.6C153.088 88.7333 155.022 101.067 158.888 111.6C162.888 122 168.222 130.067 174.888 135.8C181.688 141.4 189.155 144.2 197.288 144.2C205.955 144.2 213.488 141.2 219.888 135.2C226.288 129.2 231.222 120.933 234.688 110.4C238.288 99.7333 240.088 87.5333 240.088 73.8C240.088 59.5333 238.088 47.2 234.088 36.8C230.222 26.4 224.955 18.4 218.288 12.8C211.622 7.06666 204.155 4.19999 195.888 4.19999Z" fill="white"/>
</g>
<defs>
<filter id="filter0_d_156_400" x="0.0695801" y="0.599609" width="264.019" height="155.2" filterUnits="userSpaceOnUse" color-interpolation-filters="sRGB">
<feFlood flood-opacity="0" result="BackgroundImageFix"/>
<feColorMatrix in="SourceAlpha" type="matrix" values="0 0 0 0 0 0 0 0 0 0 0 0 0 0 0 0 0 0 127 0" result="hardAlpha"/>
<feOffset dy="4"/>
<feGaussianBlur stdDeviation="2"/>
<feComposite in2="hardAlpha" operator="out"/>
<feColorMatrix type="matrix" values="0 0 0 0 0 0 0 0 0 0 0 0 0 0 0 0 0 0 0.6 0"/>
<feBlend mode="normal" in2="BackgroundImageFix" result="effect1_dropShadow_156_400"/>
<feBlend mode="normal" in="SourceGraphic" in2="effect1_dropShadow_156_400" result="shape"/>
</filter>
</defs>
</svg>
