<svg width="658" height="117" viewBox="0 0 658 117" fill="none" xmlns="http://www.w3.org/2000/svg">
<g filter="url(#filter0_d_156_399)">
<path d="M133.284 7.376V9.936C131.662 10.2773 129.87 11.2587 127.908 12.88C125.945 14.416 124.366 17.1467 123.172 21.072L98.9795 98.64C98.8088 98.64 98.6382 98.64 98.4675 98.64C98.2968 98.64 98.1262 98.64 97.9555 98.64C97.7848 98.64 97.6142 98.64 97.4435 98.64C97.2728 98.64 97.1022 98.64 96.9315 98.64L69.7955 18.128C68.6862 14.8 67.4488 12.624 66.0835 11.6C64.7182 10.576 63.4382 10.0213 62.2435 9.936V7.376C63.7795 7.46133 65.6995 7.54666 68.0035 7.632C70.3075 7.71733 72.5262 7.75999 74.6595 7.75999C77.9875 7.75999 81.1022 7.71733 84.0035 7.632C86.9048 7.54666 89.2515 7.46133 91.0435 7.376V9.936C88.4835 10.0213 86.4355 10.2773 84.8995 10.704C83.4488 11.1307 82.5955 12.0693 82.3395 13.52C82.1688 14.9707 82.5955 17.36 83.6195 20.688L102.692 79.696L100.9 81.232L117.796 28.112C119.332 23.4187 120.014 19.792 119.844 17.232C119.758 14.5867 118.82 12.752 117.028 11.728C115.236 10.6187 112.548 10.0213 108.964 9.936V7.376C111.438 7.46133 113.956 7.54666 116.516 7.632C119.076 7.71733 121.465 7.75999 123.684 7.75999C125.902 7.75999 127.737 7.71733 129.188 7.632C130.638 7.54666 132.004 7.46133 133.284 7.376ZM43.8115 7.376V9.936C41.5928 10.1067 39.9715 10.5333 38.9475 11.216C38.0088 11.8987 37.5395 13.008 37.5395 14.544C37.6248 15.9947 38.0942 18.0427 38.9475 20.688L58.7875 81.232L55.5875 84.432L73.5075 27.216L75.4275 30.288L54.3075 98.64C54.1368 98.64 53.9662 98.64 53.7955 98.64C53.6248 98.64 53.4542 98.64 53.2835 98.64C53.1128 98.64 52.9422 98.64 52.7715 98.64C52.6008 98.64 52.4302 98.64 52.2595 98.64L25.1235 18.128C24.0142 14.8 22.6062 12.624 20.8995 11.6C19.1928 10.576 17.6568 10.0213 16.2915 9.936V7.376C17.9982 7.46133 20.0888 7.54666 22.5635 7.632C25.1235 7.71733 27.5982 7.75999 29.9875 7.75999C32.8035 7.75999 35.4062 7.71733 37.7955 7.632C40.2702 7.54666 42.2755 7.46133 43.8115 7.376ZM202.311 7.376C201.969 10.3627 201.713 13.264 201.543 16.08C201.457 18.896 201.415 21.0293 201.415 22.48C201.415 24.016 201.457 25.5093 201.543 26.96C201.628 28.3253 201.713 29.4773 201.799 30.416H198.854C198.343 25.3813 197.617 21.4133 196.679 18.512C195.74 15.5253 194.119 13.4347 191.815 12.24C189.596 10.96 186.225 10.32 181.703 10.32H171.079C168.177 10.32 165.959 10.576 164.423 11.088C162.972 11.5147 161.991 12.496 161.479 14.032C160.967 15.4827 160.711 17.7867 160.711 20.944V84.432C160.711 87.504 160.967 89.808 161.479 91.344C161.991 92.88 162.972 93.904 164.423 94.416C165.959 94.8427 168.177 95.056 171.079 95.056H180.423C185.799 95.056 189.852 94.3307 192.583 92.88C195.399 91.4293 197.404 89.0827 198.599 85.84C199.879 82.512 200.817 78.032 201.415 72.4H204.359C204.103 74.704 203.975 77.776 203.975 81.616C203.975 83.2373 204.017 85.584 204.103 88.656C204.273 91.6427 204.529 94.7573 204.871 98C200.519 97.8293 195.612 97.744 190.151 97.744C184.689 97.6587 179.825 97.616 175.559 97.616C173.681 97.616 171.249 97.616 168.263 97.616C165.361 97.616 162.204 97.6587 158.791 97.744C155.377 97.744 151.921 97.7867 148.423 97.872C144.924 97.872 141.596 97.9147 138.439 98V95.44C141.34 95.2693 143.516 94.928 144.967 94.416C146.503 93.904 147.527 92.88 148.039 91.344C148.551 89.808 148.807 87.504 148.807 84.432V20.944C148.807 17.7867 148.551 15.4827 148.039 14.032C147.527 12.496 146.503 11.472 144.967 10.96C143.516 10.3627 141.34 10.0213 138.439 9.936V7.376C141.596 7.46133 144.924 7.54666 148.423 7.632C151.921 7.632 155.377 7.67466 158.791 7.75999C162.204 7.75999 165.361 7.75999 168.263 7.75999C171.249 7.75999 173.681 7.75999 175.559 7.75999C179.484 7.75999 183.921 7.75999 188.871 7.75999C193.905 7.67466 198.385 7.54666 202.311 7.376ZM180.295 51.152C180.295 51.152 180.295 51.5787 180.295 52.432C180.295 53.2853 180.295 53.712 180.295 53.712H156.871C156.871 53.712 156.871 53.2853 156.871 52.432C156.871 51.5787 156.871 51.152 156.871 51.152H180.295ZM184.007 34.256C183.665 39.12 183.495 42.832 183.495 45.392C183.58 47.952 183.623 50.2987 183.623 52.432C183.623 54.5653 183.665 56.912 183.751 59.472C183.836 62.032 184.049 65.744 184.391 70.608H181.447C181.105 67.8773 180.679 65.232 180.167 62.672C179.74 60.0267 178.716 57.8933 177.095 56.272C175.559 54.5653 172.913 53.712 169.159 53.712V51.152C171.975 51.152 174.108 50.5973 175.559 49.488C177.095 48.2933 178.204 46.8 178.887 45.008C179.569 43.216 180.039 41.3813 180.295 39.504C180.551 37.5413 180.807 35.792 181.063 34.256H184.007ZM249.079 7.376V9.936C246.177 10.0213 243.959 10.3627 242.423 10.96C240.972 11.472 239.991 12.496 239.479 14.032C238.967 15.4827 238.711 17.7867 238.711 20.944V84.432C238.711 87.504 238.967 89.808 239.479 91.344C239.991 92.88 240.972 93.904 242.423 94.416C243.959 94.8427 246.177 95.056 249.079 95.056H258.423C262.433 95.056 265.676 94.6293 268.151 93.776C270.711 92.9227 272.716 91.6 274.167 89.808C275.703 87.9307 276.855 85.456 277.623 82.384C278.391 79.312 278.988 75.5573 279.415 71.12H282.359C282.103 73.7653 281.975 77.264 281.975 81.616C281.975 83.2373 282.017 85.584 282.103 88.656C282.273 91.6427 282.529 94.7573 282.871 98C278.519 97.8293 273.612 97.744 268.151 97.744C262.689 97.6587 257.825 97.616 253.559 97.616C251.681 97.616 249.249 97.616 246.263 97.616C243.361 97.616 240.204 97.6587 236.791 97.744C233.377 97.744 229.921 97.7867 226.423 97.872C222.924 97.872 219.596 97.9147 216.439 98V95.44C219.34 95.2693 221.516 94.928 222.967 94.416C224.503 93.904 225.527 92.88 226.039 91.344C226.551 89.808 226.807 87.504 226.807 84.432V20.944C226.807 17.7867 226.551 15.4827 226.039 14.032C225.527 12.496 224.503 11.472 222.967 10.96C221.516 10.3627 219.34 10.0213 216.439 9.936V7.376C218.231 7.46133 220.577 7.54666 223.479 7.632C226.38 7.71733 229.495 7.75999 232.823 7.75999C235.809 7.75999 238.753 7.71733 241.655 7.632C244.641 7.54666 247.116 7.46133 249.079 7.376ZM333.801 5.58399C339.433 5.58399 344.041 6.43733 347.625 8.144C351.294 9.76533 354.537 11.6853 357.353 13.904C359.059 15.184 360.339 15.3547 361.193 14.416C362.131 13.392 362.771 11.0453 363.113 7.376H366.057C365.886 10.5333 365.758 14.3733 365.673 18.896C365.587 23.4187 365.545 29.392 365.545 36.816H362.601C362.003 33.1467 361.449 30.2453 360.937 28.112C360.425 25.8933 359.785 24.016 359.017 22.48C358.334 20.944 357.395 19.408 356.201 17.872C353.555 14.3733 350.227 11.856 346.217 10.32C342.206 8.69866 337.982 7.88799 333.545 7.88799C329.363 7.88799 325.566 8.95466 322.153 11.088C318.825 13.136 315.923 16.1227 313.449 20.048C311.059 23.9733 309.182 28.7093 307.817 34.256C306.537 39.8027 305.897 46.032 305.897 52.944C305.897 60.112 306.622 66.4693 308.073 72.016C309.523 77.4773 311.529 82.0853 314.089 85.84C316.734 89.5947 319.806 92.4533 323.305 94.416C326.889 96.2933 330.729 97.232 334.825 97.232C338.665 97.232 342.675 96.464 346.857 94.928C351.038 93.392 354.323 90.9173 356.713 87.504C358.59 85.0293 359.87 82.3413 360.553 79.44C361.321 76.5387 362.003 72.4853 362.601 67.28H365.545C365.545 75.0453 365.587 81.3173 365.673 86.096C365.758 90.7893 365.886 94.7573 366.057 98H363.113C362.771 94.3307 362.174 92.0267 361.321 91.088C360.553 90.1493 359.23 90.2773 357.353 91.472C354.195 93.6907 350.825 95.6533 347.241 97.36C343.742 98.9813 339.219 99.792 333.673 99.792C325.566 99.792 318.441 97.9573 312.297 94.288C306.238 90.6187 301.502 85.328 298.089 78.416C294.761 71.504 293.097 63.184 293.097 53.456C293.097 43.8987 294.846 35.536 298.345 28.368C301.843 21.2 306.622 15.6107 312.681 11.6C318.825 7.58933 325.865 5.58399 333.801 5.58399ZM421.926 5.58399C430.032 5.58399 437.115 7.41866 443.174 11.088C449.318 14.7573 454.054 20.048 457.382 26.96C460.795 33.7867 462.502 42.1067 462.502 51.92C462.502 61.4773 460.752 69.84 457.254 77.008C453.84 84.176 449.062 89.7653 442.918 93.776C436.774 97.7867 429.734 99.792 421.798 99.792C413.691 99.792 406.566 97.9573 400.422 94.288C394.363 90.6187 389.627 85.328 386.214 78.416C382.886 71.504 381.222 63.184 381.222 53.456C381.222 43.8987 382.971 35.536 386.47 28.368C389.968 21.2 394.747 15.6107 400.806 11.6C406.95 7.58933 413.99 5.58399 421.926 5.58399ZM421.414 7.88799C415.867 7.88799 411.046 9.80799 406.95 13.648C402.854 17.488 399.654 22.7787 397.35 29.52C395.131 36.2613 394.022 44.0693 394.022 52.944C394.022 61.9893 395.259 69.8827 397.734 76.624C400.294 83.28 403.707 88.4427 407.974 92.112C412.326 95.696 417.104 97.488 422.31 97.488C427.856 97.488 432.678 95.568 436.774 91.728C440.87 87.888 444.027 82.5973 446.246 75.856C448.55 69.0293 449.701 61.2213 449.701 52.432C449.701 43.3013 448.422 35.408 445.862 28.752C443.387 22.096 440.016 16.976 435.75 13.392C431.483 9.72266 426.704 7.88799 421.414 7.88799ZM574.425 7.376V9.936C571.523 10.0213 569.305 10.3627 567.769 10.96C566.318 11.472 565.337 12.496 564.825 14.032C564.313 15.4827 564.057 17.7867 564.057 20.944V84.432C564.057 87.504 564.313 89.808 564.825 91.344C565.337 92.88 566.318 93.904 567.769 94.416C569.305 94.928 571.523 95.2693 574.425 95.44V98C572.462 97.8293 569.987 97.744 567.001 97.744C564.099 97.6587 561.155 97.616 558.169 97.616C554.841 97.616 551.726 97.6587 548.825 97.744C545.923 97.744 543.577 97.8293 541.785 98V95.44C544.686 95.2693 546.862 94.928 548.312 94.416C549.849 93.904 550.873 92.88 551.385 91.344C551.897 89.808 552.153 87.504 552.153 84.432V14.032L552.665 14.416L521.305 98.64H519.257L487.001 15.568V83.152C487.001 86.224 487.257 88.656 487.769 90.448C488.366 92.1547 489.475 93.392 491.097 94.16C492.803 94.8427 495.321 95.2693 498.649 95.44V98C497.113 97.8293 495.107 97.744 492.633 97.744C490.158 97.6587 487.811 97.616 485.593 97.616C483.459 97.616 481.283 97.6587 479.065 97.744C476.931 97.744 475.139 97.8293 473.689 98V95.44C476.59 95.2693 478.766 94.8427 480.217 94.16C481.753 93.392 482.777 92.1547 483.289 90.448C483.801 88.656 484.057 86.224 484.057 83.152V20.944C484.057 17.7867 483.801 15.4827 483.289 14.032C482.777 12.496 481.753 11.472 480.217 10.96C478.766 10.3627 476.59 10.0213 473.689 9.936V7.376C475.139 7.46133 476.931 7.54666 479.065 7.632C481.283 7.71733 483.459 7.75999 485.593 7.75999C487.47 7.75999 489.39 7.71733 491.353 7.632C493.401 7.54666 495.107 7.46133 496.473 7.376L525.529 83.92L523.353 84.944L552.153 7.75999C553.177 7.75999 554.158 7.75999 555.097 7.75999C556.121 7.75999 557.145 7.75999 558.169 7.75999C561.155 7.75999 564.099 7.71733 567.001 7.632C569.987 7.54666 572.462 7.46133 574.425 7.376ZM649.061 7.376C648.719 10.3627 648.463 13.264 648.293 16.08C648.207 18.896 648.165 21.0293 648.165 22.48C648.165 24.016 648.207 25.5093 648.293 26.96C648.378 28.3253 648.463 29.4773 648.549 30.416H645.604C645.093 25.3813 644.367 21.4133 643.429 18.512C642.49 15.5253 640.869 13.4347 638.565 12.24C636.346 10.96 632.975 10.32 628.453 10.32H617.829C614.927 10.32 612.709 10.576 611.173 11.088C609.722 11.5147 608.741 12.496 608.229 14.032C607.717 15.4827 607.461 17.7867 607.461 20.944V84.432C607.461 87.504 607.717 89.808 608.229 91.344C608.741 92.88 609.722 93.904 611.173 94.416C612.709 94.8427 614.927 95.056 617.829 95.056H627.173C632.549 95.056 636.602 94.3307 639.333 92.88C642.149 91.4293 644.154 89.0827 645.349 85.84C646.629 82.512 647.567 78.032 648.165 72.4H651.109C650.853 74.704 650.725 77.776 650.725 81.616C650.725 83.2373 650.767 85.584 650.853 88.656C651.023 91.6427 651.279 94.7573 651.621 98C647.269 97.8293 642.362 97.744 636.901 97.744C631.439 97.6587 626.575 97.616 622.309 97.616C620.431 97.616 617.999 97.616 615.013 97.616C612.111 97.616 608.954 97.6587 605.541 97.744C602.127 97.744 598.671 97.7867 595.173 97.872C591.674 97.872 588.346 97.9147 585.189 98V95.44C588.09 95.2693 590.266 94.928 591.717 94.416C593.253 93.904 594.277 92.88 594.789 91.344C595.301 89.808 595.557 87.504 595.557 84.432V20.944C595.557 17.7867 595.301 15.4827 594.789 14.032C594.277 12.496 593.253 11.472 591.717 10.96C590.266 10.3627 588.09 10.0213 585.189 9.936V7.376C588.346 7.46133 591.674 7.54666 595.173 7.632C598.671 7.632 602.127 7.67466 605.541 7.75999C608.954 7.75999 612.111 7.75999 615.013 7.75999C617.999 7.75999 620.431 7.75999 622.309 7.75999C626.234 7.75999 630.671 7.75999 635.621 7.75999C640.655 7.67466 645.135 7.54666 649.061 7.376ZM627.045 51.152C627.045 51.152 627.045 51.5787 627.045 52.432C627.045 53.2853 627.045 53.712 627.045 53.712H603.621C603.621 53.712 603.621 53.2853 603.621 52.432C603.621 51.5787 603.621 51.152 603.621 51.152H627.045ZM630.757 34.256C630.415 39.12 630.245 42.832 630.245 45.392C630.33 47.952 630.373 50.2987 630.373 52.432C630.373 54.5653 630.415 56.912 630.501 59.472C630.586 62.032 630.799 65.744 631.141 70.608H628.197C627.855 67.8773 627.429 65.232 626.917 62.672C626.49 60.0267 625.466 57.8933 623.845 56.272C622.309 54.5653 619.663 53.712 615.909 53.712V51.152C618.725 51.152 620.858 50.5973 622.309 49.488C623.845 48.2933 624.954 46.8 625.637 45.008C626.319 43.216 626.789 41.3813 627.045 39.504C627.301 37.5413 627.557 35.792 627.813 34.256H630.757Z" fill="white"/>
</g>
<defs>
<filter id="filter0_d_156_399" x="0.591504" y="0.883985" width="656.729" height="115.608" filterUnits="userSpaceOnUse" color-interpolation-filters="sRGB">
<feFlood flood-opacity="0" result="BackgroundImageFix"/>
<feColorMatrix in="SourceAlpha" type="matrix" values="0 0 0 0 0 0 0 0 0 0 0 0 0 0 0 0 0 0 127 0" result="hardAlpha"/>
<feOffset dx="-5" dy="6"/>
<feGaussianBlur stdDeviation="5.35"/>
<feComposite in2="hardAlpha" operator="out"/>
<feColorMatrix type="matrix" values="0 0 0 0 0 0 0 0 0 0 0 0 0 0 0 0 0 0 0.6 0"/>
<feBlend mode="normal" in2="BackgroundImageFix" result="effect1_dropShadow_156_399"/>
<feBlend mode="normal" in="SourceGraphic" in2="effect1_dropShadow_156_399" result="shape"/>
</filter>
</defs>
</svg>
