<svg width="200" height="56" viewBox="0 0 200 56" fill="none" xmlns="http://www.w3.org/2000/svg">
<g filter="url(#filter0_d_221_133)">
<path d="M22.0975 1.688C29.7348 1.688 35.4095 3.608 39.1215 7.448C42.8335 11.2453 44.6895 16.7067 44.6895 23.832C44.6895 28.4827 43.7722 32.5573 41.9375 36.056C40.1455 39.512 37.5215 42.2 34.0655 44.12C30.6095 46.04 26.4282 47 21.5215 47C20.8815 47 20.0282 46.9787 18.9615 46.936C17.8948 46.8933 16.7855 46.872 15.6335 46.872C14.5242 46.8293 13.5002 46.808 12.5615 46.808C11.0682 46.808 9.59617 46.8293 8.1455 46.872C6.69483 46.872 5.5215 46.9147 4.6255 47V45.72C6.07617 45.6347 7.16417 45.464 7.8895 45.208C8.6575 44.952 9.1695 44.44 9.4255 43.672C9.6815 42.904 9.8095 41.752 9.8095 40.216V8.472C9.8095 6.89333 9.6815 5.74133 9.4255 5.016C9.1695 4.248 8.6575 3.736 7.8895 3.48C7.16417 3.18133 6.07617 3.01066 4.6255 2.968V1.688C5.5215 1.73067 6.69483 1.79467 8.1455 1.88C9.59617 1.92266 11.0255 1.92266 12.4335 1.88C13.9268 1.83733 15.6122 1.79467 17.4895 1.752C19.3668 1.70933 20.9028 1.688 22.0975 1.688ZM20.4975 2.84C18.5348 2.84 17.2548 3.20266 16.6575 3.928C16.0602 4.65333 15.7615 6.12533 15.7615 8.344V40.344C15.7615 42.5627 16.0602 44.0347 16.6575 44.76C17.2975 45.4853 18.5988 45.848 20.5615 45.848C25.2122 45.848 28.8175 45.016 31.3775 43.352C33.9375 41.6453 35.7295 39.1707 36.7535 35.928C37.7775 32.6853 38.2895 28.7387 38.2895 24.088C38.2895 19.3093 37.7135 15.3627 36.5615 12.248C35.4522 9.09066 33.5962 6.744 30.9935 5.208C28.4335 3.62933 24.9348 2.84 20.4975 2.84ZM71.9315 0.791996C75.9848 0.791996 79.5262 1.70933 82.5555 3.544C85.6275 5.37866 87.9955 8.024 89.6595 11.48C91.3662 14.8933 92.2195 19.0533 92.2195 23.96C92.2195 28.7387 91.3448 32.92 89.5955 36.504C87.8888 40.088 85.4995 42.8827 82.4275 44.888C79.3555 46.8933 75.8355 47.896 71.8675 47.896C67.8142 47.896 64.2515 46.9787 61.1795 45.144C58.1502 43.3093 55.7822 40.664 54.0755 37.208C52.4115 33.752 51.5795 29.592 51.5795 24.728C51.5795 19.9493 52.4542 15.768 54.2035 12.184C55.9528 8.6 58.3422 5.80533 61.3715 3.8C64.4435 1.79466 67.9635 0.791996 71.9315 0.791996ZM71.6755 1.944C68.9022 1.944 66.4915 2.904 64.4435 4.824C62.3955 6.744 60.7955 9.38933 59.6435 12.76C58.5342 16.1307 57.9795 20.0347 57.9795 24.472C57.9795 28.9947 58.5982 32.9413 59.8355 36.312C61.1155 39.64 62.8222 42.2213 64.9555 44.056C67.1315 45.848 69.5208 46.744 72.1235 46.744C74.8968 46.744 77.3075 45.784 79.3555 43.864C81.4035 41.944 82.9822 39.2987 84.0915 35.928C85.2435 32.5147 85.8195 28.6107 85.8195 24.216C85.8195 19.6507 85.1795 15.704 83.8995 12.376C82.6622 9.048 80.9768 6.488 78.8435 4.696C76.7102 2.86133 74.3208 1.944 71.6755 1.944ZM152.986 1.688V2.968C152.175 3.13867 151.279 3.62933 150.298 4.44C149.316 5.208 148.527 6.57333 147.93 8.536L135.834 47.32C135.748 47.32 135.663 47.32 135.578 47.32C135.492 47.32 135.407 47.32 135.322 47.32C135.236 47.32 135.151 47.32 135.066 47.32C134.98 47.32 134.895 47.32 134.81 47.32L121.242 7.064C120.687 5.4 120.068 4.312 119.386 3.8C118.703 3.288 118.063 3.01066 117.466 2.968V1.688C118.234 1.73067 119.194 1.77333 120.346 1.816C121.498 1.85866 122.607 1.88 123.674 1.88C125.338 1.88 126.895 1.85866 128.346 1.816C129.796 1.77333 130.97 1.73067 131.866 1.688V2.968C130.586 3.01066 129.562 3.13866 128.794 3.352C128.068 3.56533 127.642 4.03466 127.514 4.76C127.428 5.48533 127.642 6.68 128.154 8.344L137.69 37.848L136.794 38.616L145.242 12.056C146.01 9.70933 146.351 7.896 146.266 6.616C146.223 5.29333 145.754 4.376 144.858 3.864C143.962 3.30933 142.618 3.01066 140.826 2.968V1.688C142.063 1.73067 143.322 1.77333 144.602 1.816C145.882 1.85866 147.076 1.88 148.186 1.88C149.295 1.88 150.212 1.85866 150.938 1.816C151.663 1.77333 152.346 1.73067 152.986 1.688ZM108.25 1.688V2.968C107.14 3.05333 106.33 3.26666 105.818 3.608C105.348 3.94933 105.114 4.504 105.114 5.272C105.156 5.99733 105.391 7.02133 105.818 8.344L115.738 38.616L114.138 40.216L123.098 11.608L124.058 13.144L113.498 47.32C113.412 47.32 113.327 47.32 113.242 47.32C113.156 47.32 113.071 47.32 112.986 47.32C112.9 47.32 112.815 47.32 112.73 47.32C112.644 47.32 112.559 47.32 112.474 47.32L98.9055 7.064C98.3508 5.4 97.6468 4.312 96.7935 3.8C95.9402 3.288 95.1722 3.01066 94.4895 2.968V1.688C95.3428 1.73067 96.3882 1.77333 97.6255 1.816C98.9055 1.85866 100.143 1.88 101.338 1.88C102.746 1.88 104.047 1.85866 105.242 1.816C106.479 1.77333 107.482 1.73067 108.25 1.688ZM195.755 1.688V2.968C194.304 3.01066 193.195 3.224 192.427 3.608C191.702 3.992 191.211 4.61066 190.955 5.464C190.699 6.31733 190.571 7.53333 190.571 9.112V47.32C190.315 47.32 190.059 47.32 189.803 47.32C189.59 47.32 189.355 47.32 189.099 47.32L162.219 5.784V39.576C162.219 41.112 162.347 42.328 162.603 43.224C162.902 44.0773 163.456 44.696 164.267 45.08C165.12 45.4213 166.379 45.6347 168.043 45.72V47C167.275 46.9147 166.272 46.872 165.035 46.872C163.798 46.8293 162.624 46.808 161.515 46.808C160.448 46.808 159.36 46.8293 158.251 46.872C157.184 46.872 156.288 46.9147 155.563 47V45.72C157.014 45.6347 158.102 45.4213 158.827 45.08C159.595 44.696 160.107 44.0773 160.363 43.224C160.619 42.328 160.747 41.112 160.747 39.576V8.472C160.747 6.89333 160.619 5.74133 160.363 5.016C160.107 4.248 159.595 3.736 158.827 3.48C158.102 3.18133 157.014 3.01066 155.563 2.968V1.688C156.288 1.73067 157.184 1.77333 158.251 1.816C159.36 1.85866 160.448 1.88 161.515 1.88C162.454 1.88 163.35 1.85866 164.203 1.816C165.056 1.77333 165.824 1.73067 166.507 1.688L189.099 36.504V9.112C189.099 7.53333 188.95 6.31733 188.651 5.464C188.395 4.61066 187.84 3.992 186.987 3.608C186.176 3.224 184.939 3.01066 183.275 2.968V1.688C184.043 1.73067 185.046 1.77333 186.283 1.816C187.563 1.85866 188.736 1.88 189.803 1.88C190.912 1.88 192 1.85866 193.067 1.816C194.176 1.77333 195.072 1.73067 195.755 1.688Z" fill="white"/>
</g>
<defs>
<filter id="filter0_d_221_133" x="0.625488" y="0.791992" width="199.129" height="55.1045" filterUnits="userSpaceOnUse" color-interpolation-filters="sRGB">
<feFlood flood-opacity="0" result="BackgroundImageFix"/>
<feColorMatrix in="SourceAlpha" type="matrix" values="0 0 0 0 0 0 0 0 0 0 0 0 0 0 0 0 0 0 127 0" result="hardAlpha"/>
<feOffset dy="4"/>
<feGaussianBlur stdDeviation="2"/>
<feComposite in2="hardAlpha" operator="out"/>
<feColorMatrix type="matrix" values="0 0 0 0 0 0 0 0 0 0 0 0 0 0 0 0 0 0 0.6 0"/>
<feBlend mode="normal" in2="BackgroundImageFix" result="effect1_dropShadow_221_133"/>
<feBlend mode="normal" in="SourceGraphic" in2="effect1_dropShadow_221_133" result="shape"/>
</filter>
</defs>
</svg>
