<svg width="320" height="80" viewBox="0 0 320 80" fill="none" xmlns="http://www.w3.org/2000/svg">
<g filter="url(#filter0_d_324_747)">
<path d="M23.4979 0.975996C26.6979 0.975996 29.1299 1.36 30.7939 2.128C32.4579 2.832 33.9299 3.632 35.2099 4.528C35.9779 4.976 36.5859 5.328 37.0339 5.584C37.5459 5.776 38.0259 5.872 38.4739 5.872C39.1139 5.872 39.5619 5.52 39.8179 4.816C40.1379 4.112 40.3939 3.056 40.5859 1.648H42.7939C42.7299 2.736 42.6339 4.048 42.5059 5.584C42.4419 7.056 42.3779 9.04 42.3139 11.536C42.3139 13.968 42.3139 17.2 42.3139 21.232H40.1059C39.9139 18.16 39.2419 15.216 38.0899 12.4C36.9379 9.584 35.2419 7.27999 33.0019 5.488C30.8259 3.696 27.9459 2.8 24.3619 2.8C20.9699 2.8 18.1539 3.824 15.9139 5.872C13.7379 7.92 12.6499 10.608 12.6499 13.936C12.6499 16.816 13.3859 19.248 14.8579 21.232C16.3299 23.152 18.2819 24.912 20.7139 26.512C23.2099 28.048 25.8979 29.712 28.7779 31.504C32.1059 33.552 35.0499 35.6 37.6099 37.648C40.2339 39.632 42.2819 41.84 43.7539 44.272C45.2899 46.704 46.0579 49.648 46.0579 53.104C46.0579 57.2 45.1299 60.592 43.2739 63.28C41.4179 65.968 38.9539 67.984 35.8819 69.328C32.8099 70.672 29.4179 71.344 25.7059 71.344C22.3139 71.344 19.6259 70.96 17.6419 70.192C15.6579 69.424 13.9619 68.624 12.5539 67.792C11.1459 66.896 10.0579 66.448 9.28988 66.448C8.64988 66.448 8.16988 66.8 7.84988 67.504C7.59388 68.208 7.36988 69.264 7.17788 70.672H4.96988C5.09788 69.328 5.16188 67.76 5.16188 65.968C5.22588 64.112 5.25787 61.712 5.25787 58.768C5.32188 55.824 5.35388 52.112 5.35388 47.632H7.56188C7.81788 51.472 8.52188 55.056 9.67388 58.384C10.8899 61.712 12.7139 64.4 15.1459 66.448C17.6419 68.432 20.9379 69.424 25.0339 69.424C27.1459 69.424 29.1299 69.008 30.9859 68.176C32.9059 67.28 34.4739 65.904 35.6899 64.048C36.9059 62.128 37.5139 59.664 37.5139 56.656C37.5139 54.032 36.8739 51.76 35.5939 49.84C34.3779 47.856 32.6499 46.032 30.4099 44.368C28.1699 42.64 25.5459 40.88 22.5379 39.088C19.5299 37.232 16.7139 35.344 14.0899 33.424C11.4659 31.504 9.35388 29.296 7.75388 26.8C6.21788 24.24 5.44988 21.168 5.44988 17.584C5.44988 13.808 6.28188 10.704 7.94588 8.272C9.67388 5.776 11.9139 3.952 14.6659 2.8C17.4179 1.584 20.3619 0.975996 23.4979 0.975996ZM86.3816 0.687994C92.4616 0.687994 97.7736 2.064 102.318 4.816C106.926 7.568 110.478 11.536 112.974 16.72C115.534 21.84 116.814 28.08 116.814 35.44C116.814 42.608 115.502 48.88 112.878 54.256C110.318 59.632 106.734 63.824 102.126 66.832C97.5176 69.84 92.2376 71.344 86.2856 71.344C80.2056 71.344 74.8616 69.968 70.2536 67.216C65.7096 64.464 62.1576 60.496 59.5976 55.312C57.1016 50.128 55.8536 43.888 55.8536 36.592C55.8536 29.424 57.1656 23.152 59.7896 17.776C62.4136 12.4 65.9976 8.208 70.5416 5.2C75.1496 2.192 80.4296 0.687994 86.3816 0.687994ZM85.9976 2.41599C81.8376 2.41599 78.2216 3.856 75.1496 6.736C72.0776 9.616 69.6776 13.584 67.9496 18.64C66.2856 23.696 65.4536 29.552 65.4536 36.208C65.4536 42.992 66.3816 48.912 68.2376 53.968C70.1576 58.96 72.7176 62.832 75.9176 65.584C79.1816 68.272 82.7656 69.616 86.6696 69.616C90.8296 69.616 94.4456 68.176 97.5176 65.296C100.59 62.416 102.958 58.448 104.622 53.392C106.35 48.272 107.214 42.416 107.214 35.824C107.214 28.976 106.254 23.056 104.334 18.064C102.478 13.072 99.9496 9.232 96.7496 6.544C93.5496 3.792 89.9656 2.41599 85.9976 2.41599ZM184.239 2.032V3.952C182.063 4.016 180.399 4.336 179.247 4.912C178.159 5.488 177.423 6.416 177.039 7.696C176.655 8.976 176.463 10.8 176.463 13.168V42.064C176.463 46.544 176.175 50.448 175.599 53.776C175.023 57.104 173.999 59.984 172.527 62.416C170.927 65.104 168.591 67.28 165.519 68.944C162.447 70.544 158.927 71.344 154.959 71.344C151.887 71.344 148.943 70.96 146.127 70.192C143.375 69.488 140.943 68.144 138.831 66.16C136.975 64.368 135.503 62.48 134.415 60.496C133.391 58.512 132.687 56.08 132.303 53.2C131.919 50.32 131.727 46.704 131.727 42.352V12.208C131.727 9.83999 131.535 8.112 131.151 7.024C130.767 5.872 129.999 5.104 128.847 4.72C127.759 4.272 126.127 4.016 123.951 3.952V2.032C125.295 2.096 127.055 2.16 129.231 2.224C131.407 2.288 133.743 2.32 136.239 2.32C138.479 2.32 140.687 2.288 142.863 2.224C145.103 2.16 146.959 2.096 148.431 2.032V3.952C146.255 4.016 144.591 4.272 143.439 4.72C142.351 5.104 141.615 5.872 141.231 7.024C140.847 8.112 140.655 9.83999 140.655 12.208V43.984C140.655 47.248 140.815 50.352 141.135 53.296C141.455 56.176 142.095 58.736 143.055 60.976C144.079 63.152 145.615 64.88 147.663 66.16C149.711 67.376 152.431 67.984 155.823 67.984C160.687 67.984 164.431 66.928 167.055 64.816C169.743 62.64 171.599 59.664 172.623 55.888C173.711 52.112 174.255 47.856 174.255 43.12V13.168C174.255 10.8 173.967 8.976 173.391 7.696C172.879 6.416 171.983 5.488 170.703 4.912C169.423 4.336 167.695 4.016 165.519 3.952V2.032C166.671 2.096 168.175 2.16 170.031 2.224C171.951 2.288 173.711 2.32 175.311 2.32C176.975 2.32 178.607 2.288 180.207 2.224C181.871 2.16 183.215 2.096 184.239 2.032ZM243.629 2.032C243.373 4.464 243.181 6.832 243.053 9.136C242.989 11.376 242.957 13.104 242.957 14.32C242.957 15.856 242.989 17.296 243.053 18.64C243.117 19.984 243.181 21.168 243.245 22.192H241.037C240.589 17.712 239.981 14.192 239.213 11.632C238.445 9.008 237.101 7.12 235.181 5.96799C233.261 4.81599 230.285 4.23999 226.253 4.23999H221.069V58.864C221.069 61.424 221.293 63.344 221.741 64.624C222.253 65.904 223.213 66.768 224.621 67.216C226.029 67.664 228.077 67.952 230.765 68.08V70C229.101 69.872 226.989 69.808 224.429 69.808C221.869 69.744 219.277 69.712 216.653 69.712C213.773 69.712 211.053 69.744 208.493 69.808C205.997 69.808 203.981 69.872 202.445 70V68.08C205.133 67.952 207.181 67.664 208.589 67.216C209.997 66.768 210.925 65.904 211.373 64.624C211.885 63.344 212.141 61.424 212.141 58.864V4.23999H206.957C202.989 4.23999 200.013 4.81599 198.029 5.96799C196.109 7.12 194.765 9.008 193.997 11.632C193.229 14.192 192.621 17.712 192.173 22.192H189.965C190.093 21.168 190.157 19.984 190.157 18.64C190.221 17.296 190.253 15.856 190.253 14.32C190.253 13.104 190.189 11.376 190.061 9.136C189.997 6.832 189.837 4.464 189.581 2.032C192.269 2.096 195.181 2.16 198.317 2.224C201.517 2.288 204.717 2.32 207.917 2.32C211.117 2.32 214.029 2.32 216.653 2.32C219.277 2.32 222.157 2.32 225.293 2.32C228.493 2.32 231.693 2.288 234.893 2.224C238.093 2.16 241.005 2.096 243.629 2.032ZM290.582 70V68.08C292.758 67.952 294.39 67.696 295.478 67.312C296.63 66.928 297.398 66.16 297.782 65.008C298.166 63.856 298.358 62.128 298.358 59.824V12.208C298.358 9.83999 298.166 8.112 297.782 7.024C297.398 5.872 296.63 5.104 295.478 4.72C294.39 4.272 292.758 4.016 290.582 3.952V2.032C292.054 2.096 293.91 2.16 296.15 2.224C298.39 2.288 300.598 2.32 302.774 2.32C305.27 2.32 307.606 2.288 309.782 2.224C311.958 2.16 313.718 2.096 315.062 2.032V3.952C312.886 4.016 311.222 4.272 310.07 4.72C308.982 5.104 308.246 5.872 307.862 7.024C307.478 8.112 307.286 9.83999 307.286 12.208V59.824C307.286 62.128 307.478 63.856 307.862 65.008C308.246 66.16 308.982 66.928 310.07 67.312C311.222 67.696 312.886 67.952 315.062 68.08V70C313.718 69.872 311.958 69.808 309.782 69.808C307.606 69.744 305.27 69.712 302.774 69.712C300.598 69.712 298.39 69.744 296.15 69.808C293.91 69.808 292.054 69.872 290.582 70ZM250.454 70V68.08C252.63 67.952 254.262 67.696 255.35 67.312C256.502 66.928 257.27 66.16 257.654 65.008C258.038 63.856 258.23 62.128 258.23 59.824V12.208C258.23 9.83999 258.038 8.112 257.654 7.024C257.27 5.872 256.502 5.104 255.35 4.72C254.262 4.272 252.63 4.016 250.454 3.952V2.032C251.798 2.096 253.558 2.16 255.734 2.224C257.91 2.288 260.246 2.32 262.742 2.32C264.982 2.32 267.19 2.288 269.366 2.224C271.606 2.16 273.462 2.096 274.934 2.032V3.952C272.758 4.016 271.094 4.272 269.942 4.72C268.854 5.104 268.118 5.872 267.734 7.024C267.35 8.112 267.158 9.83999 267.158 12.208V59.824C267.158 62.128 267.35 63.856 267.734 65.008C268.118 66.16 268.854 66.928 269.942 67.312C271.094 67.696 272.758 67.952 274.934 68.08V70C273.462 69.872 271.606 69.808 269.366 69.808C267.19 69.744 264.982 69.712 262.742 69.712C260.246 69.712 257.91 69.744 255.734 69.808C253.558 69.808 251.798 69.872 250.454 70ZM263.798 36.784V34.864H301.718V36.784H263.798Z" fill="white"/>
</g>
<defs>
<filter id="filter0_d_324_747" x="0.969727" y="0.688477" width="318.092" height="78.6553" filterUnits="userSpaceOnUse" color-interpolation-filters="sRGB">
<feFlood flood-opacity="0" result="BackgroundImageFix"/>
<feColorMatrix in="SourceAlpha" type="matrix" values="0 0 0 0 0 0 0 0 0 0 0 0 0 0 0 0 0 0 127 0" result="hardAlpha"/>
<feOffset dy="4"/>
<feGaussianBlur stdDeviation="2"/>
<feComposite in2="hardAlpha" operator="out"/>
<feColorMatrix type="matrix" values="0 0 0 0 0 0 0 0 0 0 0 0 0 0 0 0 0 0 0.6 0"/>
<feBlend mode="normal" in2="BackgroundImageFix" result="effect1_dropShadow_324_747"/>
<feBlend mode="normal" in="SourceGraphic" in2="effect1_dropShadow_324_747" result="shape"/>
</filter>
</defs>
</svg>
