<svg width="759" height="134" viewBox="0 0 759 134" fill="none" xmlns="http://www.w3.org/2000/svg">
<g filter="url(#filter0_d_211_158)">
<path d="M85.1975 10.376V12.936C82.2962 13.0213 80.0775 13.448 78.5415 14.216C77.0908 14.984 76.1095 16.2213 75.5975 17.928C75.0855 19.6347 74.8295 22.0667 74.8295 25.224V101.64C74.3175 101.64 73.8055 101.64 73.2935 101.64C72.8668 101.64 72.3975 101.64 71.8855 101.64L18.1255 18.568V86.152C18.1255 89.224 18.3815 91.656 18.8935 93.448C19.4908 95.1547 20.6002 96.392 22.2215 97.16C23.9282 97.8427 26.4455 98.2693 29.7735 98.44V101C28.2375 100.829 26.2322 100.744 23.7575 100.744C21.2828 100.659 18.9362 100.616 16.7175 100.616C14.5842 100.616 12.4082 100.659 10.1895 100.744C8.05617 100.744 6.26417 100.829 4.8135 101V98.44C7.71483 98.2693 9.89083 97.8427 11.3415 97.16C12.8775 96.392 13.9015 95.1547 14.4135 93.448C14.9255 91.656 15.1815 89.224 15.1815 86.152V23.944C15.1815 20.7867 14.9255 18.4827 14.4135 17.032C13.9015 15.496 12.8775 14.472 11.3415 13.96C9.89083 13.3627 7.71483 13.0213 4.8135 12.936V10.376C6.26417 10.4613 8.05617 10.5467 10.1895 10.632C12.4082 10.7173 14.5842 10.76 16.7175 10.76C18.5948 10.76 20.3868 10.7173 22.0935 10.632C23.8002 10.5467 25.3362 10.4613 26.7015 10.376L71.8855 80.008V25.224C71.8855 22.0667 71.5868 19.6347 70.9895 17.928C70.4775 16.2213 69.3682 14.984 67.6615 14.216C66.0402 13.448 63.5655 13.0213 60.2375 12.936V10.376C61.7735 10.4613 63.7788 10.5467 66.2535 10.632C68.8135 10.7173 71.1602 10.76 73.2935 10.76C75.5122 10.76 77.6882 10.7173 79.8215 10.632C82.0402 10.5467 83.8322 10.4613 85.1975 10.376ZM149.762 33.672V87.176C149.762 91.016 150.444 93.8747 151.81 95.752C153.26 97.544 155.82 98.44 159.49 98.44V101.128C156.844 100.872 154.199 100.744 151.554 100.744C149.079 100.744 146.69 100.872 144.386 101.128C142.167 101.384 140.119 101.853 138.242 102.536V87.432C136.108 92.9787 133.079 96.9467 129.154 99.336C125.314 101.64 121.346 102.792 117.25 102.792C114.263 102.792 111.66 102.365 109.442 101.512C107.223 100.659 105.388 99.464 103.938 97.928C102.316 96.2213 101.207 94.0027 100.61 91.272C100.012 88.5413 99.7135 85.1707 99.7135 81.16V49.032C99.7135 45.192 99.0308 42.376 97.6655 40.584C96.3002 38.7067 93.7402 37.768 89.9855 37.768V35.08C92.7162 35.336 95.3615 35.464 97.9215 35.464C100.396 35.464 102.743 35.336 104.962 35.08C107.266 34.7387 109.356 34.2693 111.234 33.672V83.976C111.234 86.6213 111.404 89.0533 111.746 91.272C112.087 93.4907 112.94 95.2827 114.306 96.648C115.671 98.0133 117.89 98.696 120.962 98.696C124.29 98.696 127.234 97.672 129.794 95.624C132.439 93.576 134.487 90.8027 135.938 87.304C137.474 83.8053 138.242 79.88 138.242 75.528V49.032C138.242 45.192 137.559 42.376 136.194 40.584C134.828 38.7067 132.268 37.768 128.514 37.768V35.08C131.244 35.336 133.89 35.464 136.45 35.464C138.924 35.464 141.271 35.336 143.49 35.08C145.794 34.7387 147.884 34.2693 149.762 33.672ZM190.217 35.08V37.768C188.083 37.768 186.206 37.9387 184.585 38.28C182.963 38.536 181.897 39.3893 181.385 40.84C180.873 42.2907 181.257 44.8507 182.537 48.52L195.849 86.664L194.953 86.536L213.769 34.568L216.329 35.592L192.905 101.64C192.563 101.64 192.222 101.64 191.881 101.64C191.539 101.64 191.155 101.64 190.729 101.64L169.737 44.936C168.371 41.5227 167.006 39.4747 165.641 38.792C164.361 38.1093 163.251 37.768 162.312 37.768V35.08C164.019 35.336 165.769 35.5493 167.561 35.72C169.438 35.8053 171.443 35.848 173.577 35.848C176.222 35.848 178.995 35.7627 181.897 35.592C184.883 35.4213 187.657 35.2507 190.217 35.08ZM260.489 35.08V37.64C258.867 37.8107 257.331 38.536 255.881 39.816C254.515 41.0107 253.278 43.272 252.169 46.6L233.609 101.64C233.267 101.64 232.926 101.64 232.585 101.64C232.243 101.64 231.859 101.64 231.433 101.64L210.825 49.288L213.769 34.568C214.281 34.568 214.75 34.568 215.177 34.568C215.689 34.568 216.201 34.568 216.713 34.568L236.681 87.432L235.657 88.2L248.329 49.672C249.267 46.7707 249.609 44.5093 249.353 42.888C249.182 41.1813 248.329 39.944 246.793 39.176C245.342 38.3227 243.081 37.8107 240.009 37.64V35.08C241.545 35.1653 242.867 35.2507 243.977 35.336C245.086 35.336 246.153 35.3787 247.177 35.464C248.286 35.464 249.481 35.464 250.761 35.464C252.723 35.464 254.473 35.4213 256.009 35.336C257.63 35.2507 259.123 35.1653 260.489 35.08ZM281.951 101.896C278.452 101.896 275.423 101.256 272.863 99.976C270.303 98.6107 268.34 96.7333 266.975 94.344C265.695 91.9547 265.055 89.1813 265.055 86.024C265.055 82.2693 265.908 79.1973 267.615 76.808C269.407 74.4187 271.668 72.4987 274.399 71.048C277.129 69.5973 279.988 68.4027 282.975 67.464C286.047 66.44 288.948 65.5013 291.679 64.648C294.409 63.7093 296.628 62.6427 298.335 61.448C300.127 60.2533 301.023 58.6747 301.023 56.712V48.776C301.023 45.192 300.468 42.4613 299.359 40.584C298.335 38.7067 296.927 37.4693 295.135 36.872C293.343 36.1893 291.337 35.848 289.119 35.848C286.985 35.848 284.681 36.1467 282.207 36.744C279.817 37.3413 277.897 38.5787 276.447 40.456C278.068 40.7973 279.476 41.6507 280.671 43.016C281.865 44.3813 282.463 46.1307 282.463 48.264C282.463 50.3973 281.78 52.104 280.415 53.384C279.049 54.5787 277.3 55.176 275.167 55.176C272.692 55.176 270.857 54.408 269.663 52.872C268.553 51.2507 267.999 49.4587 267.999 47.496C267.999 45.2773 268.553 43.4853 269.663 42.12C270.772 40.7547 272.18 39.4747 273.887 38.28C275.849 36.9147 278.367 35.7627 281.439 34.824C284.596 33.8 288.137 33.288 292.062 33.288C295.561 33.288 298.548 33.7147 301.023 34.568C303.497 35.336 305.545 36.488 307.167 38.024C309.385 40.072 310.836 42.5893 311.519 45.576C312.201 48.4773 312.543 51.976 312.543 56.072V91.656C312.543 93.7893 312.841 95.3253 313.439 96.264C314.121 97.2027 315.145 97.672 316.511 97.672C317.449 97.672 318.345 97.4587 319.199 97.032C320.052 96.6053 321.076 95.9227 322.271 94.984L323.679 97.16C321.887 98.5253 320.18 99.6773 318.559 100.616C316.937 101.469 314.761 101.896 312.031 101.896C309.556 101.896 307.508 101.469 305.887 100.616C304.265 99.7627 303.028 98.5253 302.175 96.904C301.407 95.1973 301.023 93.064 301.023 90.504C298.719 94.344 295.945 97.2027 292.703 99.08C289.545 100.957 285.961 101.896 281.951 101.896ZM286.559 96.776C289.375 96.776 291.977 95.9653 294.367 94.344C296.841 92.7227 299.06 90.2907 301.023 87.048V61.96C299.999 63.4107 298.505 64.648 296.543 65.672C294.58 66.6107 292.447 67.592 290.143 68.616C287.839 69.5547 285.62 70.7067 283.487 72.072C281.439 73.352 279.732 75.0587 278.367 77.192C277.001 79.3253 276.319 82.0987 276.319 85.512C276.319 88.9253 277.215 91.656 279.007 93.704C280.884 95.752 283.401 96.776 286.559 96.776ZM367.333 33.288C369.637 33.288 371.642 33.7573 373.349 34.696C375.141 35.6347 376.506 36.872 377.445 38.408C378.469 39.8587 378.981 41.5227 378.981 43.4C378.981 45.5333 378.298 47.4107 376.933 49.032C375.653 50.6533 373.903 51.464 371.685 51.464C369.893 51.464 368.314 50.9093 366.949 49.8C365.583 48.6053 364.901 46.9413 364.901 44.808C364.901 43.1867 365.327 41.8213 366.181 40.712C367.119 39.5173 368.143 38.5787 369.253 37.896C368.655 37.0427 367.759 36.616 366.565 36.616C363.919 36.616 361.487 37.4267 359.269 39.048C357.05 40.584 355.173 42.5893 353.637 45.064C352.101 47.5387 350.906 50.184 350.053 53C349.199 55.7307 348.773 58.2907 348.773 60.68V87.816C348.773 91.9973 349.967 94.8133 352.357 96.264C354.831 97.6293 358.159 98.312 362.341 98.312V101C360.378 100.915 357.605 100.829 354.021 100.744C350.437 100.573 346.639 100.488 342.628 100.488C339.727 100.488 336.826 100.573 333.925 100.744C331.109 100.829 328.975 100.915 327.525 101V98.312C331.023 98.312 333.498 97.672 334.949 96.392C336.485 95.112 337.253 92.68 337.253 89.096V49.032C337.253 45.192 336.57 42.376 335.205 40.584C333.839 38.7067 331.279 37.768 327.525 37.768V35.08C330.255 35.336 332.901 35.464 335.461 35.464C337.935 35.464 340.282 35.336 342.501 35.08C344.805 34.7387 346.895 34.2693 348.773 33.672V49.672C349.711 47.1973 351.034 44.7227 352.741 42.248C354.533 39.688 356.666 37.5547 359.141 35.848C361.615 34.1413 364.346 33.288 367.333 33.288ZM402.701 101.896C399.202 101.896 396.173 101.256 393.613 99.976C391.053 98.6107 389.09 96.7333 387.725 94.344C386.445 91.9547 385.805 89.1813 385.805 86.024C385.805 82.2693 386.658 79.1973 388.365 76.808C390.157 74.4187 392.418 72.4987 395.149 71.048C397.879 69.5973 400.738 68.4027 403.725 67.464C406.797 66.44 409.698 65.5013 412.429 64.648C415.159 63.7093 417.378 62.6427 419.085 61.448C420.877 60.2533 421.773 58.6747 421.773 56.712V48.776C421.773 45.192 421.218 42.4613 420.109 40.584C419.085 38.7067 417.677 37.4693 415.885 36.872C414.093 36.1893 412.087 35.848 409.869 35.848C407.735 35.848 405.431 36.1467 402.957 36.744C400.567 37.3413 398.647 38.5787 397.197 40.456C398.818 40.7973 400.226 41.6507 401.421 43.016C402.615 44.3813 403.213 46.1307 403.213 48.264C403.213 50.3973 402.53 52.104 401.165 53.384C399.799 54.5787 398.05 55.176 395.917 55.176C393.442 55.176 391.607 54.408 390.413 52.872C389.303 51.2507 388.749 49.4587 388.749 47.496C388.749 45.2773 389.303 43.4853 390.413 42.12C391.522 40.7547 392.93 39.4747 394.637 38.28C396.599 36.9147 399.117 35.7627 402.189 34.824C405.346 33.8 408.887 33.288 412.812 33.288C416.311 33.288 419.298 33.7147 421.773 34.568C424.247 35.336 426.295 36.488 427.917 38.024C430.135 40.072 431.586 42.5893 432.269 45.576C432.951 48.4773 433.293 51.976 433.293 56.072V91.656C433.293 93.7893 433.591 95.3253 434.189 96.264C434.871 97.2027 435.895 97.672 437.261 97.672C438.199 97.672 439.095 97.4587 439.949 97.032C440.802 96.6053 441.826 95.9227 443.021 94.984L444.429 97.16C442.637 98.5253 440.93 99.6773 439.309 100.616C437.687 101.469 435.511 101.896 432.781 101.896C430.306 101.896 428.258 101.469 426.637 100.616C425.015 99.7627 423.778 98.5253 422.925 96.904C422.157 95.1973 421.773 93.064 421.773 90.504C419.469 94.344 416.695 97.2027 413.453 99.08C410.295 100.957 406.711 101.896 402.701 101.896ZM407.309 96.776C410.125 96.776 412.727 95.9653 415.117 94.344C417.591 92.7227 419.81 90.2907 421.773 87.048V61.96C420.749 63.4107 419.255 64.648 417.293 65.672C415.33 66.6107 413.197 67.592 410.893 68.616C408.589 69.5547 406.37 70.7067 404.237 72.072C402.189 73.352 400.482 75.0587 399.117 77.192C397.751 79.3253 397.069 82.0987 397.069 85.512C397.069 88.9253 397.965 91.656 399.757 93.704C401.634 95.752 404.151 96.776 407.309 96.776ZM544.186 10.376C543.844 13.3627 543.588 16.264 543.418 19.08C543.332 21.896 543.29 24.0293 543.29 25.48C543.29 27.016 543.332 28.5093 543.418 29.96C543.503 31.3253 543.588 32.4773 543.674 33.416H540.729C540.218 28.3813 539.492 24.4133 538.554 21.512C537.615 18.5253 535.994 16.4347 533.69 15.24C531.471 13.96 528.1 13.32 523.578 13.32H512.954C510.052 13.32 507.834 13.576 506.298 14.088C504.847 14.5147 503.866 15.496 503.354 17.032C502.842 18.4827 502.586 20.7867 502.586 23.944V87.432C502.586 90.504 502.842 92.808 503.354 94.344C503.866 95.88 504.847 96.904 506.298 97.416C507.834 97.8427 510.052 98.056 512.954 98.056H522.298C527.674 98.056 531.727 97.3307 534.458 95.88C537.274 94.4293 539.279 92.0827 540.474 88.84C541.754 85.512 542.692 81.032 543.29 75.4H546.234C545.978 77.704 545.85 80.776 545.85 84.616C545.85 86.2373 545.892 88.584 545.978 91.656C546.148 94.6427 546.404 97.7573 546.746 101C542.394 100.829 537.487 100.744 532.026 100.744C526.564 100.659 521.7 100.616 517.434 100.616C515.556 100.616 513.124 100.616 510.138 100.616C507.236 100.616 504.079 100.659 500.666 100.744C497.252 100.744 493.796 100.787 490.298 100.872C486.799 100.872 483.471 100.915 480.314 101V98.44C483.215 98.2693 485.391 97.928 486.842 97.416C488.378 96.904 489.402 95.88 489.914 94.344C490.426 92.808 490.682 90.504 490.682 87.432V23.944C490.682 20.7867 490.426 18.4827 489.914 17.032C489.402 15.496 488.378 14.472 486.842 13.96C485.391 13.3627 483.215 13.0213 480.314 12.936V10.376C483.471 10.4613 486.799 10.5467 490.298 10.632C493.796 10.632 497.252 10.6747 500.666 10.76C504.079 10.76 507.236 10.76 510.138 10.76C513.124 10.76 515.556 10.76 517.434 10.76C521.359 10.76 525.796 10.76 530.746 10.76C535.78 10.6747 540.26 10.5467 544.186 10.376ZM522.17 54.152C522.17 54.152 522.17 54.5787 522.17 55.432C522.17 56.2853 522.17 56.712 522.17 56.712H498.746C498.746 56.712 498.746 56.2853 498.746 55.432C498.746 54.5787 498.746 54.152 498.746 54.152H522.17ZM525.882 37.256C525.54 42.12 525.37 45.832 525.37 48.392C525.455 50.952 525.498 53.2987 525.498 55.432C525.498 57.5653 525.54 59.912 525.626 62.472C525.711 65.032 525.924 68.744 526.266 73.608H523.322C522.98 70.8773 522.554 68.232 522.042 65.672C521.615 63.0267 520.591 60.8933 518.97 59.272C517.434 57.5653 514.788 56.712 511.034 56.712V54.152C513.85 54.152 515.983 53.5973 517.434 52.488C518.97 51.2933 520.079 49.8 520.762 48.008C521.444 46.216 521.914 44.3813 522.17 42.504C522.426 40.5413 522.682 38.792 522.938 37.256H525.882ZM577.002 0.647995V89.096C577.002 92.68 577.727 95.112 579.178 96.392C580.714 97.672 583.231 98.312 586.729 98.312V101C585.279 100.915 583.06 100.829 580.074 100.744C577.172 100.573 574.228 100.488 571.242 100.488C568.34 100.488 565.396 100.573 562.41 100.744C559.423 100.829 557.204 100.915 555.754 101V98.312C559.252 98.312 561.727 97.672 563.178 96.392C564.714 95.112 565.482 92.68 565.482 89.096V16.008C565.482 12.168 564.799 9.35199 563.434 7.56C562.068 5.68266 559.508 4.744 555.754 4.744V2.05599C558.484 2.31199 561.13 2.43999 563.69 2.43999C566.164 2.43999 568.511 2.31199 570.73 2.05599C573.034 1.71466 575.124 1.24533 577.002 0.647995ZM607.867 3.07999C610.085 3.07999 612.005 3.89066 613.627 5.51199C615.248 7.13333 616.059 9.05333 616.059 11.272C616.059 13.4907 615.248 15.4107 613.627 17.032C612.005 18.6533 610.085 19.464 607.867 19.464C605.648 19.464 603.728 18.6533 602.107 17.032C600.485 15.4107 599.675 13.4907 599.675 11.272C599.675 9.05333 600.485 7.13333 602.107 5.51199C603.728 3.89066 605.648 3.07999 607.867 3.07999ZM614.523 33.672V89.096C614.523 92.68 615.248 95.112 616.699 96.392C618.235 97.672 620.752 98.312 624.251 98.312V101C622.8 100.915 620.581 100.829 617.595 100.744C614.693 100.573 611.749 100.488 608.763 100.488C605.861 100.488 602.917 100.573 599.931 100.744C596.944 100.829 594.725 100.915 593.275 101V98.312C596.773 98.312 599.248 97.672 600.699 96.392C602.235 95.112 603.003 92.68 603.003 89.096V49.032C603.003 45.192 602.32 42.376 600.955 40.584C599.589 38.7067 597.029 37.768 593.275 37.768V35.08C596.005 35.336 598.651 35.464 601.211 35.464C603.685 35.464 606.032 35.336 608.251 35.08C610.555 34.7387 612.645 34.2693 614.523 33.672ZM690.295 35.08V37.64C688.673 37.8107 687.18 38.536 685.815 39.816C684.449 41.096 683.169 43.3573 681.975 46.6L660.983 101.64H658.807L635.255 44.936C633.633 41.608 632.012 39.6027 630.391 38.92C628.855 38.152 627.575 37.768 626.55 37.768V35.08C628.428 35.336 630.391 35.5493 632.439 35.72C634.487 35.8053 636.705 35.848 639.095 35.848C641.74 35.848 644.513 35.7627 647.415 35.592C650.401 35.4213 653.175 35.2507 655.735 35.08V37.768C653.601 37.768 651.681 37.9387 649.975 38.28C648.353 38.536 647.329 39.432 646.903 40.968C646.476 42.4187 646.988 44.936 648.439 48.52L664.183 87.56L663.415 87.816L678.007 49.672C679.116 46.856 679.543 44.6373 679.287 43.016C679.116 41.3093 678.263 40.0293 676.727 39.176C675.191 38.3227 672.887 37.8107 669.815 37.64V35.08C671.351 35.1653 672.673 35.2507 673.783 35.336C674.892 35.336 675.959 35.3787 676.983 35.464C678.092 35.464 679.287 35.464 680.567 35.464C682.529 35.464 684.279 35.4213 685.815 35.336C687.436 35.2507 688.929 35.1653 690.295 35.08ZM660.983 101.64L656.631 112.776C655.777 114.909 654.881 116.701 653.943 118.152C653.089 119.603 652.151 120.797 651.127 121.736C649.761 123.016 648.14 123.869 646.263 124.296C644.385 124.808 642.679 125.064 641.143 125.064C639.521 125.064 638.028 124.765 636.663 124.168C635.383 123.571 634.359 122.675 633.591 121.48C632.823 120.371 632.439 119.005 632.439 117.384C632.439 115.336 633.036 113.672 634.231 112.392C635.425 111.197 637.089 110.6 639.223 110.6C641.015 110.6 642.551 111.112 643.831 112.136C645.111 113.16 645.751 114.653 645.751 116.616C645.751 118.067 645.409 119.261 644.727 120.2C644.044 121.139 643.233 121.864 642.295 122.376C642.465 122.461 642.593 122.504 642.679 122.504C642.849 122.504 642.977 122.504 643.062 122.504C645.367 122.504 647.415 121.693 649.207 120.072C650.999 118.536 652.577 116.019 653.943 112.52L658.551 100.616L660.983 101.64ZM712.701 101.896C709.202 101.896 706.173 101.256 703.613 99.976C701.053 98.6107 699.09 96.7333 697.725 94.344C696.445 91.9547 695.805 89.1813 695.805 86.024C695.805 82.2693 696.658 79.1973 698.365 76.808C700.157 74.4187 702.418 72.4987 705.149 71.048C707.879 69.5973 710.738 68.4027 713.725 67.464C716.797 66.44 719.698 65.5013 722.429 64.648C725.159 63.7093 727.378 62.6427 729.085 61.448C730.877 60.2533 731.773 58.6747 731.773 56.712V48.776C731.773 45.192 731.218 42.4613 730.109 40.584C729.085 38.7067 727.677 37.4693 725.885 36.872C724.093 36.1893 722.087 35.848 719.869 35.848C717.735 35.848 715.431 36.1467 712.957 36.744C710.567 37.3413 708.647 38.5787 707.197 40.456C708.818 40.7973 710.226 41.6507 711.421 43.016C712.615 44.3813 713.213 46.1307 713.213 48.264C713.213 50.3973 712.53 52.104 711.165 53.384C709.799 54.5787 708.05 55.176 705.917 55.176C703.442 55.176 701.607 54.408 700.413 52.872C699.303 51.2507 698.749 49.4587 698.749 47.496C698.749 45.2773 699.303 43.4853 700.413 42.12C701.522 40.7547 702.93 39.4747 704.637 38.28C706.599 36.9147 709.117 35.7627 712.189 34.824C715.346 33.8 718.887 33.288 722.812 33.288C726.311 33.288 729.298 33.7147 731.773 34.568C734.247 35.336 736.295 36.488 737.917 38.024C740.135 40.072 741.586 42.5893 742.269 45.576C742.951 48.4773 743.293 51.976 743.293 56.072V91.656C743.293 93.7893 743.591 95.3253 744.189 96.264C744.871 97.2027 745.895 97.672 747.261 97.672C748.199 97.672 749.095 97.4587 749.949 97.032C750.802 96.6053 751.826 95.9227 753.021 94.984L754.429 97.16C752.637 98.5253 750.93 99.6773 749.309 100.616C747.687 101.469 745.511 101.896 742.781 101.896C740.306 101.896 738.258 101.469 736.637 100.616C735.015 99.7627 733.778 98.5253 732.925 96.904C732.157 95.1973 731.773 93.064 731.773 90.504C729.469 94.344 726.695 97.2027 723.453 99.08C720.295 100.957 716.711 101.896 712.701 101.896ZM717.309 96.776C720.125 96.776 722.727 95.9653 725.117 94.344C727.591 92.7227 729.81 90.2907 731.773 87.048V61.96C730.749 63.4107 729.255 64.648 727.293 65.672C725.33 66.6107 723.197 67.592 720.893 68.616C718.589 69.5547 716.37 70.7067 714.237 72.072C712.189 73.352 710.482 75.0587 709.117 77.192C707.751 79.3253 707.069 82.0987 707.069 85.512C707.069 88.9253 707.965 91.656 709.757 93.704C711.634 95.752 714.151 96.776 717.309 96.776Z" fill="white"/>
</g>
<defs>
<filter id="filter0_d_211_158" x="0.8135" y="0.648438" width="757.615" height="132.416" filterUnits="userSpaceOnUse" color-interpolation-filters="sRGB">
<feFlood flood-opacity="0" result="BackgroundImageFix"/>
<feColorMatrix in="SourceAlpha" type="matrix" values="0 0 0 0 0 0 0 0 0 0 0 0 0 0 0 0 0 0 127 0" result="hardAlpha"/>
<feOffset dy="4"/>
<feGaussianBlur stdDeviation="2"/>
<feComposite in2="hardAlpha" operator="out"/>
<feColorMatrix type="matrix" values="0 0 0 0 0 0 0 0 0 0 0 0 0 0 0 0 0 0 0.6 0"/>
<feBlend mode="normal" in2="BackgroundImageFix" result="effect1_dropShadow_211_158"/>
<feBlend mode="normal" in="SourceGraphic" in2="effect1_dropShadow_211_158" result="shape"/>
</filter>
</defs>
</svg>
