<svg width="406" height="390" viewBox="0 0 406 390" fill="none" xmlns="http://www.w3.org/2000/svg">
<rect opacity="0.4" width="406" height="390" fill="#130101"/>
<path d="M73.2 48.688C73.0293 50.3947 72.9013 52.0587 72.816 53.68C72.7733 55.3013 72.752 56.5387 72.752 57.392C72.752 58.3733 72.7733 59.312 72.816 60.208C72.8587 61.104 72.9013 61.872 72.944 62.512H71.472C71.088 59.3973 70.5547 56.9653 69.872 55.216C69.232 53.424 68.2507 52.144 66.928 51.376C65.6053 50.5653 63.7067 50.16 61.232 50.16H57.84C56.4747 50.16 55.4293 50.288 54.704 50.544C54.0213 50.7573 53.552 51.2267 53.296 51.952C53.04 52.6347 52.912 53.7227 52.912 55.216V87.088C52.912 88.6667 53.0827 89.8613 53.424 90.672C53.7653 91.44 54.4053 91.952 55.344 92.208C56.2827 92.464 57.6693 92.6133 59.504 92.656V94C58.352 93.9147 56.8587 93.872 55.024 93.872C53.1893 93.8293 51.2907 93.808 49.328 93.808C47.6213 93.808 45.9787 93.8293 44.4 93.872C42.864 93.872 41.5627 93.9147 40.496 94V92.72C41.9467 92.6347 43.0347 92.464 43.76 92.208C44.4853 91.952 44.9547 91.44 45.168 90.672C45.424 89.904 45.552 88.752 45.552 87.216V55.472C45.552 53.8933 45.424 52.7413 45.168 52.016C44.9547 51.248 44.464 50.736 43.696 50.48C42.9707 50.1813 41.904 50.0107 40.496 49.968V48.688C42.16 48.7307 43.888 48.7733 45.68 48.816C47.5147 48.816 49.3067 48.8373 51.056 48.88C52.848 48.88 54.512 48.88 56.048 48.88C57.584 48.88 58.8427 48.88 59.824 48.88C61.7867 48.88 64.0053 48.88 66.48 48.88C68.9973 48.8373 71.2373 48.7733 73.2 48.688ZM63.408 71.088C63.408 71.088 63.408 71.3013 63.408 71.728C63.408 72.1547 63.408 72.368 63.408 72.368H50.992C50.992 72.368 50.992 72.1547 50.992 71.728C50.992 71.3013 50.992 71.088 50.992 71.088H63.408ZM64.752 62.64C64.5813 65.072 64.496 66.928 64.496 68.208C64.5387 69.488 64.56 70.6613 64.56 71.728C64.56 72.7947 64.5813 73.968 64.624 75.248C64.6667 76.528 64.7733 78.384 64.944 80.816H63.472C63.3013 79.408 63.0453 78.064 62.704 76.784C62.3627 75.4613 61.744 74.3947 60.848 73.584C59.952 72.7733 58.608 72.368 56.816 72.368V71.088C58.1813 71.088 59.248 70.8107 60.016 70.256C60.8267 69.7013 61.4453 68.976 61.872 68.08C62.2987 67.184 62.5973 66.2667 62.768 65.328C62.9813 64.3467 63.152 63.4507 63.28 62.64H64.752ZM110.138 48.688C109.967 50.3093 109.839 51.888 109.754 53.424C109.711 54.9173 109.69 56.0693 109.69 56.88C109.69 57.6907 109.711 58.4587 109.754 59.184C109.796 59.9093 109.839 60.5067 109.882 60.976H108.41C108.111 58.2453 107.642 56.0907 107.002 54.512C106.404 52.9333 105.487 51.824 104.25 51.184C103.055 50.5013 101.37 50.16 99.1935 50.16H94.7775C93.4122 50.16 92.3668 50.288 91.6415 50.544C90.9588 50.7573 90.4895 51.2267 90.2335 51.952C89.9775 52.6347 89.8495 53.7227 89.8495 55.216V87.472C89.8495 88.9227 89.9775 90.0107 90.2335 90.736C90.4895 91.4613 90.9588 91.952 91.6415 92.208C92.3668 92.4213 93.4122 92.528 94.7775 92.528H98.9375C101.37 92.528 103.29 92.144 104.698 91.376C106.148 90.608 107.236 89.3493 107.962 87.6C108.73 85.8507 109.306 83.4613 109.69 80.432H111.162C111.034 81.6693 110.97 83.2907 110.97 85.296C110.97 86.1493 110.991 87.3867 111.034 89.008C111.119 90.6293 111.247 92.2933 111.418 94C109.242 93.9147 106.788 93.872 104.058 93.872C101.327 93.8293 98.8948 93.808 96.7615 93.808C95.7802 93.808 94.5215 93.808 92.9855 93.808C91.4495 93.808 89.7855 93.8293 87.9935 93.872C86.2442 93.872 84.4522 93.8933 82.6175 93.936C80.8255 93.936 79.0975 93.9573 77.4335 94V92.72C78.8842 92.6347 79.9722 92.464 80.6975 92.208C81.4228 91.952 81.8922 91.44 82.1055 90.672C82.3615 89.904 82.4895 88.752 82.4895 87.216V55.472C82.4895 53.8933 82.3615 52.7413 82.1055 52.016C81.8922 51.248 81.4015 50.736 80.6335 50.48C79.9082 50.1813 78.8415 50.0107 77.4335 49.968V48.688C79.0975 48.7307 80.8255 48.7733 82.6175 48.816C84.4522 48.816 86.2442 48.8373 87.9935 48.88C89.7855 48.88 91.4495 48.88 92.9855 48.88C94.5215 48.88 95.7802 48.88 96.7615 48.88C98.7242 48.88 100.943 48.88 103.418 48.88C105.935 48.8373 108.175 48.7733 110.138 48.688ZM99.5135 70.576C99.5135 70.576 99.5135 70.7893 99.5135 71.216C99.5135 71.6427 99.5135 71.856 99.5135 71.856H87.9295C87.9295 71.856 87.9295 71.6427 87.9295 71.216C87.9295 70.7893 87.9295 70.576 87.9295 70.576H99.5135ZM101.37 62.128C101.199 64.56 101.114 66.416 101.114 67.696C101.156 68.976 101.178 70.1493 101.178 71.216C101.178 72.2827 101.199 73.456 101.242 74.736C101.284 76.016 101.391 77.872 101.562 80.304H100.09C99.8762 78.896 99.5988 77.552 99.2575 76.272C98.9162 74.9493 98.2975 73.8827 97.4015 73.072C96.5482 72.2613 95.2042 71.856 93.3695 71.856V70.576C94.7348 70.576 95.8015 70.2987 96.5695 69.744C97.3802 69.1893 97.9988 68.464 98.4255 67.568C98.8522 66.672 99.1508 65.7547 99.3215 64.816C99.5348 63.8347 99.7268 62.9387 99.8975 62.128H101.37ZM149.638 48.688C149.467 50.3093 149.339 51.888 149.254 53.424C149.211 54.9173 149.19 56.0693 149.19 56.88C149.19 57.6907 149.211 58.4587 149.254 59.184C149.296 59.9093 149.339 60.5067 149.382 60.976H147.91C147.611 58.2453 147.142 56.0907 146.502 54.512C145.904 52.9333 144.987 51.824 143.75 51.184C142.555 50.5013 140.87 50.16 138.694 50.16H134.278C132.912 50.16 131.867 50.288 131.142 50.544C130.459 50.7573 129.99 51.2267 129.734 51.952C129.478 52.6347 129.35 53.7227 129.35 55.216V87.472C129.35 88.9227 129.478 90.0107 129.734 90.736C129.99 91.4613 130.459 91.952 131.142 92.208C131.867 92.4213 132.912 92.528 134.278 92.528H138.438C140.87 92.528 142.79 92.144 144.198 91.376C145.648 90.608 146.736 89.3493 147.462 87.6C148.23 85.8507 148.806 83.4613 149.19 80.432H150.662C150.534 81.6693 150.47 83.2907 150.47 85.296C150.47 86.1493 150.491 87.3867 150.534 89.008C150.619 90.6293 150.747 92.2933 150.918 94C148.742 93.9147 146.288 93.872 143.558 93.872C140.827 93.8293 138.395 93.808 136.262 93.808C135.28 93.808 134.022 93.808 132.486 93.808C130.95 93.808 129.286 93.8293 127.494 93.872C125.744 93.872 123.952 93.8933 122.118 93.936C120.326 93.936 118.598 93.9573 116.934 94V92.72C118.384 92.6347 119.472 92.464 120.198 92.208C120.923 91.952 121.392 91.44 121.606 90.672C121.862 89.904 121.99 88.752 121.99 87.216V55.472C121.99 53.8933 121.862 52.7413 121.606 52.016C121.392 51.248 120.902 50.736 120.134 50.48C119.408 50.1813 118.342 50.0107 116.934 49.968V48.688C118.598 48.7307 120.326 48.7733 122.118 48.816C123.952 48.816 125.744 48.8373 127.494 48.88C129.286 48.88 130.95 48.88 132.486 48.88C134.022 48.88 135.28 48.88 136.262 48.88C138.224 48.88 140.443 48.88 142.918 48.88C145.435 48.8373 147.675 48.7733 149.638 48.688ZM139.014 70.576C139.014 70.576 139.014 70.7893 139.014 71.216C139.014 71.6427 139.014 71.856 139.014 71.856H127.43C127.43 71.856 127.43 71.6427 127.43 71.216C127.43 70.7893 127.43 70.576 127.43 70.576H139.014ZM140.87 62.128C140.699 64.56 140.614 66.416 140.614 67.696C140.656 68.976 140.678 70.1493 140.678 71.216C140.678 72.2827 140.699 73.456 140.742 74.736C140.784 76.016 140.891 77.872 141.062 80.304H139.59C139.376 78.896 139.099 77.552 138.758 76.272C138.416 74.9493 137.798 73.8827 136.902 73.072C136.048 72.2613 134.704 71.856 132.87 71.856V70.576C134.235 70.576 135.302 70.2987 136.07 69.744C136.88 69.1893 137.499 68.464 137.926 67.568C138.352 66.672 138.651 65.7547 138.822 64.816C139.035 63.8347 139.227 62.9387 139.398 62.128H140.87ZM174.034 48.688V49.968C172.583 50.0107 171.474 50.1813 170.706 50.48C169.98 50.736 169.49 51.248 169.234 52.016C168.978 52.7413 168.85 53.8933 168.85 55.472V87.472C168.85 88.9227 168.956 90.0107 169.17 90.736C169.426 91.4613 169.895 91.952 170.578 92.208C171.303 92.4213 172.327 92.528 173.65 92.528H177.81C179.644 92.528 181.18 92.272 182.418 91.76C183.698 91.248 184.764 90.48 185.618 89.456C186.471 88.432 187.132 87.1093 187.602 85.488C188.071 83.8667 188.434 81.968 188.69 79.792H190.162C190.034 81.1573 189.97 82.9493 189.97 85.168C189.97 86.0213 189.991 87.28 190.034 88.944C190.119 90.5653 190.247 92.2507 190.418 94C188.242 93.9147 185.788 93.872 183.058 93.872C180.327 93.8293 177.895 93.808 175.762 93.808C174.78 93.808 173.522 93.808 171.986 93.808C170.45 93.808 168.786 93.8293 166.994 93.872C165.244 93.872 163.452 93.8933 161.618 93.936C159.826 93.936 158.098 93.9573 156.434 94V92.72C157.884 92.6347 158.972 92.464 159.698 92.208C160.423 91.952 160.892 91.44 161.106 90.672C161.362 89.904 161.49 88.752 161.49 87.216V55.472C161.49 53.8933 161.362 52.7413 161.106 52.016C160.892 51.248 160.402 50.736 159.634 50.48C158.908 50.1813 157.842 50.0107 156.434 49.968V48.688C157.415 48.7307 158.674 48.7733 160.21 48.816C161.788 48.8587 163.474 48.88 165.266 48.88C166.887 48.88 168.487 48.8587 170.066 48.816C171.687 48.7733 173.01 48.7307 174.034 48.688ZM244.789 48.688C244.618 50.48 244.49 52.2293 244.405 53.936C244.362 55.6 244.341 56.88 244.341 57.776C244.341 58.7573 244.362 59.696 244.405 60.592C244.447 61.488 244.49 62.256 244.533 62.896H243.061C242.634 59.696 242.058 57.1787 241.333 55.344C240.65 53.5093 239.647 52.1867 238.325 51.376C237.002 50.5653 235.103 50.16 232.629 50.16H229.877V86.64C229.877 88.3467 230.026 89.6267 230.325 90.48C230.666 91.3333 231.306 91.9093 232.245 92.208C233.226 92.464 234.634 92.6347 236.469 92.72V94C235.274 93.9147 233.738 93.872 231.861 93.872C229.983 93.8293 228.063 93.808 226.101 93.808C224.053 93.808 222.111 93.8293 220.277 93.872C218.485 93.872 217.034 93.9147 215.925 94V92.72C217.759 92.6347 219.146 92.464 220.085 92.208C221.023 91.9093 221.663 91.3333 222.005 90.48C222.346 89.6267 222.517 88.3467 222.517 86.64V50.16H219.701C217.311 50.16 215.434 50.5653 214.069 51.376C212.703 52.1867 211.679 53.5093 210.997 55.344C210.314 57.1787 209.759 59.696 209.333 62.896H207.861C207.946 62.256 207.989 61.488 207.989 60.592C208.031 59.696 208.053 58.7573 208.053 57.776C208.053 56.88 208.01 55.6 207.924 53.936C207.882 52.2293 207.775 50.48 207.605 48.688C209.439 48.7307 211.445 48.7733 213.621 48.816C215.797 48.8587 217.994 48.88 220.213 48.88C222.431 48.88 224.437 48.88 226.229 48.88C228.021 48.88 230.005 48.88 232.181 48.88C234.357 48.88 236.554 48.8587 238.773 48.816C240.991 48.7733 242.997 48.7307 244.789 48.688ZM275.939 94V92.72C277.389 92.6347 278.477 92.464 279.203 92.208C279.928 91.952 280.397 91.44 280.611 90.672C280.867 89.904 280.995 88.752 280.995 87.216V55.472C280.995 53.8933 280.867 52.7413 280.611 52.016C280.397 51.248 279.907 50.736 279.139 50.48C278.413 50.1813 277.347 50.0107 275.939 49.968V48.688C277.005 48.7307 278.328 48.7733 279.907 48.816C281.528 48.8587 283.128 48.88 284.707 48.88C286.499 48.88 288.163 48.8587 289.699 48.816C291.235 48.7733 292.472 48.7307 293.411 48.688V49.968C292.003 50.0107 290.936 50.1813 290.211 50.48C289.485 50.736 288.995 51.248 288.739 52.016C288.483 52.7413 288.355 53.8933 288.355 55.472V87.216C288.355 88.752 288.483 89.904 288.739 90.672C288.995 91.44 289.485 91.952 290.211 92.208C290.936 92.464 292.003 92.6347 293.411 92.72V94C292.472 93.9147 291.235 93.872 289.699 93.872C288.163 93.8293 286.499 93.808 284.707 93.808C283.128 93.808 281.528 93.8293 279.907 93.872C278.328 93.872 277.005 93.9147 275.939 94ZM249.059 94V92.72C250.509 92.6347 251.597 92.464 252.323 92.208C253.048 91.952 253.517 91.44 253.731 90.672C253.987 89.904 254.115 88.752 254.115 87.216V55.472C254.115 53.8933 253.987 52.7413 253.731 52.016C253.517 51.248 253.027 50.736 252.259 50.48C251.533 50.1813 250.467 50.0107 249.059 49.968V48.688C250.04 48.7307 251.299 48.7733 252.835 48.816C254.413 48.8587 256.099 48.88 257.891 48.88C259.512 48.88 261.091 48.8587 262.627 48.816C264.205 48.7733 265.507 48.7307 266.531 48.688V49.968C265.123 50.0107 264.056 50.1813 263.331 50.48C262.605 50.736 262.115 51.248 261.859 52.016C261.603 52.7413 261.475 53.8933 261.475 55.472V87.216C261.475 88.752 261.603 89.904 261.859 90.672C262.115 91.44 262.605 91.952 263.331 92.208C264.056 92.464 265.123 92.6347 266.531 92.72V94C265.507 93.9147 264.205 93.872 262.627 93.872C261.091 93.8293 259.512 93.808 257.891 93.808C256.099 93.808 254.413 93.8293 252.835 93.872C251.299 93.872 250.04 93.9147 249.059 94ZM258.595 71.856V70.576H283.875V71.856H258.595ZM331.138 48.688C330.967 50.3093 330.839 51.888 330.754 53.424C330.711 54.9173 330.69 56.0693 330.69 56.88C330.69 57.6907 330.711 58.4587 330.754 59.184C330.796 59.9093 330.839 60.5067 330.882 60.976H329.41C329.111 58.2453 328.642 56.0907 328.002 54.512C327.404 52.9333 326.487 51.824 325.25 51.184C324.055 50.5013 322.37 50.16 320.194 50.16H315.778C314.412 50.16 313.367 50.288 312.642 50.544C311.959 50.7573 311.49 51.2267 311.234 51.952C310.978 52.6347 310.85 53.7227 310.85 55.216V87.472C310.85 88.9227 310.978 90.0107 311.234 90.736C311.49 91.4613 311.959 91.952 312.642 92.208C313.367 92.4213 314.412 92.528 315.778 92.528H319.938C322.37 92.528 324.29 92.144 325.698 91.376C327.148 90.608 328.236 89.3493 328.962 87.6C329.73 85.8507 330.306 83.4613 330.69 80.432H332.162C332.034 81.6693 331.97 83.2907 331.97 85.296C331.97 86.1493 331.991 87.3867 332.034 89.008C332.119 90.6293 332.247 92.2933 332.418 94C330.242 93.9147 327.788 93.872 325.058 93.872C322.327 93.8293 319.895 93.808 317.762 93.808C316.78 93.808 315.522 93.808 313.986 93.808C312.45 93.808 310.786 93.8293 308.994 93.872C307.244 93.872 305.452 93.8933 303.618 93.936C301.826 93.936 300.098 93.9573 298.434 94V92.72C299.884 92.6347 300.972 92.464 301.698 92.208C302.423 91.952 302.892 91.44 303.106 90.672C303.362 89.904 303.49 88.752 303.49 87.216V55.472C303.49 53.8933 303.362 52.7413 303.106 52.016C302.892 51.248 302.402 50.736 301.634 50.48C300.908 50.1813 299.842 50.0107 298.434 49.968V48.688C300.098 48.7307 301.826 48.7733 303.618 48.816C305.452 48.816 307.244 48.8373 308.994 48.88C310.786 48.88 312.45 48.88 313.986 48.88C315.522 48.88 316.78 48.88 317.762 48.88C319.724 48.88 321.943 48.88 324.418 48.88C326.935 48.8373 329.175 48.7733 331.138 48.688ZM320.514 70.576C320.514 70.576 320.514 70.7893 320.514 71.216C320.514 71.6427 320.514 71.856 320.514 71.856H308.93C308.93 71.856 308.93 71.6427 308.93 71.216C308.93 70.7893 308.93 70.576 308.93 70.576H320.514ZM322.37 62.128C322.199 64.56 322.114 66.416 322.114 67.696C322.156 68.976 322.178 70.1493 322.178 71.216C322.178 72.2827 322.199 73.456 322.242 74.736C322.284 76.016 322.391 77.872 322.562 80.304H321.09C320.876 78.896 320.599 77.552 320.258 76.272C319.916 74.9493 319.298 73.8827 318.402 73.072C317.548 72.2613 316.204 71.856 314.37 71.856V70.576C315.735 70.576 316.802 70.2987 317.57 69.744C318.38 69.1893 318.999 68.464 319.426 67.568C319.852 66.672 320.151 65.7547 320.322 64.816C320.535 63.8347 320.727 62.9387 320.898 62.128H322.37ZM73.2 133.688C73.0293 135.395 72.9013 137.059 72.816 138.68C72.7733 140.301 72.752 141.539 72.752 142.392C72.752 143.373 72.7733 144.312 72.816 145.208C72.8587 146.104 72.9013 146.872 72.944 147.512H71.472C71.088 144.397 70.5547 141.965 69.872 140.216C69.232 138.424 68.2507 137.144 66.928 136.376C65.6053 135.565 63.7067 135.16 61.232 135.16H57.84C56.4747 135.16 55.4293 135.288 54.704 135.544C54.0213 135.757 53.552 136.227 53.296 136.952C53.04 137.635 52.912 138.723 52.912 140.216V172.088C52.912 173.667 53.0827 174.861 53.424 175.672C53.7653 176.44 54.4053 176.952 55.344 177.208C56.2827 177.464 57.6693 177.613 59.504 177.656V179C58.352 178.915 56.8587 178.872 55.024 178.872C53.1893 178.829 51.2907 178.808 49.328 178.808C47.6213 178.808 45.9787 178.829 44.4 178.872C42.864 178.872 41.5627 178.915 40.496 179V177.72C41.9467 177.635 43.0347 177.464 43.76 177.208C44.4853 176.952 44.9547 176.44 45.168 175.672C45.424 174.904 45.552 173.752 45.552 172.216V140.472C45.552 138.893 45.424 137.741 45.168 137.016C44.9547 136.248 44.464 135.736 43.696 135.48C42.9707 135.181 41.904 135.011 40.496 134.968V133.688C42.16 133.731 43.888 133.773 45.68 133.816C47.5147 133.816 49.3067 133.837 51.056 133.88C52.848 133.88 54.512 133.88 56.048 133.88C57.584 133.88 58.8427 133.88 59.824 133.88C61.7867 133.88 64.0053 133.88 66.48 133.88C68.9973 133.837 71.2373 133.773 73.2 133.688ZM63.408 156.088C63.408 156.088 63.408 156.301 63.408 156.728C63.408 157.155 63.408 157.368 63.408 157.368H50.992C50.992 157.368 50.992 157.155 50.992 156.728C50.992 156.301 50.992 156.088 50.992 156.088H63.408ZM64.752 147.64C64.5813 150.072 64.496 151.928 64.496 153.208C64.5387 154.488 64.56 155.661 64.56 156.728C64.56 157.795 64.5813 158.968 64.624 160.248C64.6667 161.528 64.7733 163.384 64.944 165.816H63.472C63.3013 164.408 63.0453 163.064 62.704 161.784C62.3627 160.461 61.744 159.395 60.848 158.584C59.952 157.773 58.608 157.368 56.816 157.368V156.088C58.1813 156.088 59.248 155.811 60.016 155.256C60.8267 154.701 61.4453 153.976 61.872 153.08C62.2987 152.184 62.5973 151.267 62.768 150.328C62.9813 149.347 63.152 148.451 63.28 147.64H64.752ZM94.9055 133.688V134.968C93.4975 135.011 92.4308 135.181 91.7055 135.48C90.9802 135.736 90.4895 136.248 90.2335 137.016C89.9775 137.741 89.8495 138.893 89.8495 140.472V172.216C89.8495 173.752 89.9775 174.904 90.2335 175.672C90.4895 176.44 90.9802 176.952 91.7055 177.208C92.4308 177.464 93.4975 177.635 94.9055 177.72V179C93.8815 178.915 92.5802 178.872 91.0015 178.872C89.4655 178.829 87.8868 178.808 86.2655 178.808C84.4735 178.808 82.7882 178.829 81.2095 178.872C79.6735 178.872 78.4148 178.915 77.4335 179V177.72C78.8842 177.635 79.9722 177.464 80.6975 177.208C81.4228 176.952 81.8922 176.44 82.1055 175.672C82.3615 174.904 82.4895 173.752 82.4895 172.216V140.472C82.4895 138.893 82.3615 137.741 82.1055 137.016C81.8922 136.248 81.4015 135.736 80.6335 135.48C79.9082 135.181 78.8415 135.011 77.4335 134.968V133.688C78.4148 133.731 79.6735 133.773 81.2095 133.816C82.7882 133.859 84.4735 133.88 86.2655 133.88C87.8868 133.88 89.4655 133.859 91.0015 133.816C92.5802 133.773 93.8815 133.731 94.9055 133.688ZM99.871 133.688C100.852 133.731 102.111 133.773 103.647 133.816C105.226 133.859 106.783 133.88 108.319 133.88C110.367 133.88 112.308 133.859 114.143 133.816C116.02 133.773 117.343 133.752 118.111 133.752C121.738 133.752 124.746 134.221 127.135 135.16C129.567 136.099 131.359 137.421 132.511 139.128C133.706 140.792 134.303 142.712 134.303 144.888C134.303 146.211 134.026 147.619 133.471 149.112C132.959 150.563 132.042 151.928 130.719 153.208C129.396 154.445 127.604 155.469 125.343 156.28C123.082 157.091 120.202 157.496 116.703 157.496H110.559V156.216H116.063C118.922 156.216 121.098 155.747 122.591 154.808C124.127 153.827 125.151 152.547 125.663 150.968C126.218 149.347 126.495 147.555 126.495 145.592C126.495 142.221 125.77 139.619 124.319 137.784C122.868 135.907 120.351 134.968 116.767 134.968C114.932 134.968 113.716 135.331 113.119 136.056C112.564 136.781 112.287 138.253 112.287 140.472V172.216C112.287 173.752 112.415 174.904 112.671 175.672C112.927 176.44 113.418 176.952 114.143 177.208C114.868 177.464 115.935 177.635 117.343 177.72V179C116.319 178.915 115.018 178.872 113.439 178.872C111.903 178.829 110.324 178.808 108.703 178.808C106.911 178.808 105.226 178.829 103.647 178.872C102.111 178.872 100.852 178.915 99.871 179V177.72C101.322 177.635 102.41 177.464 103.135 177.208C103.86 176.952 104.33 176.44 104.543 175.672C104.799 174.904 104.927 173.752 104.927 172.216V140.472C104.927 138.893 104.799 137.741 104.543 137.016C104.33 136.248 103.839 135.736 103.071 135.48C102.346 135.181 101.279 135.011 99.871 134.968V133.688ZM110.687 156.408C112.863 156.493 114.612 156.6 115.935 156.728C117.258 156.813 118.367 156.899 119.263 156.984C120.159 157.069 120.991 157.176 121.759 157.304C124.959 157.731 127.284 158.584 128.735 159.864C130.228 161.144 131.252 163.107 131.807 165.752L133.407 172.28C133.791 174.115 134.196 175.416 134.623 176.184C135.092 176.952 135.775 177.336 136.671 177.336C137.354 177.293 137.908 177.101 138.335 176.76C138.804 176.376 139.295 175.864 139.807 175.224L140.703 175.928C139.722 177.251 138.698 178.253 137.631 178.936C136.564 179.576 135.135 179.896 133.343 179.896C131.508 179.896 129.93 179.427 128.607 178.488C127.327 177.507 126.41 175.672 125.855 172.984L124.575 166.584C124.191 164.749 123.764 163.171 123.295 161.848C122.826 160.483 122.164 159.416 121.311 158.648C120.5 157.88 119.306 157.496 117.727 157.496H110.815L110.687 156.408ZM175.013 133.688C174.842 135.309 174.714 136.888 174.629 138.424C174.586 139.917 174.565 141.069 174.565 141.88C174.565 142.691 174.586 143.459 174.629 144.184C174.671 144.909 174.714 145.507 174.757 145.976H173.285C172.986 143.245 172.517 141.091 171.877 139.512C171.279 137.933 170.362 136.824 169.125 136.184C167.93 135.501 166.245 135.16 164.069 135.16H159.653C158.287 135.16 157.242 135.288 156.517 135.544C155.834 135.757 155.365 136.227 155.109 136.952C154.853 137.635 154.725 138.723 154.725 140.216V172.472C154.725 173.923 154.853 175.011 155.109 175.736C155.365 176.461 155.834 176.952 156.517 177.208C157.242 177.421 158.287 177.528 159.653 177.528H163.813C166.245 177.528 168.165 177.144 169.573 176.376C171.023 175.608 172.111 174.349 172.837 172.6C173.605 170.851 174.181 168.461 174.565 165.432H176.037C175.909 166.669 175.845 168.291 175.845 170.296C175.845 171.149 175.866 172.387 175.909 174.008C175.994 175.629 176.122 177.293 176.293 179C174.117 178.915 171.663 178.872 168.933 178.872C166.202 178.829 163.77 178.808 161.637 178.808C160.655 178.808 159.397 178.808 157.861 178.808C156.325 178.808 154.661 178.829 152.869 178.872C151.119 178.872 149.327 178.893 147.493 178.936C145.701 178.936 143.973 178.957 142.309 179V177.72C143.759 177.635 144.847 177.464 145.573 177.208C146.298 176.952 146.767 176.44 146.981 175.672C147.237 174.904 147.365 173.752 147.365 172.216V140.472C147.365 138.893 147.237 137.741 146.981 137.016C146.767 136.248 146.277 135.736 145.509 135.48C144.783 135.181 143.717 135.011 142.309 134.968V133.688C143.973 133.731 145.701 133.773 147.493 133.816C149.327 133.816 151.119 133.837 152.869 133.88C154.661 133.88 156.325 133.88 157.861 133.88C159.397 133.88 160.655 133.88 161.637 133.88C163.599 133.88 165.818 133.88 168.293 133.88C170.81 133.837 173.05 133.773 175.013 133.688ZM164.389 155.576C164.389 155.576 164.389 155.789 164.389 156.216C164.389 156.643 164.389 156.856 164.389 156.856H152.805C152.805 156.856 152.805 156.643 152.805 156.216C152.805 155.789 152.805 155.576 152.805 155.576H164.389ZM166.245 147.128C166.074 149.56 165.989 151.416 165.989 152.696C166.031 153.976 166.053 155.149 166.053 156.216C166.053 157.283 166.074 158.456 166.117 159.736C166.159 161.016 166.266 162.872 166.437 165.304H164.965C164.751 163.896 164.474 162.552 164.133 161.272C163.791 159.949 163.173 158.883 162.277 158.072C161.423 157.261 160.079 156.856 158.245 156.856V155.576C159.61 155.576 160.677 155.299 161.445 154.744C162.255 154.189 162.874 153.464 163.301 152.568C163.727 151.672 164.026 150.755 164.197 149.816C164.41 148.835 164.602 147.939 164.773 147.128H166.245ZM214.906 133.688V134.968C213.498 135.011 212.431 135.181 211.706 135.48C210.98 135.736 210.49 136.248 210.234 137.016C209.978 137.741 209.85 138.893 209.85 140.472V172.216C209.85 173.752 209.978 174.904 210.234 175.672C210.49 176.44 210.98 176.952 211.706 177.208C212.431 177.464 213.498 177.635 214.906 177.72V179C213.882 178.915 212.58 178.872 211.002 178.872C209.466 178.829 207.887 178.808 206.266 178.808C204.474 178.808 202.788 178.829 201.21 178.872C199.674 178.872 198.415 178.915 197.434 179V177.72C198.884 177.635 199.972 177.464 200.698 177.208C201.423 176.952 201.892 176.44 202.106 175.672C202.362 174.904 202.49 173.752 202.49 172.216V140.472C202.49 138.893 202.362 137.741 202.106 137.016C201.892 136.248 201.402 135.736 200.634 135.48C199.908 135.181 198.842 135.011 197.434 134.968V133.688C198.415 133.731 199.674 133.773 201.21 133.816C202.788 133.859 204.474 133.88 206.266 133.88C207.887 133.88 209.466 133.859 211.002 133.816C212.58 133.773 213.882 133.731 214.906 133.688ZM260.767 133.688V134.968C259.316 135.053 258.228 135.309 257.503 135.736C256.778 136.163 256.287 136.867 256.031 137.848C255.818 138.787 255.711 140.131 255.711 141.88V179.256C255.37 179.256 255.028 179.256 254.687 179.256C254.346 179.256 253.983 179.256 253.599 179.256L226.463 139.832V170.552C226.463 172.344 226.591 173.752 226.847 174.776C227.103 175.757 227.658 176.461 228.511 176.888C229.364 177.315 230.666 177.592 232.415 177.72V179C231.604 178.915 230.559 178.872 229.279 178.872C228.042 178.829 226.868 178.808 225.759 178.808C224.692 178.808 223.626 178.829 222.559 178.872C221.492 178.872 220.618 178.915 219.935 179V177.72C221.343 177.592 222.41 177.336 223.135 176.952C223.86 176.525 224.351 175.821 224.607 174.84C224.863 173.859 224.991 172.515 224.991 170.808V140.472C224.991 138.893 224.863 137.741 224.607 137.016C224.351 136.248 223.86 135.736 223.135 135.48C222.41 135.181 221.343 135.011 219.935 134.968V133.688C220.618 133.731 221.492 133.773 222.559 133.816C223.626 133.859 224.692 133.88 225.759 133.88C226.698 133.88 227.615 133.859 228.511 133.816C229.407 133.773 230.196 133.731 230.879 133.688L254.239 167.096V142.136C254.239 140.301 254.09 138.893 253.791 137.912C253.535 136.931 252.98 136.227 252.127 135.8C251.274 135.331 249.994 135.053 248.287 134.968V133.688C249.055 133.731 250.079 133.773 251.359 133.816C252.639 133.859 253.834 133.88 254.943 133.88C256.01 133.88 257.076 133.859 258.143 133.816C259.21 133.773 260.084 133.731 260.767 133.688ZM76.976 218.688C76.8053 220.48 76.6773 222.229 76.592 223.936C76.5493 225.6 76.528 226.88 76.528 227.776C76.528 228.757 76.5493 229.696 76.592 230.592C76.6347 231.488 76.6773 232.256 76.72 232.896H75.248C74.8213 229.696 74.2453 227.179 73.52 225.344C72.8373 223.509 71.8347 222.187 70.512 221.376C69.1893 220.565 67.2907 220.16 64.816 220.16H62.064V256.64C62.064 258.347 62.2133 259.627 62.512 260.48C62.8533 261.333 63.4933 261.909 64.432 262.208C65.4133 262.464 66.8213 262.635 68.656 262.72V264C67.4613 263.915 65.9253 263.872 64.048 263.872C62.1707 263.829 60.2507 263.808 58.288 263.808C56.24 263.808 54.2987 263.829 52.464 263.872C50.672 263.872 49.2213 263.915 48.112 264V262.72C49.9467 262.635 51.3333 262.464 52.272 262.208C53.2107 261.909 53.8507 261.333 54.192 260.48C54.5333 259.627 54.704 258.347 54.704 256.64V220.16H51.888C49.4987 220.16 47.6213 220.565 46.256 221.376C44.8907 222.187 43.8667 223.509 43.184 225.344C42.5013 227.179 41.9467 229.696 41.52 232.896H40.048C40.1333 232.256 40.176 231.488 40.176 230.592C40.2187 229.696 40.24 228.757 40.24 227.776C40.24 226.88 40.1973 225.6 40.112 223.936C40.0693 222.229 39.9627 220.48 39.792 218.688C41.6267 218.731 43.632 218.773 45.808 218.816C47.984 218.859 50.1813 218.88 52.4 218.88C54.6187 218.88 56.624 218.88 58.416 218.88C60.208 218.88 62.192 218.88 64.368 218.88C66.544 218.88 68.7413 218.859 70.96 218.816C73.1787 218.773 75.184 218.731 76.976 218.688ZM108.126 264V262.72C109.577 262.635 110.665 262.464 111.39 262.208C112.115 261.952 112.585 261.44 112.798 260.672C113.054 259.904 113.182 258.752 113.182 257.216V225.472C113.182 223.893 113.054 222.741 112.798 222.016C112.585 221.248 112.094 220.736 111.326 220.48C110.601 220.181 109.534 220.011 108.126 219.968V218.688C109.193 218.731 110.515 218.773 112.094 218.816C113.715 218.859 115.315 218.88 116.894 218.88C118.686 218.88 120.35 218.859 121.886 218.816C123.422 218.773 124.659 218.731 125.598 218.688V219.968C124.19 220.011 123.123 220.181 122.398 220.48C121.673 220.736 121.182 221.248 120.926 222.016C120.67 222.741 120.542 223.893 120.542 225.472V257.216C120.542 258.752 120.67 259.904 120.926 260.672C121.182 261.44 121.673 261.952 122.398 262.208C123.123 262.464 124.19 262.635 125.598 262.72V264C124.659 263.915 123.422 263.872 121.886 263.872C120.35 263.829 118.686 263.808 116.894 263.808C115.315 263.808 113.715 263.829 112.094 263.872C110.515 263.872 109.193 263.915 108.126 264ZM81.246 264V262.72C82.6967 262.635 83.7847 262.464 84.51 262.208C85.2353 261.952 85.7047 261.44 85.918 260.672C86.174 259.904 86.302 258.752 86.302 257.216V225.472C86.302 223.893 86.174 222.741 85.918 222.016C85.7047 221.248 85.214 220.736 84.446 220.48C83.7207 220.181 82.654 220.011 81.246 219.968V218.688C82.2273 218.731 83.486 218.773 85.022 218.816C86.6007 218.859 88.286 218.88 90.078 218.88C91.6993 218.88 93.278 218.859 94.814 218.816C96.3927 218.773 97.694 218.731 98.718 218.688V219.968C97.31 220.011 96.2433 220.181 95.518 220.48C94.7927 220.736 94.302 221.248 94.046 222.016C93.79 222.741 93.662 223.893 93.662 225.472V257.216C93.662 258.752 93.79 259.904 94.046 260.672C94.302 261.44 94.7927 261.952 95.518 262.208C96.2433 262.464 97.31 262.635 98.718 262.72V264C97.694 263.915 96.3927 263.872 94.814 263.872C93.278 263.829 91.6993 263.808 90.078 263.808C88.286 263.808 86.6007 263.829 85.022 263.872C83.486 263.872 82.2273 263.915 81.246 264ZM90.782 241.856V240.576H116.062V241.856H90.782ZM163.325 218.688C163.154 220.309 163.026 221.888 162.941 223.424C162.898 224.917 162.877 226.069 162.877 226.88C162.877 227.691 162.898 228.459 162.941 229.184C162.984 229.909 163.026 230.507 163.069 230.976H161.597C161.298 228.245 160.829 226.091 160.189 224.512C159.592 222.933 158.674 221.824 157.437 221.184C156.242 220.501 154.557 220.16 152.381 220.16H147.965C146.6 220.16 145.554 220.288 144.829 220.544C144.146 220.757 143.677 221.227 143.421 221.952C143.165 222.635 143.037 223.723 143.037 225.216V257.472C143.037 258.923 143.165 260.011 143.421 260.736C143.677 261.461 144.146 261.952 144.829 262.208C145.554 262.421 146.6 262.528 147.965 262.528H152.125C154.557 262.528 156.477 262.144 157.885 261.376C159.336 260.608 160.424 259.349 161.149 257.6C161.917 255.851 162.493 253.461 162.877 250.432H164.349C164.221 251.669 164.157 253.291 164.157 255.296C164.157 256.149 164.178 257.387 164.221 259.008C164.306 260.629 164.434 262.293 164.605 264C162.429 263.915 159.976 263.872 157.245 263.872C154.514 263.829 152.082 263.808 149.949 263.808C148.968 263.808 147.709 263.808 146.173 263.808C144.637 263.808 142.973 263.829 141.181 263.872C139.432 263.872 137.64 263.893 135.805 263.936C134.013 263.936 132.285 263.957 130.621 264V262.72C132.072 262.635 133.16 262.464 133.885 262.208C134.61 261.952 135.08 261.44 135.293 260.672C135.549 259.904 135.677 258.752 135.677 257.216V225.472C135.677 223.893 135.549 222.741 135.293 222.016C135.08 221.248 134.589 220.736 133.821 220.48C133.096 220.181 132.029 220.011 130.621 219.968V218.688C132.285 218.731 134.013 218.773 135.805 218.816C137.64 218.816 139.432 218.837 141.181 218.88C142.973 218.88 144.637 218.88 146.173 218.88C147.709 218.88 148.968 218.88 149.949 218.88C151.912 218.88 154.13 218.88 156.605 218.88C159.122 218.837 161.362 218.773 163.325 218.688ZM152.701 240.576C152.701 240.576 152.701 240.789 152.701 241.216C152.701 241.643 152.701 241.856 152.701 241.856H141.117C141.117 241.856 141.117 241.643 141.117 241.216C141.117 240.789 141.117 240.576 141.117 240.576H152.701ZM154.557 232.128C154.386 234.56 154.301 236.416 154.301 237.696C154.344 238.976 154.365 240.149 154.365 241.216C154.365 242.283 154.386 243.456 154.429 244.736C154.472 246.016 154.578 247.872 154.749 250.304H153.277C153.064 248.896 152.786 247.552 152.445 246.272C152.104 244.949 151.485 243.883 150.589 243.072C149.736 242.261 148.392 241.856 146.557 241.856V240.576C147.922 240.576 148.989 240.299 149.757 239.744C150.568 239.189 151.186 238.464 151.613 237.568C152.04 236.672 152.338 235.755 152.509 234.816C152.722 233.835 152.914 232.939 153.085 232.128H154.557ZM57.968 303.688V304.968C56.56 305.011 55.4933 305.181 54.768 305.48C54.0427 305.736 53.552 306.248 53.296 307.016C53.04 307.741 52.912 308.893 52.912 310.472V342.216C52.912 343.752 53.04 344.904 53.296 345.672C53.552 346.44 54.0427 346.952 54.768 347.208C55.4933 347.464 56.56 347.635 57.968 347.72V349C56.944 348.915 55.6427 348.872 54.064 348.872C52.528 348.829 50.9493 348.808 49.328 348.808C47.536 348.808 45.8507 348.829 44.272 348.872C42.736 348.872 41.4773 348.915 40.496 349V347.72C41.9467 347.635 43.0347 347.464 43.76 347.208C44.4853 346.952 44.9547 346.44 45.168 345.672C45.424 344.904 45.552 343.752 45.552 342.216V310.472C45.552 308.893 45.424 307.741 45.168 307.016C44.9547 306.248 44.464 305.736 43.696 305.48C42.9707 305.181 41.904 305.011 40.496 304.968V303.688C41.4773 303.731 42.736 303.773 44.272 303.816C45.8507 303.859 47.536 303.88 49.328 303.88C50.9493 303.88 52.528 303.859 54.064 303.816C55.6427 303.773 56.944 303.731 57.968 303.688ZM77.3975 302.92C79.6588 302.92 81.3868 303.176 82.5815 303.688C83.7762 304.2 84.8215 304.755 85.7175 305.352C86.2295 305.651 86.6348 305.885 86.9335 306.056C87.2748 306.184 87.5948 306.248 87.8935 306.248C88.3202 306.248 88.6188 306.013 88.7895 305.544C89.0028 305.075 89.1735 304.371 89.3015 303.432H90.7735C90.7308 304.2 90.6668 305.117 90.5815 306.184C90.5388 307.208 90.4962 308.573 90.4535 310.28C90.4535 311.987 90.4535 314.227 90.4535 317H88.9815C88.8535 314.909 88.3842 312.883 87.5735 310.92C86.8055 308.957 85.6535 307.357 84.1175 306.12C82.6242 304.883 80.7042 304.264 78.3575 304.264C76.1815 304.264 74.3682 304.925 72.9175 306.248C71.5095 307.528 70.8055 309.235 70.8055 311.368C70.8055 313.245 71.2748 314.824 72.2135 316.104C73.1522 317.341 74.4322 318.515 76.0535 319.624C77.7175 320.691 79.5948 321.885 81.6855 323.208C83.8188 324.573 85.7388 325.939 87.4455 327.304C89.1522 328.627 90.4962 330.099 91.4775 331.72C92.4588 333.341 92.9495 335.304 92.9495 337.608C92.9495 340.381 92.2882 342.685 90.9655 344.52C89.6855 346.312 87.9575 347.656 85.7815 348.552C83.6055 349.448 81.2162 349.896 78.6135 349.896C76.2242 349.896 74.3255 349.64 72.9175 349.128C71.5095 348.616 70.3148 348.083 69.3335 347.528C68.3948 346.931 67.6695 346.632 67.1575 346.632C66.7308 346.632 66.4108 346.867 66.1975 347.336C66.0268 347.805 65.8775 348.509 65.7495 349.448H64.2775C64.3628 348.509 64.4055 347.421 64.4055 346.184C64.4482 344.904 64.4695 343.24 64.4695 341.192C64.5122 339.144 64.5335 336.563 64.5335 333.448H66.0055C66.1762 336.093 66.6455 338.568 67.4135 340.872C68.2242 343.176 69.4402 345.032 71.0615 346.44C72.7255 347.805 74.9228 348.488 77.6535 348.488C79.1042 348.488 80.4482 348.211 81.6855 347.656C82.9228 347.101 83.9255 346.227 84.6935 345.032C85.4615 343.837 85.8455 342.301 85.8455 340.424C85.8455 338.675 85.4188 337.139 84.5655 335.816C83.7548 334.493 82.6028 333.277 81.1095 332.168C79.6588 331.016 77.9522 329.843 75.9895 328.648C73.9842 327.368 72.1068 326.088 70.3575 324.808C68.6082 323.528 67.2002 322.035 66.1335 320.328C65.1095 318.621 64.5975 316.595 64.5975 314.248C64.5975 311.645 65.1948 309.512 66.3895 307.848C67.6268 306.184 69.2055 304.947 71.1255 304.136C73.0882 303.325 75.1788 302.92 77.3975 302.92ZM116.034 303.688V304.968C114.583 305.011 113.474 305.181 112.706 305.48C111.98 305.736 111.49 306.248 111.234 307.016C110.978 307.741 110.85 308.893 110.85 310.472V342.472C110.85 343.923 110.956 345.011 111.17 345.736C111.426 346.461 111.895 346.952 112.578 347.208C113.303 347.421 114.327 347.528 115.65 347.528H119.81C121.644 347.528 123.18 347.272 124.418 346.76C125.698 346.248 126.764 345.48 127.618 344.456C128.471 343.432 129.132 342.109 129.602 340.488C130.071 338.867 130.434 336.968 130.69 334.792H132.162C132.034 336.157 131.97 337.949 131.97 340.168C131.97 341.021 131.991 342.28 132.034 343.944C132.119 345.565 132.247 347.251 132.418 349C130.242 348.915 127.788 348.872 125.058 348.872C122.327 348.829 119.895 348.808 117.762 348.808C116.78 348.808 115.522 348.808 113.986 348.808C112.45 348.808 110.786 348.829 108.994 348.872C107.244 348.872 105.452 348.893 103.618 348.936C101.826 348.936 100.098 348.957 98.4335 349V347.72C99.8842 347.635 100.972 347.464 101.698 347.208C102.423 346.952 102.892 346.44 103.106 345.672C103.362 344.904 103.49 343.752 103.49 342.216V310.472C103.49 308.893 103.362 307.741 103.106 307.016C102.892 306.248 102.402 305.736 101.634 305.48C100.908 305.181 99.8415 305.011 98.4335 304.968V303.688C99.4148 303.731 100.674 303.773 102.21 303.816C103.788 303.859 105.474 303.88 107.266 303.88C108.887 303.88 110.487 303.859 112.066 303.816C113.687 303.773 115.01 303.731 116.034 303.688ZM155.695 303.432L171.311 343.624C171.908 345.203 172.591 346.269 173.359 346.824C174.169 347.379 174.916 347.677 175.599 347.72V349C174.575 348.915 173.359 348.872 171.951 348.872C170.585 348.829 169.199 348.808 167.791 348.808C165.999 348.808 164.335 348.829 162.799 348.872C161.263 348.872 160.025 348.915 159.087 349V347.72C161.263 347.635 162.628 347.272 163.183 346.632C163.78 345.949 163.652 344.52 162.799 342.344L151.279 311.24L152.303 310.088L141.679 337.864C140.911 339.784 140.441 341.384 140.271 342.664C140.143 343.944 140.249 344.947 140.591 345.672C140.975 346.397 141.615 346.909 142.51 347.208C143.407 347.507 144.516 347.677 145.839 347.72V349C144.559 348.915 143.257 348.872 141.935 348.872C140.655 348.829 139.439 348.808 138.286 348.808C137.263 348.808 136.345 348.829 135.535 348.872C134.767 348.872 134.062 348.915 133.422 349V347.72C134.319 347.507 135.215 346.973 136.111 346.12C137.007 345.267 137.86 343.816 138.671 341.768L153.519 303.432C153.86 303.432 154.223 303.432 154.607 303.432C154.991 303.432 155.353 303.432 155.695 303.432ZM162.415 330.568V331.848H143.343L143.983 330.568H162.415ZM217.267 303.688V304.968C215.816 305.053 214.728 305.309 214.003 305.736C213.278 306.163 212.787 306.867 212.531 307.848C212.318 308.787 212.211 310.131 212.211 311.88V349.256C211.87 349.256 211.528 349.256 211.187 349.256C210.846 349.256 210.483 349.256 210.099 349.256L182.963 309.832V340.552C182.963 342.344 183.091 343.752 183.347 344.776C183.603 345.757 184.158 346.461 185.011 346.888C185.864 347.315 187.166 347.592 188.915 347.72V349C188.104 348.915 187.059 348.872 185.779 348.872C184.542 348.829 183.368 348.808 182.259 348.808C181.192 348.808 180.126 348.829 179.059 348.872C177.992 348.872 177.118 348.915 176.435 349V347.72C177.843 347.592 178.91 347.336 179.635 346.952C180.36 346.525 180.851 345.821 181.107 344.84C181.363 343.859 181.491 342.515 181.491 340.808V310.472C181.491 308.893 181.363 307.741 181.107 307.016C180.851 306.248 180.36 305.736 179.635 305.48C178.91 305.181 177.843 305.011 176.435 304.968V303.688C177.118 303.731 177.992 303.773 179.059 303.816C180.126 303.859 181.192 303.88 182.259 303.88C183.198 303.88 184.115 303.859 185.011 303.816C185.907 303.773 186.696 303.731 187.379 303.688L210.739 337.096V312.136C210.739 310.301 210.59 308.893 210.291 307.912C210.035 306.931 209.48 306.227 208.627 305.8C207.774 305.331 206.494 305.053 204.787 304.968V303.688C205.555 303.731 206.579 303.773 207.859 303.816C209.139 303.859 210.334 303.88 211.443 303.88C212.51 303.88 213.576 303.859 214.643 303.816C215.71 303.773 216.584 303.731 217.267 303.688ZM240.111 303.688C248.004 303.688 253.871 305.608 257.711 309.448C261.551 313.245 263.471 318.707 263.471 325.832C263.471 330.483 262.532 334.557 260.655 338.056C258.778 341.512 256.047 344.2 252.463 346.12C248.922 348.04 244.612 349 239.535 349C238.895 349 238.02 348.979 236.911 348.936C235.844 348.893 234.735 348.872 233.583 348.872C232.431 348.829 231.386 348.808 230.447 348.808C228.826 348.808 227.226 348.829 225.647 348.872C224.111 348.872 222.852 348.915 221.871 349V347.72C223.322 347.635 224.41 347.464 225.135 347.208C225.86 346.952 226.33 346.44 226.543 345.672C226.799 344.904 226.927 343.752 226.927 342.216V310.472C226.927 308.893 226.799 307.741 226.543 307.016C226.33 306.248 225.839 305.736 225.071 305.48C224.346 305.181 223.279 305.011 221.871 304.968V303.688C222.852 303.731 224.111 303.795 225.647 303.88C227.226 303.923 228.783 303.923 230.319 303.88C231.855 303.837 233.562 303.795 235.439 303.752C237.359 303.709 238.916 303.688 240.111 303.688ZM239.023 304.84C237.06 304.84 235.78 305.203 235.183 305.928C234.586 306.653 234.287 308.125 234.287 310.344V342.344C234.287 344.563 234.586 346.035 235.183 346.76C235.823 347.485 237.124 347.848 239.087 347.848C243.396 347.848 246.746 347.016 249.135 345.352C251.524 343.645 253.21 341.171 254.191 337.928C255.172 334.685 255.663 330.739 255.663 326.088C255.663 321.309 255.13 317.363 254.063 314.248C252.996 311.091 251.247 308.744 248.815 307.208C246.426 305.629 243.162 304.84 239.023 304.84Z" fill="white"/>
</svg>
