<svg width="402" height="160" viewBox="0 0 402 160" fill="none" xmlns="http://www.w3.org/2000/svg">
<path d="M112.869 15.4C112.335 20.4667 111.935 25.4 111.669 30.2C111.535 34.8667 111.469 38.4667 111.469 41C111.469 44.2 111.535 47.2 111.669 50C111.802 52.8 111.935 55.2667 112.069 57.4H107.469C106.535 48.0667 105.269 40.7333 103.669 35.4C102.069 29.9333 99.2688 26 95.2688 23.6C91.2688 21.2 85.0688 20 76.6688 20H65.8688V133.8C65.8688 139.133 66.3354 143.133 67.2688 145.8C68.3354 148.467 70.3354 150.267 73.2688 151.2C76.2021 152.133 80.4688 152.733 86.0688 153V157C82.6021 156.733 78.2021 156.6 72.8688 156.6C67.5354 156.467 62.1354 156.4 56.6688 156.4C50.6688 156.4 45.0021 156.467 39.6688 156.6C34.4688 156.6 30.2688 156.733 27.0688 157V153C32.6688 152.733 36.9354 152.133 39.8688 151.2C42.8021 150.267 44.7354 148.467 45.6688 145.8C46.7354 143.133 47.2687 139.133 47.2687 133.8V20H36.4688C28.2021 20 22.0021 21.2 17.8688 23.6C13.8688 26 11.0688 29.9333 9.46875 35.4C7.86875 40.7333 6.60208 48.0667 5.66875 57.4H1.06875C1.33542 55.2667 1.46875 52.8 1.46875 50C1.60208 47.2 1.66875 44.2 1.66875 41C1.66875 38.4667 1.53542 34.8667 1.26875 30.2C1.13542 25.4 0.802083 20.4667 0.26875 15.4C5.86875 15.5333 11.9354 15.6667 18.4688 15.8C25.1354 15.9333 31.8021 16 38.4688 16C45.1354 16 51.2021 16 56.6688 16C62.1354 16 68.1354 16 74.6688 16C81.3354 16 88.0021 15.9333 94.6688 15.8C101.335 15.6667 107.402 15.5333 112.869 15.4ZM192.888 12.6C205.554 12.6 216.621 15.4667 226.088 21.2C235.688 26.9333 243.088 35.2 248.288 46C253.621 56.6667 256.288 69.6667 256.288 85C256.288 99.9333 253.554 113 248.088 124.2C242.754 135.4 235.288 144.133 225.688 150.4C216.088 156.667 205.088 159.8 192.688 159.8C180.021 159.8 168.888 156.933 159.288 151.2C149.821 145.467 142.421 137.2 137.088 126.4C131.888 115.6 129.288 102.6 129.288 87.4C129.288 72.4667 132.021 59.4 137.488 48.2C142.954 37 150.421 28.2667 159.888 22C169.488 15.7333 180.488 12.6 192.888 12.6ZM192.088 16.2C183.421 16.2 175.888 19.2 169.488 25.2C163.088 31.2 158.088 39.4667 154.488 50C151.021 60.5333 149.288 72.7333 149.288 86.6C149.288 100.733 151.221 113.067 155.088 123.6C159.088 134 164.421 142.067 171.088 147.8C177.888 153.4 185.354 156.2 193.488 156.2C202.154 156.2 209.688 153.2 216.088 147.2C222.488 141.2 227.421 132.933 230.888 122.4C234.488 111.733 236.287 99.5333 236.287 85.8C236.287 71.5333 234.288 59.2 230.288 48.8C226.421 38.4 221.154 30.4 214.488 24.8C207.821 19.0667 200.354 16.2 192.088 16.2ZM359.734 0.599987C368.134 0.599987 375.468 2.06665 381.734 4.99999C388.001 7.79999 392.868 11.9333 396.334 17.4C399.934 22.7333 401.734 29.1333 401.734 36.6C401.734 44.0667 399.801 50.7333 395.934 56.6C392.201 62.4667 386.934 67.4667 380.134 71.6C373.468 75.6 365.668 78.7333 356.734 81V110.2H352.734V79.2C361.668 75.8667 368.334 72.2 372.734 68.2C377.134 64.2 380.068 59.8667 381.534 55.2C383.134 50.5333 383.934 45.6 383.934 40.4C383.934 27.7333 381.334 18.6 376.134 13C370.934 7.39999 364.201 4.6 355.934 4.6C352.734 4.6 349.201 5.06666 345.334 5.99999C341.601 6.93333 338.601 8.86666 336.334 11.8C338.868 12.3333 340.868 13.4667 342.334 15.2C343.934 16.9333 344.734 19.2 344.734 22C344.734 25.3333 343.668 28 341.534 30C339.401 31.8667 336.801 32.8 333.734 32.8C330.668 32.8 328.134 31.8 326.134 29.8C324.134 27.8 323.134 25.2667 323.134 22.2C323.134 19.4 324.001 16.8 325.734 14.4C327.468 11.8667 329.734 9.66666 332.534 7.79999C335.334 5.93332 338.934 4.26666 343.334 2.79999C347.868 1.33332 353.334 0.599987 359.734 0.599987ZM354.934 134.2C358.401 134.2 361.401 135.467 363.934 138C366.468 140.533 367.734 143.533 367.734 147C367.734 150.467 366.468 153.467 363.934 156C361.401 158.533 358.401 159.8 354.934 159.8C351.468 159.8 348.468 158.533 345.934 156C343.401 153.467 342.134 150.467 342.134 147C342.134 143.533 343.401 140.533 345.934 138C348.468 135.467 351.468 134.2 354.934 134.2Z" fill="white"/>
</svg>
