<svg width="447" height="93" viewBox="0 0 447 93" fill="none" xmlns="http://www.w3.org/2000/svg">
<path d="M117.221 0.375999V2.936C115.6 3.27733 113.808 4.25866 111.845 5.88C109.882 7.416 108.304 10.1467 107.109 14.072L82.917 91.64C82.7463 91.64 82.5757 91.64 82.405 91.64C82.2343 91.64 82.0637 91.64 81.893 91.64C81.7223 91.64 81.5517 91.64 81.381 91.64C81.2103 91.64 81.0397 91.64 80.869 91.64L53.733 11.128C52.6237 7.8 51.3863 5.624 50.021 4.6C48.6557 3.576 47.3757 3.02133 46.181 2.936V0.375999C47.717 0.461332 49.637 0.546664 51.941 0.631996C54.245 0.717328 56.4637 0.759995 58.597 0.759995C61.925 0.759995 65.0397 0.717328 67.941 0.631996C70.8423 0.546664 73.189 0.461332 74.981 0.375999V2.936C72.421 3.02133 70.373 3.27733 68.837 3.70399C67.3863 4.13066 66.533 5.06933 66.277 6.52C66.1063 7.97066 66.533 10.36 67.557 13.688L86.629 72.696L84.837 74.232L101.733 21.112C103.269 16.4187 103.952 12.792 103.781 10.232C103.696 7.58666 102.757 5.75199 100.965 4.728C99.173 3.61866 96.485 3.02133 92.901 2.936V0.375999C95.3757 0.461332 97.893 0.546664 100.453 0.631996C103.013 0.717328 105.402 0.759995 107.621 0.759995C109.84 0.759995 111.674 0.717328 113.125 0.631996C114.576 0.546664 115.941 0.461332 117.221 0.375999ZM27.749 0.375999V2.936C25.5303 3.10666 23.909 3.53333 22.885 4.216C21.9463 4.89866 21.477 6.008 21.477 7.544C21.5623 8.99466 22.0317 11.0427 22.885 13.688L42.725 74.232L39.525 77.432L57.445 20.216L59.365 23.288L38.245 91.64C38.0743 91.64 37.9037 91.64 37.733 91.64C37.5623 91.64 37.3917 91.64 37.221 91.64C37.0503 91.64 36.8797 91.64 36.709 91.64C36.5383 91.64 36.3677 91.64 36.197 91.64L9.061 11.128C7.95167 7.8 6.54367 5.624 4.837 4.6C3.13033 3.576 1.59433 3.02133 0.229 2.936V0.375999C1.93567 0.461332 4.02633 0.546664 6.501 0.631996C9.061 0.717328 11.5357 0.759995 13.925 0.759995C16.741 0.759995 19.3437 0.717328 21.733 0.631996C24.2077 0.546664 26.213 0.461332 27.749 0.375999ZM175.88 91V88.44C178.781 88.2693 180.957 87.928 182.408 87.416C183.944 86.904 184.968 85.88 185.48 84.344C185.992 82.808 186.248 80.504 186.248 77.432V13.944C186.248 10.7867 185.992 8.48266 185.48 7.032C184.968 5.496 183.944 4.472 182.408 3.96C180.957 3.36266 178.781 3.02133 175.88 2.936V0.375999C177.843 0.461332 180.317 0.546664 183.304 0.631996C186.291 0.717328 189.235 0.759995 192.136 0.759995C195.464 0.759995 198.579 0.717328 201.48 0.631996C204.381 0.546664 206.728 0.461332 208.52 0.375999V2.936C205.619 3.02133 203.4 3.36266 201.864 3.96C200.413 4.472 199.432 5.496 198.92 7.032C198.408 8.48266 198.152 10.7867 198.152 13.944V77.432C198.152 80.504 198.408 82.808 198.92 84.344C199.432 85.88 200.413 86.904 201.864 87.416C203.4 87.928 205.619 88.2693 208.52 88.44V91C206.728 90.8293 204.381 90.744 201.48 90.744C198.579 90.6587 195.464 90.616 192.136 90.616C189.235 90.616 186.291 90.6587 183.304 90.744C180.317 90.744 177.843 90.8293 175.88 91ZM122.376 91V88.44C125.277 88.2693 127.453 87.928 128.904 87.416C130.44 86.904 131.464 85.88 131.976 84.344C132.488 82.808 132.744 80.504 132.744 77.432V13.944C132.744 10.7867 132.488 8.48266 131.976 7.032C131.464 5.496 130.44 4.472 128.904 3.96C127.453 3.36266 125.277 3.02133 122.376 2.936V0.375999C124.168 0.461332 126.515 0.546664 129.416 0.631996C132.317 0.717328 135.432 0.759995 138.76 0.759995C141.747 0.759995 144.691 0.717328 147.592 0.631996C150.579 0.546664 153.053 0.461332 155.016 0.375999V2.936C152.115 3.02133 149.896 3.36266 148.36 3.96C146.909 4.472 145.928 5.496 145.416 7.032C144.904 8.48266 144.648 10.7867 144.648 13.944V77.432C144.648 80.504 144.904 82.808 145.416 84.344C145.928 85.88 146.909 86.904 148.36 87.416C149.896 87.928 152.115 88.2693 155.016 88.44V91C153.053 90.8293 150.579 90.744 147.592 90.744C144.691 90.6587 141.747 90.616 138.76 90.616C135.432 90.616 132.317 90.6587 129.416 90.744C126.515 90.744 124.168 90.8293 122.376 91ZM140.168 46.712V44.152H190.728V46.712H140.168ZM283.123 0.375999C282.782 3.36266 282.526 6.26399 282.355 9.07999C282.27 11.896 282.227 14.0293 282.227 15.48C282.227 17.016 282.27 18.5093 282.355 19.96C282.44 21.3253 282.526 22.4773 282.611 23.416H279.667C279.155 18.3813 278.43 14.4133 277.491 11.512C276.552 8.52533 274.931 6.43466 272.627 5.24C270.408 3.95999 267.038 3.31999 262.515 3.31999H251.891C248.99 3.31999 246.771 3.57599 245.235 4.088C243.784 4.51466 242.803 5.496 242.291 7.032C241.779 8.48266 241.523 10.7867 241.523 13.944V77.432C241.523 80.504 241.779 82.808 242.291 84.344C242.803 85.88 243.784 86.904 245.235 87.416C246.771 87.8427 248.99 88.056 251.891 88.056H261.235C266.611 88.056 270.664 87.3307 273.395 85.88C276.211 84.4293 278.216 82.0827 279.411 78.84C280.691 75.512 281.63 71.032 282.227 65.4H285.171C284.915 67.704 284.787 70.776 284.787 74.616C284.787 76.2373 284.83 78.584 284.915 81.656C285.086 84.6427 285.342 87.7573 285.683 91C281.331 90.8293 276.424 90.744 270.963 90.744C265.502 90.6587 260.638 90.616 256.371 90.616C254.494 90.616 252.062 90.616 249.075 90.616C246.174 90.616 243.016 90.6587 239.603 90.744C236.19 90.744 232.734 90.7867 229.235 90.872C225.736 90.872 222.408 90.9147 219.251 91V88.44C222.152 88.2693 224.328 87.928 225.779 87.416C227.315 86.904 228.339 85.88 228.851 84.344C229.363 82.808 229.619 80.504 229.619 77.432V13.944C229.619 10.7867 229.363 8.48266 228.851 7.032C228.339 5.496 227.315 4.472 225.779 3.96C224.328 3.36266 222.152 3.02133 219.251 2.936V0.375999C222.408 0.461332 225.736 0.546664 229.235 0.631996C232.734 0.631996 236.19 0.674662 239.603 0.759995C243.016 0.759995 246.174 0.759995 249.075 0.759995C252.062 0.759995 254.494 0.759995 256.371 0.759995C260.296 0.759995 264.734 0.759995 269.683 0.759995C274.718 0.674662 279.198 0.546664 283.123 0.375999ZM261.107 44.152C261.107 44.152 261.107 44.5787 261.107 45.432C261.107 46.2853 261.107 46.712 261.107 46.712H237.683C237.683 46.712 237.683 46.2853 237.683 45.432C237.683 44.5787 237.683 44.152 237.683 44.152H261.107ZM264.819 27.256C264.478 32.12 264.307 35.832 264.307 38.392C264.392 40.952 264.435 43.2987 264.435 45.432C264.435 47.5653 264.478 49.912 264.563 52.472C264.648 55.032 264.862 58.744 265.203 63.608H262.259C261.918 60.8773 261.491 58.232 260.979 55.672C260.552 53.0267 259.528 50.8933 257.907 49.272C256.371 47.5653 253.726 46.712 249.971 46.712V44.152C252.787 44.152 254.92 43.5973 256.371 42.488C257.907 41.2933 259.016 39.8 259.699 38.008C260.382 36.216 260.851 34.3813 261.107 32.504C261.363 30.5413 261.619 28.792 261.875 27.256H264.819ZM297.251 0.375999C299.043 0.461332 301.39 0.546664 304.291 0.631996C307.192 0.717328 310.051 0.759995 312.867 0.759995C316.878 0.759995 320.718 0.717328 324.387 0.631996C328.056 0.546664 330.659 0.503998 332.195 0.503998C339.107 0.503998 344.824 1.48533 349.347 3.448C353.955 5.41066 357.368 8.09866 359.587 11.512C361.891 14.84 363.043 18.5947 363.043 22.776C363.043 25.336 362.531 28.0667 361.507 30.968C360.483 33.8693 358.691 36.6 356.131 39.16C353.656 41.72 350.243 43.8533 345.891 45.56C341.539 47.1813 336.035 47.992 329.379 47.992H317.091V45.432H328.099C334.158 45.432 338.766 44.4933 341.923 42.616C345.166 40.6533 347.342 38.0933 348.451 34.936C349.646 31.6933 350.243 28.1093 350.243 24.184C350.243 17.4427 348.622 12.2373 345.379 8.56799C342.222 4.81333 336.76 2.936 328.995 2.936C325.07 2.936 322.51 3.66133 321.315 5.112C320.12 6.56266 319.523 9.50666 319.523 13.944V77.432C319.523 80.504 319.779 82.808 320.291 84.344C320.803 85.88 321.784 86.904 323.235 87.416C324.771 87.928 326.99 88.2693 329.891 88.44V91C327.928 90.8293 325.454 90.744 322.467 90.744C319.566 90.6587 316.622 90.616 313.635 90.616C310.307 90.616 307.192 90.6587 304.291 90.744C301.39 90.744 299.043 90.8293 297.251 91V88.44C300.152 88.2693 302.328 87.928 303.779 87.416C305.315 86.904 306.339 85.88 306.851 84.344C307.363 82.808 307.619 80.504 307.619 77.432V13.944C307.619 10.7867 307.363 8.48266 306.851 7.032C306.339 5.496 305.315 4.472 303.779 3.96C302.328 3.36266 300.152 3.02133 297.251 2.936V0.375999ZM317.603 45.816C322.211 45.9867 325.838 46.2 328.483 46.456C331.128 46.6267 333.262 46.7973 334.883 46.968C336.59 47.1387 338.211 47.352 339.747 47.608C345.464 48.5467 349.56 50.296 352.035 52.856C354.595 55.3307 356.472 59.2133 357.667 64.504L360.867 77.56C361.72 81.3147 362.574 84.0453 363.427 85.752C364.366 87.3733 365.774 88.1413 367.651 88.056C369.102 87.9707 370.296 87.5013 371.235 86.648C372.259 85.7947 373.326 84.6427 374.435 83.192L376.355 84.6C374.563 87.2453 372.686 89.2933 370.723 90.744C368.846 92.1093 366.158 92.792 362.659 92.792C359.502 92.792 356.728 91.8533 354.339 89.976C351.95 88.0987 350.158 84.4293 348.963 78.968L346.147 66.168C345.379 62.4987 344.483 59.3413 343.459 56.696C342.52 53.9653 341.155 51.832 339.363 50.296C337.656 48.76 335.096 47.992 331.683 47.992H317.859L317.603 45.816ZM444.123 0.375999C443.782 3.36266 443.526 6.26399 443.355 9.07999C443.27 11.896 443.227 14.0293 443.227 15.48C443.227 17.016 443.27 18.5093 443.355 19.96C443.44 21.3253 443.526 22.4773 443.611 23.416H440.667C440.155 18.3813 439.43 14.4133 438.491 11.512C437.552 8.52533 435.931 6.43466 433.627 5.24C431.408 3.95999 428.038 3.31999 423.515 3.31999H412.891C409.99 3.31999 407.771 3.57599 406.235 4.088C404.784 4.51466 403.803 5.496 403.291 7.032C402.779 8.48266 402.523 10.7867 402.523 13.944V77.432C402.523 80.504 402.779 82.808 403.291 84.344C403.803 85.88 404.784 86.904 406.235 87.416C407.771 87.8427 409.99 88.056 412.891 88.056H422.235C427.611 88.056 431.664 87.3307 434.395 85.88C437.211 84.4293 439.216 82.0827 440.411 78.84C441.691 75.512 442.63 71.032 443.227 65.4H446.171C445.915 67.704 445.787 70.776 445.787 74.616C445.787 76.2373 445.83 78.584 445.915 81.656C446.086 84.6427 446.342 87.7573 446.683 91C442.331 90.8293 437.424 90.744 431.963 90.744C426.502 90.6587 421.638 90.616 417.371 90.616C415.494 90.616 413.062 90.616 410.075 90.616C407.174 90.616 404.016 90.6587 400.603 90.744C397.19 90.744 393.734 90.7867 390.235 90.872C386.736 90.872 383.408 90.9147 380.251 91V88.44C383.152 88.2693 385.328 87.928 386.779 87.416C388.315 86.904 389.339 85.88 389.851 84.344C390.363 82.808 390.619 80.504 390.619 77.432V13.944C390.619 10.7867 390.363 8.48266 389.851 7.032C389.339 5.496 388.315 4.472 386.779 3.96C385.328 3.36266 383.152 3.02133 380.251 2.936V0.375999C383.408 0.461332 386.736 0.546664 390.235 0.631996C393.734 0.631996 397.19 0.674662 400.603 0.759995C404.016 0.759995 407.174 0.759995 410.075 0.759995C413.062 0.759995 415.494 0.759995 417.371 0.759995C421.296 0.759995 425.734 0.759995 430.683 0.759995C435.718 0.674662 440.198 0.546664 444.123 0.375999ZM422.107 44.152C422.107 44.152 422.107 44.5787 422.107 45.432C422.107 46.2853 422.107 46.712 422.107 46.712H398.683C398.683 46.712 398.683 46.2853 398.683 45.432C398.683 44.5787 398.683 44.152 398.683 44.152H422.107ZM425.819 27.256C425.478 32.12 425.307 35.832 425.307 38.392C425.392 40.952 425.435 43.2987 425.435 45.432C425.435 47.5653 425.478 49.912 425.563 52.472C425.648 55.032 425.862 58.744 426.203 63.608H423.259C422.918 60.8773 422.491 58.232 421.979 55.672C421.552 53.0267 420.528 50.8933 418.907 49.272C417.371 47.5653 414.726 46.712 410.971 46.712V44.152C413.787 44.152 415.92 43.5973 417.371 42.488C418.907 41.2933 420.016 39.8 420.699 38.008C421.382 36.216 421.851 34.3813 422.107 32.504C422.363 30.5413 422.619 28.792 422.875 27.256H425.819Z" fill="white"/>
</svg>
