<svg width="365" height="134" viewBox="0 0 365 134" fill="none" xmlns="http://www.w3.org/2000/svg">
<g filter="url(#filter0_d_211_166)">
<path d="M77.7825 10.376V12.936C75.1372 13.2773 72.5772 14.1307 70.1025 15.496C67.6278 16.8613 65.1532 19.1227 62.6785 22.28L37.9745 53.896L40.7905 47.624L71.5105 90.632C72.9612 92.7653 74.5398 94.4293 76.2465 95.624C77.9532 96.8187 80.1292 97.7573 82.7745 98.44V101C80.7265 100.829 78.1665 100.744 75.0945 100.744C72.1078 100.659 69.5478 100.616 67.4145 100.616C65.9638 100.616 64.1718 100.659 62.0385 100.744C59.9905 100.744 57.3878 100.829 54.2305 101V98.44C57.1318 98.2693 58.9665 97.7573 59.7345 96.904C60.5025 96.0507 60.2038 94.6427 58.8385 92.68L40.1505 64.52C38.4438 61.8747 36.9078 59.912 35.5425 58.632C34.2625 57.2667 32.8972 56.3707 31.4465 55.944C30.0812 55.5173 28.3318 55.2613 26.1985 55.176V52.616C29.7825 52.5307 32.7692 51.848 35.1585 50.568C37.6332 49.2027 39.6812 47.496 41.3025 45.448L53.5905 29.832C56.4065 26.248 58.3265 23.2187 59.3505 20.744C60.3745 18.2693 60.3318 16.392 59.2225 15.112C58.1132 13.7467 55.7665 13.0213 52.1825 12.936V10.376C53.8038 10.4613 55.4678 10.5467 57.1745 10.632C58.8812 10.632 60.5452 10.6747 62.1665 10.76C63.8732 10.76 65.4518 10.76 66.9025 10.76C69.1212 10.76 71.1692 10.7173 73.0465 10.632C74.9238 10.5467 76.5025 10.4613 77.7825 10.376ZM37.0785 10.376V12.936C34.1772 13.0213 31.9585 13.3627 30.4225 13.96C28.9718 14.472 27.9905 15.496 27.4785 17.032C26.9665 18.4827 26.7105 20.7867 26.7105 23.944V87.432C26.7105 90.504 26.9665 92.808 27.4785 94.344C27.9905 95.88 28.9718 96.904 30.4225 97.416C31.9585 97.928 34.1772 98.2693 37.0785 98.44V101C35.1158 100.829 32.6412 100.744 29.6545 100.744C26.7532 100.659 23.8092 100.616 20.8225 100.616C17.4945 100.616 14.3798 100.659 11.4785 100.744C8.57717 100.744 6.2305 100.829 4.4385 101V98.44C7.33983 98.2693 9.51583 97.928 10.9665 97.416C12.5025 96.904 13.5265 95.88 14.0385 94.344C14.5505 92.808 14.8065 90.504 14.8065 87.432V23.944C14.8065 20.7867 14.5505 18.4827 14.0385 17.032C13.5265 15.496 12.5025 14.472 10.9665 13.96C9.51583 13.3627 7.33983 13.0213 4.4385 12.936V10.376C6.2305 10.4613 8.57717 10.5467 11.4785 10.632C14.3798 10.7173 17.4945 10.76 20.8225 10.76C23.8092 10.76 26.7532 10.7173 29.6545 10.632C32.6412 10.5467 35.1158 10.4613 37.0785 10.376ZM104.826 101.896C101.327 101.896 98.2975 101.256 95.7375 99.976C93.1775 98.6107 91.2148 96.7333 89.8495 94.344C88.5695 91.9547 87.9295 89.1813 87.9295 86.024C87.9295 82.2693 88.7828 79.1973 90.4895 76.808C92.2815 74.4187 94.5428 72.4987 97.2735 71.048C100.004 69.5973 102.863 68.4027 105.85 67.464C108.922 66.44 111.823 65.5013 114.554 64.648C117.284 63.7093 119.503 62.6427 121.21 61.448C123.002 60.2533 123.898 58.6747 123.898 56.712V48.776C123.898 45.192 123.343 42.4613 122.234 40.584C121.21 38.7067 119.802 37.4693 118.01 36.872C116.218 36.1893 114.212 35.848 111.994 35.848C109.86 35.848 107.556 36.1467 105.082 36.744C102.692 37.3413 100.772 38.5787 99.3215 40.456C100.943 40.7973 102.351 41.6507 103.546 43.016C104.74 44.3813 105.338 46.1307 105.338 48.264C105.338 50.3973 104.655 52.104 103.29 53.384C101.924 54.5787 100.175 55.176 98.0415 55.176C95.5668 55.176 93.7322 54.408 92.5375 52.872C91.4282 51.2507 90.8735 49.4587 90.8735 47.496C90.8735 45.2773 91.4282 43.4853 92.5375 42.12C93.6468 40.7547 95.0548 39.4747 96.7615 38.28C98.7242 36.9147 101.242 35.7627 104.314 34.824C107.471 33.8 111.012 33.288 114.938 33.288C118.436 33.288 121.423 33.7147 123.898 34.568C126.372 35.336 128.42 36.488 130.042 38.024C132.26 40.072 133.711 42.5893 134.394 45.576C135.076 48.4773 135.418 51.976 135.418 56.072V91.656C135.418 93.7893 135.716 95.3253 136.314 96.264C136.996 97.2027 138.02 97.672 139.386 97.672C140.324 97.672 141.22 97.4587 142.074 97.032C142.927 96.6053 143.951 95.9227 145.146 94.984L146.554 97.16C144.762 98.5253 143.055 99.6773 141.434 100.616C139.812 101.469 137.636 101.896 134.906 101.896C132.431 101.896 130.383 101.469 128.762 100.616C127.14 99.7627 125.903 98.5253 125.05 96.904C124.282 95.1973 123.898 93.064 123.898 90.504C121.594 94.344 118.82 97.2027 115.578 99.08C112.42 100.957 108.836 101.896 104.826 101.896ZM109.434 96.776C112.25 96.776 114.852 95.9653 117.242 94.344C119.716 92.7227 121.935 90.2907 123.898 87.048V61.96C122.874 63.4107 121.38 64.648 119.418 65.672C117.455 66.6107 115.322 67.592 113.018 68.616C110.714 69.5547 108.495 70.7067 106.362 72.072C104.314 73.352 102.607 75.0587 101.242 77.192C99.8762 79.3253 99.1935 82.0987 99.1935 85.512C99.1935 88.9253 100.09 91.656 101.882 93.704C103.759 95.752 106.276 96.776 109.434 96.776ZM193.408 33.288C196.65 33.288 199.338 33.7147 201.472 34.568C203.69 35.4213 205.525 36.616 206.976 38.152C208.597 39.8587 209.749 41.992 210.432 44.552C211.114 47.112 211.456 50.568 211.456 54.92V89.096C211.456 92.68 212.181 95.112 213.632 96.392C215.168 97.672 217.685 98.312 221.184 98.312V101C219.733 100.915 217.514 100.829 214.528 100.744C211.541 100.573 208.64 100.488 205.824 100.488C203.008 100.488 200.234 100.573 197.504 100.744C194.858 100.829 192.853 100.915 191.488 101V98.312C194.56 98.312 196.736 97.672 198.016 96.392C199.296 95.112 199.936 92.68 199.936 89.096V52.104C199.936 49.4587 199.722 47.0267 199.296 44.808C198.869 42.5893 197.888 40.7973 196.352 39.432C194.901 38.0667 192.64 37.384 189.568 37.384C185.984 37.384 182.826 38.408 180.096 40.456C177.45 42.504 175.36 45.32 173.824 48.904C172.373 52.4027 171.648 56.328 171.648 60.68V89.096C171.648 92.68 172.288 95.112 173.568 96.392C174.848 97.672 177.024 98.312 180.096 98.312V101C178.73 100.915 176.682 100.829 173.952 100.744C171.306 100.573 168.576 100.488 165.76 100.488C162.944 100.488 160.042 100.573 157.056 100.744C154.069 100.829 151.85 100.915 150.4 101V98.312C153.898 98.312 156.373 97.672 157.824 96.392C159.36 95.112 160.128 92.68 160.128 89.096V49.032C160.128 45.192 159.445 42.376 158.08 40.584C156.714 38.7067 154.154 37.768 150.4 37.768V35.08C153.13 35.336 155.776 35.464 158.336 35.464C160.81 35.464 163.157 35.336 165.376 35.08C167.68 34.7387 169.77 34.2693 171.648 33.672V48.776C173.866 42.9733 176.938 38.9627 180.864 36.744C184.874 34.44 189.056 33.288 193.408 33.288ZM285.015 0.647995V87.048C285.015 90.888 285.697 93.7467 287.062 95.624C288.513 97.416 291.073 98.312 294.743 98.312V101C292.097 100.744 289.452 100.616 286.807 100.616C284.332 100.616 281.943 100.744 279.639 101C277.42 101.256 275.372 101.725 273.495 102.408V16.008C273.495 12.168 272.812 9.35199 271.447 7.56C270.081 5.68266 267.521 4.744 263.767 4.744V2.05599C266.497 2.31199 269.143 2.43999 271.703 2.43999C274.177 2.43999 276.524 2.31199 278.743 2.05599C281.047 1.71466 283.137 1.24533 285.015 0.647995ZM258.135 33.288C261.889 33.288 265.388 34.184 268.631 35.976C271.959 37.768 274.177 40.84 275.287 45.192L273.623 46.472C272.428 42.888 270.551 40.2853 267.991 38.664C265.516 37.0427 262.572 36.232 259.159 36.232C254.124 36.232 249.9 38.8347 246.487 44.04C243.159 49.2453 241.537 57.2667 241.623 68.104C241.623 75.016 242.263 80.776 243.543 85.384C244.908 89.9067 246.871 93.32 249.431 95.624C252.076 97.8427 255.276 98.952 259.031 98.952C262.615 98.952 265.857 97.416 268.759 94.344C271.66 91.272 273.409 86.7493 274.007 80.776L275.543 82.568C274.86 89.0533 272.769 94.0453 269.271 97.544C265.857 101.043 261.207 102.792 255.319 102.792C250.028 102.792 245.377 101.512 241.367 98.952C237.441 96.392 234.412 92.552 232.279 87.432C230.231 82.312 229.207 75.8693 229.207 68.104C229.207 60.3387 230.529 53.896 233.175 48.776C235.905 43.5707 239.447 39.688 243.799 37.128C248.236 34.568 253.015 33.288 258.135 33.288ZM360.67 35.08V37.64C359.048 37.8107 357.555 38.536 356.19 39.816C354.824 41.096 353.544 43.3573 352.35 46.6L331.358 101.64H329.182L305.63 44.936C304.008 41.608 302.387 39.6027 300.766 38.92C299.23 38.152 297.95 37.768 296.925 37.768V35.08C298.803 35.336 300.766 35.5493 302.814 35.72C304.862 35.8053 307.08 35.848 309.47 35.848C312.115 35.848 314.888 35.7627 317.79 35.592C320.776 35.4213 323.55 35.2507 326.11 35.08V37.768C323.976 37.768 322.056 37.9387 320.35 38.28C318.728 38.536 317.704 39.432 317.278 40.968C316.851 42.4187 317.363 44.936 318.814 48.52L334.558 87.56L333.79 87.816L348.382 49.672C349.491 46.856 349.918 44.6373 349.662 43.016C349.491 41.3093 348.638 40.0293 347.102 39.176C345.566 38.3227 343.262 37.8107 340.19 37.64V35.08C341.726 35.1653 343.048 35.2507 344.158 35.336C345.267 35.336 346.334 35.3787 347.358 35.464C348.467 35.464 349.662 35.464 350.942 35.464C352.904 35.464 354.654 35.4213 356.19 35.336C357.811 35.2507 359.304 35.1653 360.67 35.08ZM331.358 101.64L327.006 112.776C326.152 114.909 325.256 116.701 324.318 118.152C323.464 119.603 322.526 120.797 321.502 121.736C320.136 123.016 318.515 123.869 316.638 124.296C314.76 124.808 313.054 125.064 311.518 125.064C309.896 125.064 308.403 124.765 307.038 124.168C305.758 123.571 304.734 122.675 303.966 121.48C303.198 120.371 302.814 119.005 302.814 117.384C302.814 115.336 303.411 113.672 304.606 112.392C305.8 111.197 307.464 110.6 309.598 110.6C311.39 110.6 312.926 111.112 314.206 112.136C315.486 113.16 316.126 114.653 316.126 116.616C316.126 118.067 315.784 119.261 315.102 120.2C314.419 121.139 313.608 121.864 312.67 122.376C312.84 122.461 312.968 122.504 313.054 122.504C313.224 122.504 313.352 122.504 313.438 122.504C315.742 122.504 317.79 121.693 319.582 120.072C321.374 118.536 322.952 116.019 324.318 112.52L328.926 100.616L331.358 101.64Z" fill="white"/>
</g>
<defs>
<filter id="filter0_d_211_166" x="0.438477" y="0.648438" width="364.231" height="132.416" filterUnits="userSpaceOnUse" color-interpolation-filters="sRGB">
<feFlood flood-opacity="0" result="BackgroundImageFix"/>
<feColorMatrix in="SourceAlpha" type="matrix" values="0 0 0 0 0 0 0 0 0 0 0 0 0 0 0 0 0 0 127 0" result="hardAlpha"/>
<feOffset dy="4"/>
<feGaussianBlur stdDeviation="2"/>
<feComposite in2="hardAlpha" operator="out"/>
<feColorMatrix type="matrix" values="0 0 0 0 0 0 0 0 0 0 0 0 0 0 0 0 0 0 0.6 0"/>
<feBlend mode="normal" in2="BackgroundImageFix" result="effect1_dropShadow_211_166"/>
<feBlend mode="normal" in="SourceGraphic" in2="effect1_dropShadow_211_166" result="shape"/>
</filter>
</defs>
</svg>
